<svg width="1169" height="346" viewBox="0 0 1169 346" fill="none" xmlns="http://www.w3.org/2000/svg">
<g filter="url(#filter0_f_111_7)">
<path d="M58.8025 291.151C55.8882 291.333 53.2995 290.954 51.0364 290.013C48.7709 289.032 46.9782 287.601 45.6583 285.72C44.336 283.799 43.5925 281.521 43.428 278.886L42.9417 271.101C42.7746 268.426 43.2288 266.073 44.3043 264.042C45.3798 262.011 46.9817 260.388 49.1101 259.173C51.236 257.918 53.7562 257.2 56.6705 257.018C61.022 256.746 64.5638 257.627 67.2959 259.66C70.028 261.694 71.5923 264.602 71.9889 268.385L63.0064 268.946C62.7994 267.556 62.1719 266.493 61.1239 265.757C60.1159 265.018 58.7935 264.7 57.1567 264.803C55.3602 264.915 54.0116 265.46 53.1108 266.438C52.21 267.416 51.8145 268.783 51.9242 270.54L52.4104 278.325C52.5177 280.041 53.0803 281.349 54.0983 282.247C55.1137 283.105 56.5197 283.479 58.3162 283.366C59.953 283.264 61.2268 282.804 62.1376 281.985C63.0858 281.125 63.5749 279.972 63.6048 278.527L72.5873 277.966C72.6645 281.769 71.4742 284.849 69.0165 287.207C66.5587 289.565 63.154 290.879 58.8025 291.151ZM94.5294 288.92C91.6151 289.102 89.0464 288.721 86.8232 287.778C84.5976 286.795 82.8249 285.362 81.505 283.481C80.2226 281.557 79.4991 279.278 79.3345 276.643L78.8483 268.858C78.6837 266.223 79.1192 263.892 80.1548 261.863C81.2278 259.792 82.8085 258.15 84.897 256.938C86.9829 255.685 89.4831 254.968 92.3974 254.786C95.3517 254.602 97.9216 255.002 100.107 255.988C102.33 256.931 104.083 258.365 105.366 260.288C106.685 262.17 107.428 264.428 107.592 267.063L108.079 274.848C108.243 277.483 107.789 279.835 106.716 281.906C105.68 283.935 104.12 285.575 102.034 286.828C99.9851 288.038 97.4837 288.735 94.5294 288.92ZM94.0432 281.135C95.7997 281.025 97.1085 280.482 97.9693 279.507C98.8277 278.491 99.2033 277.125 99.096 275.409L98.6098 267.624C98.5001 265.867 97.9574 264.559 96.9819 263.698C96.0063 262.837 94.6402 262.461 92.8837 262.571C91.167 262.678 89.8583 263.221 88.9575 264.199C88.0966 265.174 87.7211 266.541 87.8308 268.297L88.317 276.082C88.4243 277.799 88.9669 279.107 89.945 280.008C90.9604 280.866 92.3265 281.242 94.0432 281.135ZM127.023 286.89C123.709 287.097 120.982 286.105 118.841 283.914C116.7 281.724 115.507 278.652 115.26 274.7L114.736 266.316C114.492 262.404 115.295 259.227 117.147 256.787C118.996 254.307 121.577 252.964 124.891 252.757C127.605 252.587 129.791 253.252 131.448 254.752C133.102 256.211 134.018 258.359 134.195 261.193L131.968 259.228L134.064 259.097L133.259 251.032L132.698 242.049L141.681 241.488L144.411 285.203L135.728 285.745L135.335 279.457L133.24 279.588L135.205 277.362C135.382 280.196 134.742 282.46 133.284 284.154C131.825 285.809 129.737 286.721 127.023 286.89ZM129.77 278.903C131.407 278.801 132.656 278.262 133.517 277.287C134.375 276.271 134.751 274.905 134.643 273.188L134.157 265.404C134.05 263.687 133.508 262.398 132.533 261.537C131.555 260.637 130.247 260.237 128.611 260.339C126.934 260.444 125.666 261.004 124.808 262.02C123.987 262.993 123.63 264.338 123.737 266.054L124.224 273.839C124.331 275.556 124.854 276.866 125.792 277.769C126.767 278.63 128.093 279.008 129.77 278.903ZM152.532 284.696L152.023 276.551L163.401 275.841L162.358 259.133L152.477 259.751L151.972 251.666L170.236 250.525L171.785 275.317L181.366 274.719L181.875 282.863L152.532 284.696ZM165.12 245.615C163.483 245.717 162.14 245.38 161.089 244.604C160.079 243.826 159.529 242.718 159.439 241.281C159.349 239.843 159.757 238.676 160.663 237.777C161.609 236.877 162.9 236.375 164.537 236.273C166.174 236.171 167.497 236.509 168.508 237.287C169.558 238.064 170.128 239.17 170.218 240.607C170.308 242.045 169.88 243.213 168.934 244.114C168.028 245.012 166.757 245.513 165.12 245.615ZM188.199 282.468L186.142 249.532L194.825 248.99L195.218 255.277L197.853 255.113L195.349 257.373C195.174 254.579 195.835 252.333 197.333 250.637C198.83 248.94 200.936 248.007 203.65 247.837C206.844 247.638 209.469 248.596 211.525 250.712C213.621 252.825 214.785 255.739 215.016 259.451L216.344 280.71L207.362 281.271L206.09 260.911C205.983 259.194 205.441 257.905 204.466 257.044C203.528 256.141 202.24 255.741 200.603 255.843C199.007 255.942 197.799 256.499 196.98 257.512C196.159 258.485 195.803 259.83 195.91 261.546L197.182 281.907L188.199 282.468ZM229.51 290.709L229.061 283.523L238.343 282.943C240.02 282.838 241.271 282.339 242.097 281.446C242.963 280.55 243.349 279.364 243.257 277.887L243.179 276.629L242.906 270.334L240.81 270.465L242.775 268.238C242.952 271.072 242.312 273.337 240.854 275.031C239.395 276.685 237.308 277.597 234.593 277.767C231.279 277.973 228.552 276.982 226.411 274.791C224.271 272.6 223.077 269.528 222.83 265.576L222.456 259.588C222.212 255.675 223.015 252.499 224.867 250.059C226.716 247.579 229.297 246.235 232.61 246.028C235.325 245.859 237.511 246.524 239.168 248.023C240.822 249.483 241.737 251.63 241.914 254.465L239.688 252.5L241.784 252.369L241.091 246.1L250.074 245.539L252.079 277.636C252.303 281.229 251.243 284.141 248.897 286.372C246.591 288.6 243.323 289.846 239.091 290.11L229.51 290.709ZM237.34 269.78C238.977 269.677 240.226 269.139 241.087 268.163C241.945 267.148 242.321 265.781 242.213 264.065L241.877 258.675C241.77 256.959 241.228 255.67 240.253 254.809C239.275 253.908 237.967 253.509 236.33 253.611C234.654 253.716 233.386 254.276 232.528 255.292C231.707 256.265 231.35 257.609 231.457 259.326L231.794 264.716C231.901 266.432 232.424 267.742 233.362 268.646C234.337 269.506 235.664 269.884 237.34 269.78Z" fill="#E5FF7B"/>
</g>
<path d="M63.2751 297.72C60.365 297.961 57.7692 297.635 55.4875 296.74C53.2025 295.806 51.3812 294.411 50.0234 292.557C48.6623 290.663 47.8728 288.4 47.6548 285.769L47.0106 277.996C46.7893 275.325 47.1957 272.964 48.2297 270.911C49.2637 268.859 50.8324 267.204 52.9357 265.946C55.0357 264.648 57.5407 263.878 60.4507 263.637C64.7958 263.277 68.3548 264.086 71.1276 266.064C73.9004 268.041 75.5234 270.917 75.9967 274.691L67.0274 275.434C66.7922 274.049 66.1433 272.999 65.0807 272.284C64.0579 271.566 62.7293 271.275 61.0949 271.41C59.301 271.559 57.9637 272.132 57.083 273.128C56.2022 274.124 55.8345 275.499 55.9799 277.253L56.624 285.026C56.7661 286.74 57.3551 288.036 58.3911 288.914C59.4238 289.751 60.8371 290.096 62.6309 289.947C64.2653 289.812 65.5295 289.325 66.4234 288.489C67.354 287.609 67.8196 286.447 67.8202 285.002L76.7895 284.258C76.9439 288.059 75.8163 291.162 73.4069 293.569C70.9974 295.977 67.6202 297.36 63.2751 297.72ZM98.9493 294.764C96.0393 295.005 93.4634 294.677 91.2216 293.779C88.9765 292.841 87.175 291.445 85.8173 289.591C84.4961 287.694 83.7265 285.429 83.5084 282.798L82.8643 275.025C82.6463 272.394 83.0344 270.054 84.0285 268.005C85.0593 265.913 86.6064 264.239 88.6698 262.985C90.7299 261.69 93.215 260.922 96.125 260.681C99.0749 260.437 101.652 260.785 103.858 261.726C106.1 262.624 107.881 264.022 109.202 265.919C110.56 267.773 111.348 270.016 111.566 272.647L112.21 280.42C112.428 283.051 112.022 285.413 110.991 287.505C109.997 289.554 108.47 291.226 106.41 292.52C104.386 293.772 101.899 294.52 98.9493 294.764ZM98.3052 286.991C100.059 286.845 101.357 286.276 102.198 285.284C103.035 284.251 103.383 282.877 103.241 281.163L102.597 273.39C102.451 271.636 101.882 270.339 100.889 269.498C99.8966 268.657 98.5232 268.309 96.7692 268.454C95.055 268.596 93.7576 269.165 92.8769 270.162C92.036 271.154 91.6882 272.528 91.8336 274.282L92.4777 282.055C92.6197 283.769 93.1888 285.067 94.185 285.947C95.2177 286.785 96.5911 287.133 98.3052 286.991ZM131.395 292.076C128.086 292.35 125.339 291.413 123.155 289.266C120.97 287.12 119.714 284.073 119.387 280.126L118.693 271.755C118.369 267.848 119.108 264.657 120.91 262.179C122.708 259.662 125.262 258.267 128.57 257.992C131.281 257.768 133.48 258.388 135.167 259.854C136.85 261.28 137.809 263.408 138.044 266.238L135.777 264.319L137.87 264.145L136.902 256.098L136.159 247.129L145.128 246.385L148.746 290.036L140.075 290.754L139.555 284.476L137.462 284.649L139.382 282.383C139.616 285.213 139.022 287.49 137.6 289.213C136.174 290.897 134.105 291.851 131.395 292.076ZM133.979 284.035C135.614 283.899 136.852 283.335 137.692 282.342C138.53 281.31 138.878 279.936 138.736 278.222L138.092 270.449C137.95 268.735 137.382 267.457 136.389 266.616C135.393 265.735 134.078 265.363 132.443 265.498C130.769 265.637 129.513 266.223 128.676 267.255C127.875 268.245 127.545 269.597 127.687 271.311L128.331 279.084C128.473 280.798 129.023 282.097 129.979 282.981C130.972 283.822 132.305 284.173 133.979 284.035ZM156.854 289.364L156.18 281.232L167.541 280.29L166.159 263.607L156.293 264.425L155.624 256.353L173.861 254.841L175.913 279.597L185.48 278.804L186.154 286.936L156.854 289.364ZM168.647 250.036C167.012 250.171 165.662 249.861 164.596 249.107C163.57 248.349 162.998 247.253 162.879 245.818C162.76 244.382 163.144 243.207 164.031 242.29C164.959 241.371 166.239 240.843 167.874 240.708C169.508 240.572 170.838 240.883 171.865 241.641C172.93 242.396 173.523 243.491 173.642 244.926C173.761 246.361 173.357 247.538 172.429 248.458C171.542 249.374 170.281 249.9 168.647 250.036ZM192.469 286.413L189.744 253.525L198.414 252.807L198.934 259.085L201.565 258.867L199.108 261.178C198.876 258.388 199.492 256.129 200.954 254.402C202.417 252.676 204.503 251.7 207.214 251.476C210.403 251.211 213.047 252.116 215.145 254.19C217.283 256.26 218.506 259.149 218.813 262.856L220.572 284.084L211.603 284.827L209.919 264.497C209.776 262.783 209.209 261.505 208.216 260.664C207.26 259.78 205.965 259.406 204.33 259.541C202.736 259.673 201.54 260.254 200.742 261.284C199.941 262.273 199.611 263.625 199.753 265.339L201.438 285.669L192.469 286.413ZM233.938 293.813L233.344 286.638L242.612 285.87C244.286 285.731 245.527 285.207 246.335 284.297C247.182 283.384 247.545 282.19 247.423 280.715L247.318 279.459L246.918 273.171L244.825 273.344L246.744 271.078C246.979 273.908 246.385 276.185 244.962 277.908C243.537 279.592 241.468 280.546 238.758 280.771C235.449 281.045 232.702 280.108 230.517 277.962C228.333 275.815 227.077 272.768 226.75 268.821L226.254 262.842C225.931 258.935 226.669 255.743 228.471 253.266C230.269 250.749 232.823 249.353 236.131 249.079C238.842 248.855 241.041 249.475 242.728 250.941C244.411 252.367 245.37 254.495 245.605 257.325L243.338 255.406L245.431 255.232L244.612 248.979L253.581 248.235L256.237 280.285C256.534 283.873 255.533 286.806 253.233 289.084C250.974 291.358 247.731 292.67 243.505 293.02L233.938 293.813ZM241.342 272.73C242.977 272.594 244.214 272.03 245.055 271.037C245.893 270.005 246.241 268.631 246.099 266.917L245.653 261.536C245.511 259.821 244.943 258.544 243.95 257.703C242.954 256.822 241.639 256.45 240.004 256.585C238.33 256.724 237.074 257.31 236.237 258.342C235.436 259.332 235.106 260.684 235.248 262.398L235.694 267.779C235.836 269.493 236.385 270.792 237.342 271.677C238.335 272.517 239.668 272.868 241.342 272.73Z" fill="#E5FF7B"/>
<path d="M276.604 272.032C273.482 273.04 270.613 272.812 267.996 271.345C265.416 269.867 263.554 267.358 262.411 263.818L259.404 254.511C258.248 250.934 258.283 247.79 259.51 245.082C260.737 242.374 262.93 240.509 266.089 239.489C268.715 238.64 271.061 238.681 273.127 239.61C275.231 240.528 276.677 242.205 277.464 244.641L275.656 243.144L276.741 242.794L274.47 235.961L271.574 226.997L276.084 225.54L289.551 267.218L285.04 268.676L283.251 263.137L282.052 263.525L282.813 261.198C283.613 263.672 283.428 265.897 282.259 267.872C281.115 269.797 279.23 271.183 276.604 272.032ZM276.758 267.631C279.004 266.906 280.533 265.655 281.347 263.879C282.186 262.052 282.206 259.902 281.406 257.428L278.529 248.521C277.729 246.047 276.461 244.334 274.724 243.382C273.013 242.38 271.035 242.241 268.789 242.967C266.505 243.705 264.938 244.968 264.086 246.756C263.235 248.545 263.215 250.695 264.027 253.207L266.904 262.114C267.716 264.626 268.99 266.358 270.727 267.31C272.464 268.262 274.474 268.369 276.758 267.631ZM301.632 263.315L291.486 231.913L295.94 230.474L297.821 236.298L298.906 235.947L298.47 240.061C297.475 236.851 297.462 234.144 298.431 231.939C299.388 229.696 301.293 228.114 304.148 227.192C307.46 226.122 310.424 226.32 313.042 227.786C315.685 229.202 317.572 231.661 318.704 235.162L319.313 237.047L314.688 238.541L314.19 236.999C313.366 234.449 312.105 232.692 310.406 231.727C308.695 230.725 306.678 230.599 304.356 231.349C302.111 232.074 300.568 233.35 299.729 235.177C298.89 237.003 298.876 239.173 299.688 241.685L306.2 261.839L301.632 263.315ZM344.158 250.205C340.847 251.275 337.969 251.28 335.525 250.22C333.068 249.122 331.372 247.127 330.438 244.234C329.515 241.38 329.722 238.833 331.059 236.593C332.383 234.316 334.624 232.667 337.783 231.646L347.775 228.418L346.705 225.106C346.028 223.013 344.897 221.592 343.31 220.844C341.723 220.095 339.807 220.084 337.561 220.81C335.582 221.449 334.067 222.422 333.018 223.728C332.007 225.021 331.646 226.441 331.935 227.987L327.368 229.463C326.875 226.637 327.436 224.081 329.051 221.794C330.704 219.494 333.149 217.822 336.384 216.776C339.886 215.645 342.972 215.699 345.642 216.938C348.3 218.139 350.145 220.338 351.178 223.535L358.133 245.059L353.68 246.498L351.706 240.389L350.964 240.629L351.525 239.439C352.275 241.761 351.977 243.896 350.631 245.844C349.285 247.792 347.127 249.246 344.158 250.205ZM344.062 246.201C346.574 245.389 348.427 244.097 349.62 242.324C350.812 240.552 351.083 238.657 350.431 236.639L348.9 231.901L338.966 235.11C337.177 235.688 335.909 236.644 335.163 237.978C334.417 239.312 334.321 240.836 334.874 242.549C335.465 244.376 336.585 245.632 338.236 246.318C339.875 246.965 341.817 246.926 344.062 246.201ZM370.843 240.953L355.615 211.193L359.669 209.883L370.324 231.347C370.709 232.147 371.124 233.043 371.571 234.034C372.055 235.012 372.446 235.832 372.743 236.492C372.598 235.783 372.455 234.883 372.313 233.794C372.171 232.705 372.022 231.723 371.866 230.849L368.347 207.079L372.686 205.677L383.798 226.993C384.183 227.794 384.618 228.683 385.102 229.662C385.624 230.628 386.034 231.442 386.332 232.102C386.186 231.392 386.024 230.499 385.844 229.422C385.702 228.333 385.553 227.351 385.397 226.477L381.536 202.818L385.418 201.564L390.254 234.681L385.116 236.341L374.568 215.599C374.071 214.583 373.531 213.56 372.946 212.53C372.386 211.449 371.964 210.598 371.679 209.975C371.774 210.659 371.911 211.603 372.089 212.806C372.294 213.959 372.473 215.099 372.627 216.227L376.038 239.274L370.843 240.953ZM402.793 230.63L401.465 226.519L412.655 222.903L405.166 199.723L395.402 202.878L394.074 198.767L408.405 194.137L417.223 221.428L427.842 217.996L429.17 222.107L402.793 230.63ZM403.744 189.274C402.564 189.655 401.514 189.658 400.594 189.283C399.712 188.895 399.099 188.169 398.755 187.103C398.398 185.999 398.458 185.013 398.934 184.145C399.448 183.264 400.295 182.633 401.475 182.252C402.655 181.87 403.692 181.893 404.586 182.318C405.519 182.732 406.163 183.49 406.52 184.594C406.852 185.622 406.761 186.576 406.247 187.457C405.758 188.287 404.924 188.893 403.744 189.274ZM437.541 219.403L427.395 188.001L431.905 186.544L433.787 192.367L434.929 191.998L434.208 194.06C433.396 191.548 433.524 189.342 434.591 187.441C435.685 185.491 437.563 184.085 440.228 183.224C443.349 182.216 446.162 182.4 448.666 183.777C451.159 185.115 452.946 187.459 454.028 190.809L460.835 211.876L456.325 213.334L449.684 192.78C448.909 190.382 447.684 188.739 446.01 187.85C444.336 186.962 442.414 186.869 440.245 187.57C437.999 188.295 436.45 189.552 435.599 191.34C434.747 193.129 434.728 195.279 435.539 197.791L442.051 217.945L437.541 219.403ZM478.92 217.383L477.592 213.272L487.127 210.191C488.916 209.613 490.094 208.77 490.661 207.662C491.265 206.542 491.291 205.126 490.738 203.413L489.557 199.759L487.753 193.784L486.725 194.116L487.386 192.452C488.148 194.812 487.977 196.949 486.871 198.861C485.766 200.774 483.9 202.154 481.273 203.003C478.076 204.036 475.207 203.807 472.665 202.316C470.111 200.787 468.263 198.253 467.119 194.713L464.961 188.033C463.817 184.493 463.839 181.375 465.028 178.679C466.217 175.983 468.41 174.119 471.607 173.086C474.233 172.237 476.554 172.265 478.57 173.169C480.573 174.035 481.956 175.648 482.719 178.008L481.267 177.027L482.18 176.731L480.298 170.908L484.752 169.469L495.248 201.955C496.183 204.848 496.052 207.371 494.856 209.523C493.71 211.7 491.576 213.294 488.455 214.302L478.92 217.383ZM481.314 198.639C483.559 197.913 485.089 196.663 485.902 194.886C486.741 193.06 486.761 190.91 485.962 188.436L483.933 182.155C483.133 179.681 481.865 177.968 480.128 177.016C478.417 176.014 476.439 175.875 474.193 176.601C471.909 177.339 470.361 178.596 469.547 180.372C468.734 182.148 468.733 184.292 469.545 186.804L471.574 193.084C472.386 195.596 473.641 197.335 475.34 198.299C477.039 199.264 479.03 199.377 481.314 198.639Z" fill="white"/>
<path d="M954.39 167.002C952.496 168.04 950.657 168.638 948.873 168.795C947.089 168.952 945.468 168.7 944.011 168.04C942.535 167.344 941.295 166.29 940.293 164.878L944.449 162.599C945.329 163.622 946.453 164.215 947.819 164.378C949.221 164.521 950.729 164.151 952.342 163.266L954.92 161.853C956.779 160.834 957.961 159.661 958.465 158.335C958.986 156.955 958.871 155.581 958.121 154.213C957.41 152.915 956.412 152.094 955.128 151.749C953.844 151.403 952.345 151.541 950.632 152.161L945.89 153.871C942.905 154.915 940.355 155.173 938.24 154.645C936.161 154.097 934.477 152.648 933.188 150.298C931.784 147.738 931.522 145.304 932.401 142.997C933.296 140.636 935.322 138.59 938.479 136.859L940.53 135.734C943.266 134.234 945.814 133.681 948.174 134.075C950.569 134.45 952.548 135.646 954.11 137.663L949.901 139.971C949.114 139.034 948.074 138.509 946.78 138.397C945.522 138.266 944.122 138.623 942.579 139.47L940.527 140.595C938.668 141.614 937.494 142.759 937.005 144.031C936.497 145.268 936.628 146.587 937.397 147.99C938.089 149.253 939.004 150.006 940.141 150.249C941.259 150.457 942.674 150.252 944.387 149.632L949.076 147.95C952.202 146.829 954.842 146.568 956.995 147.167C959.128 147.73 960.859 149.222 962.186 151.642C963.628 154.273 963.931 156.821 963.093 159.287C962.237 161.719 960.195 163.819 956.968 165.588L954.39 167.002ZM975.575 154.77L973.498 150.982L983.81 145.328L972.098 123.968L963.101 128.901L961.024 125.113L974.23 117.872L988.019 143.02L997.804 137.654L999.881 141.442L975.575 154.77ZM968.738 113.972C967.651 114.568 966.62 114.769 965.646 114.573C964.707 114.358 963.968 113.759 963.43 112.777C962.872 111.76 962.745 110.78 963.05 109.838C963.389 108.876 964.103 108.097 965.19 107.501C966.277 106.905 967.3 106.732 968.258 106.982C969.252 107.213 970.027 107.837 970.585 108.854C971.104 109.801 971.194 110.755 970.854 111.717C970.531 112.624 969.825 113.376 968.738 113.972ZM1007.59 137.213L991.728 108.277L995.884 105.999L998.827 111.365L999.879 110.788L999.558 112.948C998.289 110.633 998 108.442 998.691 106.375C999.399 104.254 1000.98 102.52 1003.43 101.174C1006.31 99.5972 1009.11 99.2494 1011.83 100.131C1014.53 100.977 1016.72 102.944 1018.41 106.03L1029.06 125.443L1024.9 127.722L1014.52 108.783C1013.31 106.573 1011.79 105.189 1009.98 104.631C1008.17 104.074 1006.27 104.343 1004.27 105.439C1002.2 106.574 1000.91 108.099 1000.41 110.016C999.914 111.932 1000.3 114.048 1001.57 116.363L1011.75 134.934L1007.59 137.213ZM1047.86 127.453L1045.78 123.665L1054.57 118.848C1056.21 117.944 1057.21 116.895 1057.56 115.7C1057.95 114.486 1057.7 113.09 1056.84 111.511L1054.99 108.144L1052.1 102.615L1051.15 103.134L1051.49 101.376C1052.68 103.551 1052.91 105.681 1052.19 107.767C1051.46 109.854 1049.89 111.56 1047.47 112.887C1044.52 114.503 1041.66 114.817 1038.88 113.83C1036.09 112.809 1033.79 110.667 1032.01 107.405L1028.63 101.25C1026.84 97.9877 1026.28 94.9211 1026.94 92.0497C1027.6 89.1783 1029.4 86.9349 1032.35 85.3195C1034.77 83.9925 1037.05 83.5836 1039.2 84.0929C1041.33 84.567 1043 85.8914 1044.19 88.0659L1042.58 87.3751L1043.42 86.9136L1040.48 81.5473L1044.58 79.2973L1061 109.232C1062.46 111.898 1062.8 114.4 1062.03 116.739C1061.32 119.093 1059.52 121.059 1056.64 122.636L1047.86 127.453ZM1046.69 108.594C1048.75 107.459 1050.02 105.943 1050.49 104.046C1050.97 102.094 1050.58 99.9785 1049.33 97.6987L1046.16 91.9116C1044.91 89.6318 1043.34 88.1875 1041.46 87.5787C1039.59 86.9157 1037.62 87.1514 1035.55 88.2861C1033.45 89.44 1032.16 90.9656 1031.7 92.8629C1031.23 94.7601 1031.63 96.8662 1032.9 99.1811L1036.08 104.968C1037.34 107.283 1038.9 108.754 1040.75 109.382C1042.6 110.01 1044.58 109.748 1046.69 108.594ZM1070.21 102.879L1068.13 99.0907L1078.45 93.4366L1066.73 72.0768L1057.74 77.0097L1055.66 73.2218L1068.87 65.9811L1082.66 91.1288L1092.44 85.7632L1094.52 89.5512L1070.21 102.879ZM1063.37 62.081C1062.29 62.6772 1061.26 62.8774 1060.28 62.6816C1059.34 62.4666 1058.61 61.8681 1058.07 60.886C1057.51 59.8689 1057.38 58.8891 1057.69 57.9467C1058.03 56.985 1058.74 56.2061 1059.83 55.6099C1060.91 55.0138 1061.94 54.8407 1062.9 55.0908C1063.89 55.3217 1064.66 55.9456 1065.22 56.9628C1065.74 57.9098 1065.83 58.8641 1065.49 59.8257C1065.17 60.7331 1064.46 61.4848 1063.37 62.081ZM1102.23 85.3219L1086.37 56.3863L1090.52 54.1073L1093.46 59.4736L1094.52 58.8966L1094.2 61.057C1092.93 58.7421 1092.64 56.5512 1093.33 54.4842C1094.04 52.363 1095.62 50.6292 1098.07 49.283C1100.95 47.706 1103.75 47.3583 1106.46 48.2398C1109.16 49.0862 1111.36 51.0526 1113.05 54.1391L1123.7 73.5523L1119.54 75.8312L1109.15 56.8915C1107.94 54.6819 1106.43 53.2981 1104.62 52.7403C1102.81 52.1824 1100.9 52.4516 1098.9 53.5478C1096.84 54.6824 1095.55 56.208 1095.05 58.1245C1094.55 60.041 1094.93 62.1567 1096.2 64.4716L1106.39 83.043L1102.23 85.3219ZM1142.49 75.5619L1140.42 71.774L1149.2 66.9565C1150.85 66.0526 1151.85 65.0033 1152.2 63.8086C1152.58 62.5947 1152.34 61.1986 1151.48 59.6203L1149.63 56.2532L1146.73 50.724L1145.79 51.2433L1146.12 49.4852C1147.32 51.6597 1147.55 53.7901 1146.82 55.8763C1146.1 57.9625 1144.52 59.6691 1142.1 60.9961C1139.16 62.6115 1136.3 62.9259 1133.52 61.9392C1130.72 60.9174 1128.43 58.7756 1126.64 55.5138L1123.27 49.3584C1121.48 46.0965 1120.92 43.0299 1121.58 40.1586C1122.24 37.2872 1124.04 35.0438 1126.99 33.4283C1129.41 32.1013 1131.69 31.6925 1133.84 32.2017C1135.97 32.6759 1137.63 34.0002 1138.83 36.1748L1137.21 35.484L1138.06 35.0224L1135.11 29.6562L1139.22 27.4061L1155.63 57.3413C1157.09 60.0069 1157.44 62.509 1156.67 64.8475C1155.95 67.2018 1154.16 69.1675 1151.28 70.7445L1142.49 75.5619ZM1141.32 56.7025C1143.39 55.5678 1144.66 54.0519 1145.12 52.1546C1145.6 50.203 1145.22 48.0873 1143.97 45.8075L1140.8 40.0204C1139.55 37.7406 1137.98 36.2963 1136.09 35.6876C1134.23 35.0245 1132.26 35.2603 1130.19 36.3949C1128.08 37.5488 1126.8 39.0744 1126.33 40.9717C1125.87 42.869 1126.27 44.975 1127.54 47.2899L1130.71 53.077C1131.98 55.3919 1133.54 56.8633 1135.39 57.4913C1137.24 58.1193 1139.22 57.8564 1141.32 56.7025Z" fill="white"/>
<path d="M174.42 110.29L176.092 76.9028L180.258 77.7928L178.768 101.709C178.702 102.595 178.615 103.579 178.506 104.66C178.437 105.749 178.367 106.655 178.294 107.375C178.523 106.688 178.848 105.837 179.269 104.823C179.69 103.808 180.052 102.883 180.353 102.048L189.177 79.6981L193.636 80.6507L192.616 104.668C192.55 105.553 192.482 106.541 192.413 107.63C192.383 108.728 192.331 109.638 192.259 110.359C192.488 109.671 192.793 108.816 193.175 107.793C193.597 106.779 193.958 105.854 194.259 105.019L202.731 82.5936L206.721 83.446L194.37 114.552L189.089 113.424L190.31 90.1864C190.388 89.0577 190.431 87.9011 190.438 86.7165C190.493 85.5012 190.553 84.5527 190.617 83.871C190.357 84.5109 190.004 85.3968 189.558 86.5285C189.159 87.6295 188.745 88.7067 188.315 89.7602L179.759 111.431L174.42 110.29ZM219.57 120.549C217.066 120.014 214.999 119.061 213.37 117.691C211.749 116.281 210.626 114.548 210.002 112.492C209.377 110.437 209.324 108.196 209.842 105.771L211.798 96.6173C212.324 94.1529 213.288 92.1296 214.69 90.5475C216.099 88.9262 217.828 87.823 219.875 87.2378C221.931 86.6135 224.211 86.5688 226.714 87.1036C229.218 87.6384 231.28 88.6107 232.901 90.0205C234.531 91.3912 235.658 93.1045 236.282 95.1603C236.915 97.1769 236.968 99.4175 236.442 101.882L235.226 107.573L215.159 103.287L214.419 106.748C213.859 109.369 214.09 111.545 215.11 113.277C216.179 114.978 217.945 116.091 220.409 116.618C222.483 117.061 224.252 117.009 225.719 116.463C227.224 115.926 228.32 114.913 229.006 113.423L233.642 114.413C232.635 117.021 230.869 118.873 228.344 119.969C225.819 121.066 222.895 121.259 219.57 120.549ZM231.313 103.486L231.865 100.904C232.425 98.2833 232.19 96.1267 231.161 94.4343C230.14 92.7029 228.378 91.5697 225.875 91.0349C223.41 90.5084 221.339 90.8226 219.66 91.9775C218.03 93.1016 216.934 94.9741 216.374 97.595L215.936 99.6486L231.896 103.058L231.313 103.486ZM242.438 124.821L243.341 120.596L254.841 123.053L259.93 99.2304L249.897 97.087L250.799 92.8623L265.527 96.0086L259.535 124.056L270.449 126.387L269.547 130.612L242.438 124.821ZM263.918 89.4681C262.705 89.209 261.794 88.6872 261.185 87.9025C260.614 87.1262 260.446 86.1904 260.68 85.0951C260.922 83.9607 261.467 83.1362 262.313 82.6217C263.198 82.1154 264.247 81.9919 265.46 82.2509C266.672 82.51 267.56 83.0472 268.122 83.8626C268.723 84.6864 268.902 85.6655 268.66 86.7999C268.434 87.856 267.879 88.6372 266.994 89.1435C266.156 89.6189 265.13 89.7271 263.918 89.4681ZM279.824 143.851L280.727 139.626L290.526 141.72C292.364 142.112 293.805 141.97 294.85 141.294C295.933 140.625 296.663 139.411 297.039 137.651L297.842 133.895L299.262 127.818L298.206 127.593L299.609 126.481C299.091 128.906 297.876 130.671 295.963 131.776C294.05 132.881 291.744 133.145 289.045 132.568C285.759 131.866 283.387 130.235 281.93 127.674C280.481 125.074 280.146 121.955 280.923 118.317L282.389 111.452C283.166 107.814 284.743 105.124 287.12 103.382C289.496 101.64 292.327 101.12 295.613 101.822C298.312 102.399 300.309 103.582 301.603 105.372C302.906 107.123 303.299 109.211 302.781 111.636L302.013 110.061L302.952 110.262L304.23 104.277L308.807 105.254L301.675 138.641C301.04 141.614 299.666 143.734 297.555 145.001C295.475 146.315 292.831 146.63 289.623 145.944L279.824 143.851ZM291.259 128.808C293.567 129.301 295.517 128.981 297.109 127.849C298.748 126.686 299.839 124.833 300.382 122.29L301.761 115.836C302.304 113.293 302.061 111.176 301.032 109.483C300.05 107.76 298.405 106.652 296.098 106.159C293.75 105.658 291.781 105.973 290.189 107.106C288.598 108.238 287.526 110.095 286.975 112.677L285.596 119.131C285.044 121.713 285.263 123.846 286.253 125.53C287.244 127.214 288.912 128.307 291.259 128.808ZM313.332 139.966L322.482 97.132L327.118 98.1222L324.962 108.215L323.633 114.434L324.806 114.685L323.114 116.287C323.666 113.705 324.879 111.858 326.753 110.745C328.666 109.64 330.991 109.38 333.729 109.965C336.937 110.65 339.282 112.214 340.764 114.658C342.255 117.063 342.632 119.986 341.897 123.428L337.272 145.08L332.636 144.089L337.149 122.966C337.675 120.502 337.439 118.447 336.441 116.802C335.442 115.157 333.828 114.097 331.599 113.62C329.291 113.127 327.317 113.462 325.678 114.626C324.039 115.789 322.943 117.661 322.392 120.243L317.967 140.956L313.332 139.966ZM363.946 150.778C361.247 150.202 359.305 149.05 358.119 147.325C356.942 145.56 356.633 143.367 357.193 140.746L361.43 120.913L352.276 118.958L353.179 114.733L362.332 116.689L364.275 107.594L368.969 108.597L367.026 117.692L379.994 120.462L379.091 124.686L366.124 121.916L361.887 141.749C361.319 144.409 362.306 146.01 364.849 146.553L373.416 148.384L372.513 152.608L363.946 150.778ZM399.833 158.444C397.995 158.052 396.466 157.357 395.247 156.36C394.068 155.372 393.248 154.134 392.789 152.645C392.33 151.156 392.293 149.512 392.677 147.713L399.045 117.905L388.307 115.611L389.21 111.387L404.583 114.671L397.313 148.703C397.003 150.15 397.152 151.368 397.759 152.357C398.374 153.306 399.367 153.927 400.736 154.22L411.004 156.413L410.101 160.638L399.833 158.444ZM418.352 162.401L419.254 158.176L430.755 160.633L435.844 136.81L425.81 134.667L426.713 130.442L441.441 133.588L435.449 161.635L446.363 163.967L445.46 168.192L418.352 162.401ZM439.831 127.048C438.619 126.789 437.708 126.267 437.098 125.482C436.528 124.706 436.36 123.77 436.594 122.675C436.836 121.541 437.38 120.716 438.226 120.201C439.112 119.695 440.161 119.572 441.373 119.831C442.586 120.09 443.473 120.627 444.035 121.442C444.636 122.266 444.816 123.245 444.573 124.38C444.348 125.436 443.792 126.217 442.907 126.723C442.069 127.199 441.044 127.307 439.831 127.048ZM461.573 171.634L466.875 146.814L457.37 144.783L458.272 140.559L467.778 142.589L469.019 136.78C469.545 134.316 470.722 132.542 472.548 131.46C474.422 130.347 476.709 130.079 479.408 130.655L488.737 132.648L487.835 136.873L478.505 134.88C477.214 134.604 476.146 134.724 475.3 135.238C474.501 135.722 473.972 136.57 473.713 137.783L472.472 143.592L485.791 146.437L484.889 150.662L471.569 147.817L466.267 172.637L461.573 171.634ZM504.677 180.842C501.978 180.265 500.036 179.114 498.85 177.388C497.673 175.624 497.364 173.431 497.924 170.81L502.161 150.977L493.007 149.022L493.91 144.797L503.063 146.753L505.006 137.658L509.7 138.661L507.757 147.755L520.725 150.526L519.822 154.75L506.855 151.98L502.618 171.813C502.05 174.473 503.037 176.074 505.58 176.617L514.146 178.447L513.244 182.672L504.677 180.842ZM523.9 184.948L524.802 180.724L536.303 183.181L541.392 159.358L531.358 157.215L532.261 152.99L546.989 156.136L540.997 184.183L551.911 186.515L551.008 190.74L523.9 184.948ZM545.38 149.596C544.167 149.337 543.256 148.815 542.646 148.03C542.076 147.254 541.908 146.318 542.142 145.223C542.384 144.088 542.928 143.264 543.774 142.749C544.66 142.243 545.709 142.12 546.921 142.379C548.134 142.638 549.021 143.175 549.583 143.99C550.185 144.814 550.364 145.793 550.122 146.928C549.896 147.984 549.341 148.765 548.455 149.271C547.617 149.747 546.592 149.855 545.38 149.596ZM559.611 192.577L566.505 160.305L571.14 161.296L569.862 167.281L571.035 167.531L569.381 168.957C569.932 166.375 571.145 164.528 573.019 163.415C574.94 162.271 577.27 161.992 580.008 162.577C583.216 163.262 585.561 164.826 587.043 167.27C588.534 169.674 588.911 172.598 588.176 176.04L583.551 197.691L578.915 196.701L583.428 175.578C583.954 173.113 583.714 171.078 582.707 169.473C581.701 167.867 580.082 166.826 577.853 166.349C575.545 165.856 573.575 166.172 571.944 167.296C570.314 168.42 569.222 170.273 568.671 172.855L564.246 193.567L559.611 192.577ZM596.469 211.495L597.371 207.27L607.17 209.363C609.008 209.756 610.45 209.614 611.494 208.937C612.578 208.269 613.308 207.055 613.684 205.294L614.486 201.539L615.907 195.462L614.851 195.236L616.254 194.125C615.736 196.55 614.52 198.315 612.607 199.42C610.694 200.525 608.388 200.789 605.689 200.212C602.403 199.51 600.032 197.879 598.575 195.318C597.126 192.718 596.79 189.599 597.567 185.961L599.034 179.096C599.811 175.458 601.388 172.768 603.764 171.026C606.14 169.284 608.971 168.764 612.257 169.466C614.956 170.042 616.953 171.226 618.248 173.016C619.551 174.766 619.943 176.855 619.425 179.28L618.657 177.705L619.596 177.905L620.875 171.92L625.451 172.898L618.319 206.285C617.684 209.258 616.311 211.377 614.2 212.644C612.119 213.959 609.475 214.273 606.267 213.588L596.469 211.495ZM607.904 196.452C610.211 196.945 612.161 196.625 613.753 195.493C615.392 194.329 616.483 192.476 617.027 189.934L618.405 183.479C618.949 180.937 618.706 178.819 617.676 177.127C616.695 175.404 615.05 174.296 612.742 173.803C610.395 173.301 608.426 173.617 606.834 174.749C605.242 175.882 604.17 177.739 603.619 180.321L602.24 186.775C601.689 189.357 601.908 191.49 602.898 193.174C603.888 194.858 605.556 195.95 607.904 196.452Z" fill="white"/>
<path d="M41.8936 166.766L57.7166 137.807L63.9296 141.202L61.6281 145.414L62.8918 146.105L61.4886 146.295C62.39 144.645 63.5831 143.588 65.0679 143.123C66.5719 142.623 68.0259 142.756 69.43 143.524C70.9393 144.348 71.7604 145.64 71.8933 147.399C72.0261 149.158 71.5075 151.108 70.3376 153.25L70.6844 150.362L72.1587 151.168L71.2821 151.646C72.1835 149.996 73.359 148.929 74.8087 148.445C76.2776 147.926 77.7842 148.088 79.3287 148.932C81.0838 149.891 82.1411 151.335 82.5004 153.263C82.8789 155.157 82.4449 157.244 81.1982 159.526L69.1152 181.64L62.323 177.929L74.1183 156.341C74.5594 155.534 74.7195 154.823 74.5987 154.21C74.497 153.562 74.1127 153.056 73.4457 152.692C72.7788 152.327 72.1451 152.277 71.5448 152.542C70.9636 152.771 70.4525 153.29 70.0113 154.097L58.216 175.685L52.7928 172.722L64.5881 151.134C65.0292 150.326 65.1893 149.616 65.0685 149.003C64.9668 148.355 64.5825 147.849 63.9155 147.484C63.2486 147.12 62.6149 147.07 62.0146 147.335C61.4334 147.564 60.9223 148.082 60.4811 148.89L48.6858 170.478L41.8936 166.766ZM83.0233 189.923C80.1098 188.331 78.2246 186.275 77.3677 183.756C76.5458 181.256 76.8733 178.654 78.3502 175.951C79.942 173.038 82.1603 171.356 85.005 170.904C87.904 170.437 91.249 171.239 95.0401 173.311L101.043 176.59L102.222 174.431C102.836 173.308 102.921 172.193 102.478 171.084C102.07 169.996 101.2 169.087 99.8657 168.358C98.6371 167.687 97.4657 167.411 96.3515 167.532C95.2373 167.652 94.3239 168.156 93.6114 169.043L85.9767 164.871C87.8845 162.131 90.4044 160.522 93.5364 160.045C96.7228 159.553 100.071 160.265 103.581 162.183C107.267 164.197 109.682 166.702 110.826 169.697C112.024 172.676 111.789 175.693 110.12 178.747L99.4754 198.228L91.8408 194.057L94.43 189.318L93.1663 188.628L95.4895 187.504C94.3004 189.68 92.5612 190.986 90.272 191.422C88.0371 191.842 85.6208 191.342 83.0233 189.923ZM89.1364 185.742C90.6809 186.586 92.1652 186.873 93.5891 186.602C95.0674 186.316 96.1709 185.506 96.8998 184.172L98.5971 181.066L92.7526 177.872C91.5592 177.22 90.4021 177.044 89.2813 177.343C88.1798 177.607 87.3222 178.301 86.7084 179.424C86.0563 180.618 85.9421 181.786 86.3659 182.929C86.8088 184.037 87.7324 184.975 89.1364 185.742ZM121.78 210.415C118.831 208.804 116.975 206.696 116.21 204.09C115.446 201.485 115.87 198.708 117.481 195.759L124.241 183.386L116.607 179.214L120.49 172.106L128.125 176.278L132.584 168.116L140.482 172.432L136.023 180.593L146.817 186.491L142.933 193.599L132.139 187.701L125.379 200.075C124.516 201.654 124.874 202.876 126.453 203.739L134.351 208.054L130.468 215.162L121.78 210.415ZM137.871 219.207L158.872 180.771L166.77 185.086L161.592 194.564L158.308 199.948L160.625 201.214L157.301 201.791C158.644 199.334 160.4 197.787 162.572 197.15C164.743 196.513 167.022 196.847 169.409 198.151C172.217 199.685 173.927 201.896 174.538 204.782C175.183 207.688 174.615 210.773 172.831 214.037L162.618 232.729L154.72 228.413L164.501 210.511C165.326 209.002 165.555 207.623 165.189 206.375C164.877 205.11 164.002 204.085 162.563 203.299C161.158 202.531 159.84 202.358 158.608 202.779C157.394 203.164 156.375 204.111 155.55 205.621L145.769 223.523L137.871 219.207ZM180.264 243.054C177.877 241.75 175.99 240.24 174.603 238.525C173.235 236.775 172.406 234.955 172.117 233.064C171.863 231.194 172.225 229.363 173.203 227.573L181.101 231.888C180.641 232.731 180.635 233.616 181.085 234.546C181.588 235.459 182.437 236.242 183.63 236.894L185.947 238.16C187.386 238.946 188.618 239.277 189.643 239.154C190.703 239.049 191.492 238.523 192.01 237.575C192.489 236.698 192.52 235.849 192.103 235.028C191.704 234.172 190.851 233.273 189.543 232.33L186.403 230.068C183.037 227.636 180.884 225.32 179.944 223.12C179.003 220.919 179.262 218.485 180.72 215.818C182.254 213.009 184.409 211.361 187.183 210.871C189.958 210.381 193.205 211.153 196.926 213.186L198.927 214.279C202.472 216.216 204.876 218.533 206.138 221.228C207.4 223.923 207.322 226.569 205.903 229.167L198.005 224.852C198.388 224.15 198.344 223.396 197.872 222.591C197.455 221.771 196.684 221.053 195.561 220.44L193.56 219.346C192.261 218.637 191.189 218.347 190.343 218.477C189.516 218.573 188.863 219.059 188.383 219.936C187.942 220.744 187.87 221.502 188.166 222.211C188.498 222.939 189.212 223.717 190.31 224.544L193.684 227.003C197.085 229.454 199.289 231.844 200.296 234.172C201.339 236.519 201.121 239.044 199.644 241.747C198.033 244.695 195.778 246.403 192.879 246.87C189.98 247.338 186.548 246.487 182.581 244.32L180.264 243.054Z" fill="white"/>
<g filter="url(#filter1_f_111_7)">
<path d="M351.101 289.999V256.999H359.801V263.299H362.441L359.801 265.399C359.801 262.599 360.601 260.399 362.201 258.799C363.801 257.199 365.961 256.399 368.681 256.399C371.881 256.399 374.441 257.519 376.361 259.759C378.321 261.999 379.301 264.979 379.301 268.699V289.999H370.301V269.599C370.301 267.879 369.841 266.559 368.921 265.639C368.041 264.679 366.781 264.199 365.141 264.199C363.541 264.199 362.301 264.679 361.421 265.639C360.541 266.559 360.101 267.879 360.101 269.599V289.999H351.101ZM401.177 290.599C398.257 290.599 395.697 290.059 393.497 288.979C391.337 287.859 389.657 286.319 388.457 284.359C387.297 282.359 386.717 280.039 386.717 277.399V269.599C386.717 266.959 387.297 264.659 388.457 262.699C389.657 260.699 391.337 259.159 393.497 258.079C395.697 256.959 398.257 256.399 401.177 256.399C404.097 256.399 406.617 256.959 408.737 258.079C410.897 259.159 412.557 260.699 413.717 262.699C414.917 264.659 415.517 266.959 415.517 269.599V275.599H395.297V277.399C395.297 279.479 395.797 281.059 396.797 282.139C397.797 283.179 399.297 283.699 401.297 283.699C402.697 283.699 403.817 283.459 404.657 282.979C405.537 282.499 406.117 281.839 406.397 280.999H415.217C414.497 283.879 412.857 286.199 410.297 287.959C407.777 289.719 404.737 290.599 401.177 290.599ZM406.937 270.979V269.479C406.937 267.439 406.457 265.879 405.497 264.799C404.577 263.719 403.137 263.179 401.177 263.179C399.217 263.179 397.737 263.739 396.737 264.859C395.777 265.979 395.297 267.559 395.297 269.599V270.499L407.537 270.379L406.937 270.979ZM437.094 290.599C432.654 290.599 429.174 289.399 426.654 286.999C424.174 284.599 422.934 281.319 422.934 277.159V256.999H431.934V277.099C431.934 278.939 432.374 280.359 433.254 281.359C434.134 282.319 435.414 282.799 437.094 282.799C438.734 282.799 439.994 282.319 440.874 281.359C441.794 280.359 442.254 278.939 442.254 277.099V256.999H451.254V277.159C451.254 281.359 449.994 284.659 447.474 287.059C444.954 289.419 441.494 290.599 437.094 290.599ZM459.99 289.999V256.999H468.39V263.299H470.67L468.09 267.139C468.09 263.579 468.91 260.899 470.55 259.099C472.19 257.299 474.59 256.399 477.75 256.399C481.39 256.399 484.21 257.499 486.21 259.699C488.25 261.899 489.27 264.999 489.27 268.999V271.699H479.67V269.599C479.67 267.799 479.17 266.399 478.17 265.399C477.21 264.399 475.91 263.899 474.27 263.899C472.55 263.899 471.23 264.399 470.31 265.399C469.43 266.399 468.99 267.799 468.99 269.599V289.999H459.99ZM509.047 290.599C506.127 290.599 503.587 290.059 501.427 288.979C499.267 287.859 497.587 286.319 496.387 284.359C495.227 282.359 494.647 280.039 494.647 277.399V269.599C494.647 266.959 495.227 264.659 496.387 262.699C497.587 260.699 499.267 259.159 501.427 258.079C503.587 256.959 506.127 256.399 509.047 256.399C512.007 256.399 514.547 256.959 516.667 258.079C518.827 259.159 520.487 260.699 521.647 262.699C522.847 264.659 523.447 266.959 523.447 269.599V277.399C523.447 280.039 522.847 282.359 521.647 284.359C520.487 286.319 518.827 287.859 516.667 288.979C514.547 290.059 512.007 290.599 509.047 290.599ZM509.047 282.799C510.807 282.799 512.147 282.339 513.067 281.419C513.987 280.459 514.447 279.119 514.447 277.399V269.599C514.447 267.839 513.987 266.499 513.067 265.579C512.147 264.659 510.807 264.199 509.047 264.199C507.327 264.199 505.987 264.659 505.027 265.579C504.107 266.499 503.647 267.839 503.647 269.599V277.399C503.647 279.119 504.107 280.459 505.027 281.419C505.987 282.339 507.327 282.799 509.047 282.799ZM543.644 290.599C540.924 290.599 538.544 290.179 536.504 289.339C534.464 288.459 532.864 287.259 531.704 285.739C530.584 284.219 530.024 282.439 530.024 280.399H539.024C539.024 281.359 539.444 282.139 540.284 282.739C541.164 283.299 542.284 283.579 543.644 283.579H546.284C547.924 283.579 549.164 283.279 550.004 282.679C550.884 282.079 551.324 281.239 551.324 280.159C551.324 279.159 550.944 278.399 550.184 277.879C549.424 277.319 548.244 276.939 546.644 276.739L542.804 276.259C538.684 275.739 535.684 274.739 533.804 273.259C531.924 271.779 530.984 269.519 530.984 266.479C530.984 263.279 532.084 260.799 534.284 259.039C536.484 257.279 539.704 256.399 543.944 256.399H546.224C550.264 256.399 553.484 257.279 555.884 259.039C558.284 260.799 559.484 263.159 559.484 266.119H550.484C550.484 265.319 550.084 264.679 549.284 264.199C548.524 263.679 547.504 263.419 546.224 263.419H543.944C542.464 263.419 541.384 263.679 540.704 264.199C540.024 264.679 539.684 265.419 539.684 266.419C539.684 267.339 539.984 268.039 540.584 268.519C541.224 268.999 542.224 269.339 543.584 269.539L547.724 270.079C551.884 270.599 554.964 271.639 556.964 273.199C559.004 274.759 560.024 277.079 560.024 280.159C560.024 283.519 558.864 286.099 556.544 287.899C554.224 289.699 550.804 290.599 546.284 290.599H543.644ZM581.18 290.599C578.26 290.599 575.7 290.059 573.5 288.979C571.3 287.859 569.6 286.319 568.4 284.359C567.2 282.359 566.6 280.039 566.6 277.399V269.599C566.6 266.919 567.2 264.599 568.4 262.639C569.6 260.679 571.3 259.159 573.5 258.079C575.7 256.959 578.26 256.399 581.18 256.399C585.54 256.399 589.02 257.499 591.62 259.699C594.22 261.899 595.6 264.899 595.76 268.699H586.76C586.64 267.299 586.08 266.199 585.08 265.399C584.12 264.599 582.82 264.199 581.18 264.199C579.38 264.199 578 264.659 577.04 265.579C576.08 266.499 575.6 267.839 575.6 269.599V277.399C575.6 279.119 576.08 280.459 577.04 281.419C578 282.339 579.38 282.799 581.18 282.799C582.82 282.799 584.12 282.419 585.08 281.659C586.08 280.859 586.64 279.739 586.76 278.299H595.76C595.6 282.099 594.22 285.099 591.62 287.299C589.02 289.499 585.54 290.599 581.18 290.599ZM603.177 289.999V281.839H614.577V265.099H604.677V256.999H622.977V281.839H632.577V289.999H603.177ZM618.177 251.779C616.537 251.779 615.217 251.359 614.217 250.519C613.257 249.679 612.777 248.539 612.777 247.099C612.777 245.659 613.257 244.519 614.217 243.679C615.217 242.839 616.537 242.419 618.177 242.419C619.817 242.419 621.117 242.839 622.077 243.679C623.077 244.519 623.577 245.659 623.577 247.099C623.577 248.539 623.077 249.679 622.077 250.519C621.117 251.359 619.817 251.779 618.177 251.779ZM653.013 290.599C650.093 290.599 647.533 290.059 645.333 288.979C643.173 287.859 641.493 286.319 640.293 284.359C639.133 282.359 638.553 280.039 638.553 277.399V269.599C638.553 266.959 639.133 264.659 640.293 262.699C641.493 260.699 643.173 259.159 645.333 258.079C647.533 256.959 650.093 256.399 653.013 256.399C655.933 256.399 658.453 256.959 660.573 258.079C662.733 259.159 664.393 260.699 665.553 262.699C666.753 264.659 667.353 266.959 667.353 269.599V275.599H647.133V277.399C647.133 279.479 647.633 281.059 648.633 282.139C649.633 283.179 651.133 283.699 653.133 283.699C654.533 283.699 655.653 283.459 656.493 282.979C657.373 282.499 657.953 281.839 658.233 280.999H667.053C666.333 283.879 664.693 286.199 662.133 287.959C659.613 289.719 656.573 290.599 653.013 290.599ZM658.773 270.979V269.479C658.773 267.439 658.293 265.879 657.333 264.799C656.413 263.719 654.973 263.179 653.013 263.179C651.053 263.179 649.573 263.739 648.573 264.859C647.613 265.979 647.133 267.559 647.133 269.599V270.499L659.373 270.379L658.773 270.979ZM674.89 289.999V256.999H683.59V263.299H686.23L683.59 265.399C683.59 262.599 684.39 260.399 685.99 258.799C687.59 257.199 689.75 256.399 692.47 256.399C695.67 256.399 698.23 257.519 700.15 259.759C702.11 261.999 703.09 264.979 703.09 268.699V289.999H694.09V269.599C694.09 267.879 693.63 266.559 692.71 265.639C691.83 264.679 690.57 264.199 688.93 264.199C687.33 264.199 686.09 264.679 685.21 265.639C684.33 266.559 683.89 267.879 683.89 269.599V289.999H674.89ZM725.086 290.599C722.166 290.599 719.606 290.059 717.406 288.979C715.206 287.859 713.506 286.319 712.306 284.359C711.106 282.359 710.506 280.039 710.506 277.399V269.599C710.506 266.919 711.106 264.599 712.306 262.639C713.506 260.679 715.206 259.159 717.406 258.079C719.606 256.959 722.166 256.399 725.086 256.399C729.446 256.399 732.926 257.499 735.526 259.699C738.126 261.899 739.506 264.899 739.666 268.699H730.666C730.546 267.299 729.986 266.199 728.986 265.399C728.026 264.599 726.726 264.199 725.086 264.199C723.286 264.199 721.906 264.659 720.946 265.579C719.986 266.499 719.506 267.839 719.506 269.599V277.399C719.506 279.119 719.986 280.459 720.946 281.419C721.906 282.339 723.286 282.799 725.086 282.799C726.726 282.799 728.026 282.419 728.986 281.659C729.986 280.859 730.546 279.739 730.666 278.299H739.666C739.506 282.099 738.126 285.099 735.526 287.299C732.926 289.499 729.446 290.599 725.086 290.599ZM760.943 290.599C758.023 290.599 755.463 290.059 753.263 288.979C751.103 287.859 749.423 286.319 748.223 284.359C747.063 282.359 746.483 280.039 746.483 277.399V269.599C746.483 266.959 747.063 264.659 748.223 262.699C749.423 260.699 751.103 259.159 753.263 258.079C755.463 256.959 758.023 256.399 760.943 256.399C763.863 256.399 766.383 256.959 768.503 258.079C770.663 259.159 772.323 260.699 773.483 262.699C774.683 264.659 775.283 266.959 775.283 269.599V275.599H755.063V277.399C755.063 279.479 755.563 281.059 756.563 282.139C757.563 283.179 759.063 283.699 761.063 283.699C762.463 283.699 763.583 283.459 764.423 282.979C765.303 282.499 765.883 281.839 766.163 280.999H774.983C774.263 283.879 772.623 286.199 770.063 287.959C767.543 289.719 764.503 290.599 760.943 290.599ZM766.703 270.979V269.479C766.703 267.439 766.223 265.879 765.263 264.799C764.343 263.719 762.903 263.179 760.943 263.179C758.983 263.179 757.503 263.739 756.503 264.859C755.543 265.979 755.063 267.559 755.063 269.599V270.499L767.303 270.379L766.703 270.979Z" fill="#E5FF7B"/>
</g>
<path d="M350.29 279.361L351.942 246.403L360.632 246.838L360.316 253.13L362.953 253.262L360.211 255.228C360.351 252.431 361.26 250.274 362.938 248.756C364.616 247.238 366.814 246.547 369.53 246.684C372.726 246.844 375.227 248.091 377.033 250.424C378.878 252.759 379.707 255.785 379.521 259.5L378.455 280.773L369.466 280.323L370.487 259.948C370.573 258.23 370.18 256.889 369.307 255.924C368.477 254.921 367.242 254.379 365.604 254.297C364.006 254.216 362.744 254.634 361.817 255.548C360.892 256.423 360.386 257.72 360.3 259.437L359.279 279.812L350.29 279.361ZM400.274 282.468C397.357 282.322 394.827 281.654 392.684 280.465C390.583 279.239 388.982 277.617 387.882 275.599C386.824 273.543 386.361 271.197 386.493 268.56L386.883 260.77C387.016 258.134 387.71 255.866 388.967 253.966C390.265 252.029 392.02 250.575 394.232 249.604C396.485 248.596 399.07 248.165 401.986 248.311C404.903 248.457 407.391 249.143 409.453 250.367C411.556 251.554 413.137 253.175 414.195 255.231C415.295 257.249 415.779 259.576 415.647 262.212L415.347 268.205L395.152 267.192L395.062 268.99C394.958 271.068 395.378 272.671 396.323 273.799C397.269 274.888 398.741 275.483 400.739 275.583C402.137 275.653 403.268 275.469 404.131 275.032C405.034 274.597 405.646 273.966 405.968 273.141L414.777 273.583C413.913 276.423 412.159 278.658 409.514 280.288C406.909 281.92 403.829 282.646 400.274 282.468ZM407.009 263.161L407.084 261.663C407.186 259.626 406.785 258.043 405.88 256.917C405.015 255.792 403.604 255.181 401.647 255.082C399.689 254.984 398.183 255.469 397.128 256.538C396.113 257.609 395.555 259.162 395.453 261.2L395.407 262.099L407.638 262.592L407.009 263.161ZM436.145 284.267C431.711 284.044 428.295 282.672 425.898 280.148C423.542 277.627 422.468 274.289 422.676 270.134L423.685 250L432.674 250.45L431.668 270.525C431.575 272.363 431.944 273.803 432.773 274.846C433.603 275.849 434.858 276.392 436.536 276.476C438.174 276.559 439.456 276.142 440.383 275.227C441.352 274.275 441.882 272.88 441.975 271.042L442.981 250.967L451.97 251.418L450.96 271.553C450.75 275.747 449.326 278.98 446.689 281.251C444.054 283.482 440.54 284.487 436.145 284.267ZM459.043 284.814L460.695 251.855L469.085 252.276L468.769 258.568L471.047 258.682L468.278 262.388C468.456 258.833 469.409 256.197 471.137 254.482C472.865 252.766 475.307 251.987 478.463 252.145C482.099 252.328 484.86 253.568 486.747 255.865C488.675 258.164 489.538 261.312 489.338 265.307L489.203 268.003L479.615 267.522L479.72 265.425C479.81 263.627 479.381 262.204 478.432 261.155C477.523 260.108 476.25 259.544 474.612 259.462C472.894 259.376 471.551 259.809 470.582 260.762C469.653 261.716 469.143 263.092 469.053 264.89L468.032 285.265L459.043 284.814ZM508.008 287.87C505.092 287.724 502.582 287.057 500.479 285.87C498.377 284.643 496.777 283.021 495.676 281.004C494.618 278.948 494.155 276.602 494.287 273.965L494.678 266.175C494.81 263.538 495.504 261.27 496.761 259.371C498.06 257.433 499.815 255.979 502.026 255.009C504.239 253.999 506.804 253.566 509.721 253.713C512.677 253.861 515.186 254.547 517.247 255.772C519.35 256.959 520.931 258.58 521.989 260.636C523.09 262.653 523.574 264.981 523.441 267.617L523.051 275.407C522.919 278.044 522.203 280.331 520.905 282.269C519.648 284.168 517.913 285.623 515.699 286.633C513.528 287.606 510.964 288.018 508.008 287.87ZM508.399 280.08C510.156 280.168 511.518 279.775 512.483 278.903C513.45 277.99 513.976 276.675 514.062 274.957L514.453 267.167C514.541 265.409 514.149 264.047 513.276 263.082C512.403 262.118 511.088 261.591 509.33 261.503C507.612 261.417 506.251 261.809 505.246 262.68C504.281 263.553 503.754 264.868 503.666 266.626L503.276 274.416C503.19 276.134 503.582 277.495 504.453 278.5C505.365 279.467 506.681 279.993 508.399 280.08ZM542.561 289.602C539.844 289.466 537.489 288.927 535.493 287.986C533.5 287.005 531.962 285.727 530.879 284.15C529.837 282.576 529.367 280.77 529.469 278.733L538.458 279.184C538.41 280.143 538.79 280.943 539.599 281.584C540.45 282.187 541.554 282.523 542.913 282.591L545.549 282.723C547.187 282.805 548.441 282.568 549.31 282.011C550.219 281.456 550.7 280.639 550.754 279.56C550.804 278.561 550.463 277.783 549.73 277.226C548.999 276.628 547.839 276.19 546.251 275.91L542.44 275.238C538.351 274.513 535.405 273.364 533.602 271.791C531.798 270.219 530.973 267.915 531.125 264.879C531.285 261.683 532.508 259.261 534.793 257.613C537.079 255.966 540.339 255.248 544.573 255.46L546.85 255.574C550.885 255.777 554.057 256.817 556.366 258.695C558.675 260.573 559.755 262.99 559.607 265.946L550.618 265.495C550.658 264.697 550.291 264.037 549.516 263.518C548.783 262.96 547.777 262.65 546.499 262.586L544.222 262.471C542.744 262.397 541.652 262.603 540.947 263.088C540.244 263.534 539.867 264.256 539.817 265.254C539.771 266.173 540.035 266.887 540.611 267.397C541.226 267.908 542.207 268.298 543.556 268.566L547.664 269.312C551.792 270.04 554.816 271.233 556.736 272.891C558.695 274.551 559.598 276.919 559.443 279.996C559.275 283.351 557.987 285.87 555.58 287.552C553.173 289.233 549.712 289.961 545.198 289.734L542.561 289.602ZM580.051 291.482C577.134 291.336 574.604 290.668 572.461 289.479C570.32 288.251 568.699 286.627 567.599 284.61C566.501 282.552 566.018 280.205 566.15 277.568L566.54 269.778C566.675 267.102 567.39 264.815 568.687 262.917C569.983 261.02 571.757 259.587 574.009 258.618C576.262 257.61 578.847 257.179 581.763 257.325C586.118 257.543 589.538 258.816 592.025 261.144C594.511 263.471 595.739 266.536 595.709 270.34L586.72 269.889C586.67 268.485 586.166 267.358 585.208 266.509C584.289 265.662 583.011 265.197 581.373 265.115C579.575 265.025 578.174 265.415 577.169 266.286C576.164 267.157 575.617 268.471 575.529 270.229L575.139 278.019C575.052 279.737 575.465 281.099 576.375 282.106C577.288 283.073 578.643 283.602 580.441 283.692C582.079 283.774 583.396 283.459 584.393 282.748C585.432 282 586.048 280.909 586.239 279.477L595.228 279.928C594.878 283.715 593.35 286.642 590.643 288.709C587.936 290.776 584.405 291.7 580.051 291.482ZM602.05 291.984L602.458 283.834L613.844 284.405L614.682 267.686L604.795 267.191L605.2 259.101L623.477 260.017L622.233 284.826L631.821 285.307L631.413 293.456L602.05 291.984ZM618.945 254.563C617.307 254.481 616.009 253.996 615.053 253.107C614.136 252.22 613.714 251.057 613.786 249.619C613.858 248.181 614.394 247.066 615.395 246.275C616.436 245.486 617.775 245.133 619.413 245.215C621.051 245.297 622.329 245.782 623.245 246.669C624.202 247.558 624.644 248.721 624.572 250.16C624.5 251.598 623.944 252.711 622.903 253.5C621.902 254.291 620.583 254.645 618.945 254.563ZM651.794 295.079C648.877 294.933 646.347 294.265 644.204 293.077C642.103 291.85 640.502 290.228 639.402 288.21C638.344 286.154 637.881 283.808 638.013 281.172L638.403 273.381C638.536 270.745 639.23 268.477 640.487 266.577C641.785 264.64 643.54 263.186 645.752 262.215C648.005 261.207 650.59 260.776 653.506 260.922C656.423 261.068 658.911 261.754 660.973 262.979C663.076 264.165 664.657 265.787 665.715 267.842C666.815 269.86 667.299 272.187 667.167 274.824L666.867 280.816L646.672 279.804L646.582 281.601C646.478 283.679 646.898 285.282 647.843 286.41C648.789 287.499 650.261 288.094 652.259 288.194C653.657 288.264 654.788 288.08 655.651 287.643C656.554 287.208 657.166 286.578 657.488 285.753L666.297 286.194C665.433 289.035 663.679 291.27 661.034 292.899C658.429 294.531 655.349 295.257 651.794 295.079ZM658.529 275.772L658.604 274.274C658.706 272.237 658.305 270.655 657.4 269.528C656.535 268.403 655.124 267.792 653.167 267.694C651.209 267.595 649.703 268.081 648.648 269.149C647.633 270.22 647.075 271.774 646.973 273.811L646.927 274.71L659.158 275.203L658.529 275.772ZM673.673 295.575L675.325 262.617L684.014 263.052L683.699 269.345L686.336 269.477L683.594 271.442C683.734 268.645 684.643 266.488 686.321 264.97C687.999 263.453 690.197 262.762 692.913 262.898C696.109 263.058 698.61 264.305 700.415 266.638C702.261 268.974 703.09 271.999 702.904 275.714L701.837 296.988L692.849 296.537L693.87 276.162C693.956 274.445 693.563 273.103 692.69 272.138C691.859 271.135 690.625 270.593 688.987 270.511C687.389 270.431 686.127 270.848 685.2 271.763C684.275 272.638 683.769 273.934 683.683 275.652L682.661 296.026L673.673 295.575ZM723.776 298.688C720.86 298.542 718.33 297.875 716.187 296.686C714.046 295.457 712.425 293.834 711.325 291.816C710.226 289.759 709.743 287.411 709.876 284.775L710.266 276.985C710.4 274.308 711.116 272.021 712.412 270.123C713.709 268.226 715.483 266.793 717.734 265.825C719.988 264.816 722.573 264.385 725.489 264.531C729.843 264.75 733.264 266.022 735.751 268.35C738.237 270.677 739.465 273.743 739.435 277.546L730.446 277.095C730.396 275.691 729.892 274.564 728.933 273.715C728.015 272.868 726.736 272.404 725.098 272.321C723.301 272.231 721.899 272.622 720.894 273.492C719.89 274.363 719.343 275.677 719.255 277.435L718.864 285.225C718.778 286.943 719.19 288.306 720.101 289.313C721.014 290.279 722.369 290.808 724.167 290.898C725.805 290.98 727.122 290.666 728.119 289.955C729.158 289.206 729.773 288.115 729.965 286.683L738.954 287.134C738.604 290.921 737.075 293.848 734.368 295.915C731.662 297.982 728.131 298.907 723.776 298.688ZM759.588 300.484C756.671 300.338 754.142 299.67 751.999 298.481C749.897 297.255 748.297 295.632 747.196 293.615C746.138 291.559 745.675 289.213 745.807 286.576L746.198 278.786C746.33 276.149 747.024 273.881 748.281 271.982C749.58 270.045 751.335 268.591 753.546 267.62C755.799 266.612 758.384 266.181 761.3 266.327C764.217 266.473 766.706 267.159 768.767 268.383C770.87 269.57 772.451 271.191 773.509 273.247C774.61 275.264 775.094 277.592 774.961 280.228L774.661 286.221L754.466 285.208L754.376 287.006C754.272 289.083 754.692 290.686 755.637 291.815C756.584 292.904 758.056 293.498 760.053 293.599C761.451 293.669 762.582 293.485 763.445 293.048C764.348 292.612 764.96 291.982 765.282 291.157L774.091 291.599C773.228 294.439 771.474 296.674 768.829 298.304C766.224 299.936 763.143 300.662 759.588 300.484ZM766.323 281.177L766.398 279.679C766.5 277.641 766.099 276.059 765.194 274.933C764.33 273.808 762.918 273.196 760.961 273.098C759.003 273 757.497 273.485 756.442 274.554C755.427 275.624 754.869 277.178 754.767 279.216L754.722 280.115L766.952 280.608L766.323 281.177Z" fill="#E5FF7B"/>
<path d="M926.372 209.753L917.414 177.992L925.499 175.712L927.209 181.775L929.403 181.156L927.963 185.552C926.996 182.126 927.058 179.324 928.148 177.147C929.238 174.969 931.303 173.451 934.345 172.594C937.848 171.606 940.861 171.899 943.383 173.473C945.943 175.037 947.767 177.744 948.852 181.594L949.585 184.192L940.346 186.798L939.776 184.777C939.287 183.045 938.426 181.833 937.192 181.142C935.996 180.44 934.61 180.312 933.031 180.757C931.376 181.224 930.241 182.063 929.627 183.275C929.051 184.477 929.008 185.943 929.496 187.676L935.034 207.31L926.372 209.753ZM973.749 197.015C969.476 198.22 965.801 198.01 962.724 196.384C959.686 194.747 957.602 191.927 956.473 187.923L951.001 168.52L959.663 166.077L965.119 185.422C965.618 187.193 966.427 188.44 967.545 189.164C968.653 189.849 970.015 189.964 971.632 189.508C973.211 189.063 974.293 188.259 974.879 187.096C975.493 185.884 975.551 184.392 975.051 182.621L969.595 163.276L978.258 160.833L983.73 180.236C984.87 184.278 984.553 187.796 982.779 190.79C980.994 193.746 977.984 195.821 973.749 197.015ZM994.699 190.483L985.742 158.722L994.116 156.361L995.826 162.424L998.366 161.707L996.396 164.445C995.636 161.75 995.808 159.416 996.914 157.442C998.02 155.467 999.881 154.111 1002.5 153.373C1005.58 152.504 1008.35 152.887 1010.8 154.522C1013.3 156.146 1015.05 158.748 1016.06 162.328L1021.84 182.829L1013.18 185.272L1007.64 165.638C1007.17 163.982 1006.37 162.836 1005.24 162.201C1004.13 161.516 1002.79 161.396 1001.21 161.841C999.669 162.275 998.606 163.074 998.02 164.236C997.423 165.361 997.357 166.751 997.824 168.406L1003.36 188.04L994.699 190.483ZM1029.33 180.718L1020.37 148.957L1028.74 146.595L1030.45 152.659L1032.99 151.942L1031.02 154.68C1030.26 151.985 1030.43 149.651 1031.54 147.676C1032.65 145.702 1034.51 144.346 1037.13 143.608C1040.21 142.739 1042.97 143.122 1045.43 144.757C1047.92 146.381 1049.68 148.983 1050.69 152.563L1056.47 173.064L1047.8 175.506L1042.27 155.872C1041.8 154.217 1041 153.071 1039.86 152.436C1038.76 151.75 1037.41 151.631 1035.84 152.076C1034.3 152.51 1033.23 153.309 1032.65 154.471C1032.05 155.596 1031.98 156.986 1032.45 158.641L1037.99 178.275L1029.33 180.718ZM1064.18 170.888L1061.97 163.034L1072.94 159.94L1068.4 143.828L1058.87 146.515L1056.67 138.719L1074.28 133.752L1081.02 157.66L1090.26 155.054L1092.48 162.908L1064.18 170.888ZM1068.25 130.031C1066.67 130.476 1065.28 130.43 1064.09 129.893C1062.94 129.345 1062.17 128.378 1061.78 126.992C1061.39 125.607 1061.54 124.379 1062.24 123.31C1062.97 122.23 1064.13 121.468 1065.7 121.022C1067.28 120.577 1068.65 120.629 1069.8 121.177C1070.99 121.714 1071.78 122.675 1072.17 124.061C1072.56 125.447 1072.39 126.68 1071.66 127.76C1070.96 128.829 1069.82 129.586 1068.25 130.031ZM1098.58 161.188L1089.62 129.427L1097.99 127.065L1099.7 133.129L1102.24 132.412L1100.27 135.15C1099.51 132.455 1099.69 130.12 1100.79 128.146C1101.9 126.172 1103.76 124.816 1106.38 124.077C1109.46 123.209 1112.22 123.592 1114.68 125.227C1117.18 126.85 1118.93 129.453 1119.94 133.033L1125.72 153.533L1117.06 155.976L1111.52 136.342C1111.05 134.687 1110.25 133.541 1109.12 132.905C1108.01 132.22 1106.67 132.1 1105.09 132.545C1103.55 132.98 1102.48 133.778 1101.9 134.941C1101.3 136.065 1101.24 137.455 1101.7 139.111L1107.24 158.745L1098.58 161.188ZM1140.7 160.53L1138.74 153.601L1147.69 151.076C1149.31 150.62 1150.43 149.869 1151.05 148.821C1151.7 147.763 1151.83 146.522 1151.43 145.098L1151.09 143.885L1149.49 137.789L1147.47 138.359L1148.92 135.768C1149.69 138.501 1149.55 140.849 1148.48 142.813C1147.4 144.738 1145.55 146.069 1142.94 146.807C1139.74 147.709 1136.87 147.314 1134.31 145.624C1131.76 143.934 1129.94 141.183 1128.87 137.372L1127.24 131.597C1126.17 127.825 1126.29 124.55 1127.58 121.774C1128.87 118.96 1131.11 117.102 1134.3 116.201C1136.92 115.463 1139.2 115.652 1141.13 116.769C1143.06 117.847 1144.41 119.752 1145.18 122.486L1142.59 121.035L1144.61 120.465L1142.61 114.482L1151.27 112.04L1160 142.992C1160.98 146.457 1160.56 149.527 1158.73 152.202C1156.95 154.866 1154.02 156.774 1149.94 157.925L1140.7 160.53ZM1143.94 138.421C1145.52 137.976 1146.62 137.186 1147.26 136.05C1147.88 134.877 1147.96 133.462 1147.5 131.807L1146.03 126.609C1145.56 124.954 1144.76 123.808 1143.63 123.173C1142.48 122.498 1141.12 122.384 1139.54 122.829C1137.92 123.285 1136.8 124.1 1136.18 125.274C1135.58 126.398 1135.51 127.788 1135.98 129.443L1137.45 134.64C1137.91 136.296 1138.7 137.466 1139.81 138.151C1140.94 138.787 1142.32 138.877 1143.94 138.421Z" fill="white"/>
<path d="M66.661 136.101L66.0241 122.33L42.5635 98.7885L47.4132 96.7007L62.715 112.519C63.3253 113.128 63.9567 113.836 64.6093 114.643C65.2828 115.399 65.8196 116.039 66.2196 116.563C66.1503 115.896 66.0465 115.048 65.9082 114.019C65.77 112.99 65.6713 112.052 65.6122 111.207L64.2218 89.4647L68.9062 87.4481L71.2903 134.108L66.661 136.101ZM102.042 109.699C99.6901 110.712 97.4534 111.13 95.3312 110.955C93.209 110.78 91.2986 110.035 89.5999 108.719C87.9013 107.403 86.5459 105.57 85.5336 103.219L81.9275 94.8419C80.8994 92.4538 80.4992 90.2091 80.7269 88.1078C80.9388 85.9698 81.7104 84.0699 83.0418 82.408C84.3732 80.7461 86.2145 79.409 88.5659 78.3968C90.9173 77.3845 93.1541 76.966 95.2763 77.1411C97.3985 77.3162 99.3089 78.0616 101.007 79.3771C102.69 80.656 104.038 82.4711 105.05 84.8224L108.68 93.2543C109.692 95.6057 110.092 97.8504 109.881 99.9884C109.669 102.126 108.897 104.026 107.566 105.688C106.234 107.35 104.393 108.687 102.042 109.699ZM100.357 105.787C102.635 104.806 104.122 103.404 104.817 101.58C105.513 99.7565 105.331 97.6139 104.271 95.1523L100.665 86.7755C99.6053 84.3139 98.1557 82.717 96.3162 81.9846C94.5135 81.2365 92.4915 81.3448 90.2504 82.3096C88.0092 83.2744 86.5225 84.6766 85.7901 86.516C85.0945 88.3397 85.2766 90.4823 86.3363 92.9439L89.9425 101.321C91.0022 103.782 92.4334 105.387 94.2361 106.135C96.0756 106.868 98.1159 106.751 100.357 105.787ZM131.648 108.124L129.94 104.156L139.143 100.194C140.87 99.4509 141.964 98.5011 142.424 97.3449C142.921 96.1728 142.814 94.7601 142.102 93.1068L140.584 89.5798L138.226 83.8009L137.234 84.2279L137.736 82.5096C138.716 84.7875 138.746 86.9304 137.825 88.9382C136.904 90.9461 135.176 92.4957 132.641 93.587C129.555 94.9156 126.676 94.957 124.006 93.7113C121.32 92.4289 119.242 90.0793 117.771 86.6624L114.995 80.2145C113.524 76.7977 113.254 73.6914 114.184 70.8957C115.115 68.1 117.123 66.0378 120.209 64.7093C122.744 63.6179 125.057 63.4277 127.149 64.1386C129.225 64.8128 130.753 66.2888 131.734 68.5667L130.196 67.7262L131.078 67.3466L128.658 61.7254L132.956 59.8749L146.456 91.2326C147.658 94.0248 147.764 96.5484 146.775 98.8032C145.839 101.079 143.864 102.865 140.851 104.162L131.648 108.124ZM132.271 89.2388C134.439 88.3056 135.844 86.9167 136.487 85.0721C137.151 83.175 136.969 81.0323 135.941 78.6442L133.331 72.5821C132.303 70.194 130.88 68.6075 129.062 67.8226C127.264 66.9852 125.281 67.033 123.114 67.9662C120.909 68.9152 119.485 70.312 118.842 72.1566C118.199 74.0011 118.4 76.1359 119.444 78.5607L122.053 84.6228C123.097 87.0477 124.51 88.6605 126.292 89.4612C128.074 90.2619 130.067 90.1877 132.271 89.2388ZM165.785 82.3236C162.588 83.6996 159.724 83.9748 157.191 83.149C154.642 82.2866 152.767 80.4592 151.565 77.6669C150.378 74.9114 150.345 72.3562 151.465 70.0014C152.57 67.6098 154.647 65.7577 157.696 64.4449L167.34 60.2931L165.964 57.0967C165.094 55.076 163.834 53.7676 162.184 53.1715C160.534 52.5754 158.625 52.744 156.457 53.6771C154.547 54.4996 153.131 55.6101 152.209 57.0087C151.323 58.3915 151.097 59.8389 151.53 61.3508L147.121 63.2488C146.366 60.4821 146.685 57.8843 148.078 55.4555C149.508 53.0109 151.784 51.1164 154.907 49.772C158.287 48.3169 161.365 48.0808 164.139 49.0637C166.898 50.0099 168.942 52.026 170.271 55.1122L179.215 75.8888L174.916 77.7393L172.378 71.8425L171.661 72.1509L172.108 70.9133C173.073 73.1545 172.977 75.308 171.819 77.3741C170.662 79.4401 168.65 81.0899 165.785 82.3236ZM165.313 78.3458C167.738 77.3019 169.461 75.8416 170.482 73.9649C171.504 72.0882 171.595 70.1762 170.757 68.229L168.788 63.6548L159.198 67.7829C157.472 68.5263 156.3 69.597 155.682 70.9951C155.065 72.3932 155.112 73.9189 155.823 75.5722C156.583 77.3358 157.816 78.4814 159.524 79.0091C161.216 79.5001 163.146 79.279 165.313 78.3458Z" fill="white"/>
<path d="M643.919 187.768L639.716 144.17L644.434 143.715L646.8 168.262L653.549 167.611L661.954 152.877L667.448 152.347L657.908 169.059L670.794 185.177L665.24 185.713L654.006 171.726L647.198 172.382L648.637 187.313L643.919 187.768ZM679.55 184.333L676.384 151.486L681.102 151.031L681.689 157.122L682.883 157.007L681.737 158.866C681.483 156.238 682.082 154.111 683.532 152.484C685.019 150.814 687.156 149.844 689.943 149.576C693.208 149.261 695.915 150.045 698.066 151.927C700.213 153.77 701.455 156.443 701.793 159.946L703.917 181.984L699.199 182.439L697.126 160.939C696.885 158.43 696.042 156.563 694.597 155.336C693.153 154.109 691.296 153.604 689.026 153.823C686.677 154.05 684.895 154.945 683.679 156.509C682.464 158.072 681.983 160.168 682.236 162.796L684.268 183.878L679.55 184.333ZM714.823 180.933L714.409 176.633L726.114 175.504L723.777 151.257L713.564 152.241L713.15 147.941L728.14 146.496L730.892 175.044L742.001 173.973L742.415 178.273L714.823 180.933ZM724.632 140.746C723.398 140.865 722.372 140.643 721.554 140.079C720.776 139.511 720.333 138.669 720.226 137.554C720.114 136.4 720.384 135.449 721.036 134.703C721.727 133.954 722.69 133.519 723.924 133.4C725.158 133.281 726.167 133.526 726.949 134.134C727.77 134.737 728.237 135.617 728.348 136.771C728.452 137.846 728.158 138.759 727.467 139.509C726.811 140.215 725.867 140.627 724.632 140.746ZM766.878 175.915C764.131 176.18 761.932 175.668 760.281 174.381C758.626 173.054 757.67 171.056 757.413 168.388L755.467 148.202L746.15 149.1L745.735 144.8L755.052 143.902L754.16 134.645L758.938 134.184L759.83 143.441L773.029 142.169L773.443 146.469L760.244 147.741L762.19 167.928C762.451 170.635 763.876 171.864 766.464 171.615L775.183 170.774L775.598 175.074L766.878 175.915ZM802.689 172.463C799.942 172.728 797.743 172.216 796.091 170.929C794.436 169.601 793.48 167.604 793.223 164.936L791.277 144.75L781.96 145.648L781.546 141.348L790.863 140.45L789.97 131.193L794.748 130.732L795.64 139.989L808.839 138.717L809.254 143.017L796.055 144.289L798.001 164.476C798.262 167.183 799.686 168.412 802.274 168.163L810.994 167.322L811.409 171.622L802.689 172.463ZM822.255 170.577L821.84 166.277L833.546 165.148L831.209 140.901L820.996 141.885L820.581 137.585L835.572 136.14L838.324 164.688L849.432 163.617L849.847 167.917L822.255 170.577ZM832.064 130.39C830.83 130.509 829.804 130.286 828.986 129.722C828.208 129.154 827.765 128.313 827.657 127.198C827.546 126.043 827.816 125.093 828.468 124.347C829.159 123.597 830.122 123.163 831.356 123.044C832.59 122.925 833.598 123.169 834.38 123.777C835.202 124.381 835.668 125.26 835.78 126.415C835.883 127.49 835.59 128.402 834.898 129.152C834.243 129.858 833.298 130.271 832.064 130.39ZM858.603 167.073L855.436 134.225L860.155 133.77L860.742 139.862L861.936 139.747L860.789 141.605C860.536 138.978 861.135 136.85 862.585 135.224C864.072 133.553 866.209 132.584 868.996 132.315C872.261 132 874.968 132.784 877.119 134.666C879.266 136.509 880.508 139.182 880.846 142.686L882.97 164.724L878.252 165.179L876.179 143.678C875.937 141.17 875.094 139.302 873.65 138.075C872.205 136.848 870.349 136.344 868.079 136.563C865.73 136.789 863.948 137.684 862.732 139.248C861.517 140.812 861.035 142.908 861.289 145.536L863.321 166.618L858.603 167.073ZM899.451 173.985L899.037 169.685L909.01 168.723C910.882 168.543 912.213 167.973 913.005 167.012C913.836 166.048 914.165 164.67 913.993 162.878L913.624 159.056L913.145 152.833L912.07 152.937L913.072 151.454C913.31 153.923 912.684 155.972 911.193 157.603C909.703 159.233 907.584 160.181 904.837 160.446C901.492 160.768 898.739 159.928 896.577 157.927C894.411 155.885 893.15 153.013 892.793 149.31L892.119 142.322C891.762 138.62 892.454 135.579 894.194 133.201C895.933 130.823 898.476 129.473 901.82 129.151C904.567 128.886 906.828 129.411 908.603 130.727C910.373 132.003 911.378 133.876 911.616 136.344L910.408 135.074L911.364 134.982L910.776 128.89L915.435 128.441L918.711 162.424C919.002 165.45 918.333 167.885 916.703 169.73C915.116 171.611 912.69 172.709 909.425 173.024L899.451 173.985ZM905.813 156.192C908.162 155.966 909.925 155.073 911.101 153.513C912.312 151.909 912.793 149.813 912.544 147.225L911.911 140.656C911.661 138.068 910.79 136.122 909.299 134.819C907.843 133.473 905.94 132.913 903.591 133.139C901.202 133.37 899.42 134.265 898.244 135.825C897.068 137.385 896.607 139.479 896.86 142.106L897.494 148.676C897.747 151.304 898.6 153.271 900.052 154.578C901.504 155.885 903.424 156.423 905.813 156.192Z" fill="white"/>
<path d="M876.413 243.996L886.119 201.285L890.741 202.336L889.452 208.011L890.68 208.29L888.837 209.902C889.413 207.366 890.685 205.563 892.651 204.492C894.665 203.391 897.037 203.151 899.767 203.771C903.005 204.507 905.336 206.165 906.759 208.744C908.231 211.294 908.55 214.402 907.717 218.068L905.55 227.605C904.991 230.063 904.06 232.087 902.755 233.677C901.459 235.228 899.9 236.31 898.079 236.922C896.298 237.542 894.334 237.609 892.189 237.121C889.497 236.51 887.481 235.272 886.141 233.409C884.801 231.545 884.414 229.365 884.981 226.869L885.771 229.079L884.66 228.826L883.229 235.393L881.035 245.047L876.413 243.996ZM891.643 232.752C893.984 233.283 895.957 232.994 897.563 231.882C899.209 230.779 900.324 228.94 900.909 226.366L902.983 217.239C903.577 214.625 903.366 212.485 902.35 210.819C901.382 209.122 899.728 208.008 897.387 207.476C895.125 206.962 893.147 207.271 891.454 208.404C889.809 209.507 888.698 211.326 888.122 213.862L886.048 222.989C885.472 225.524 885.683 227.664 886.681 229.409C887.727 231.123 889.381 232.238 891.643 232.752ZM923.117 244.149C919.723 243.378 917.246 241.913 915.686 239.754C914.135 237.555 913.696 234.974 914.37 232.009C915.034 229.084 916.513 227 918.805 225.757C921.107 224.475 923.876 224.202 927.113 224.938L937.352 227.264L938.124 223.871C938.611 221.726 938.364 219.926 937.381 218.472C936.399 217.018 934.757 216.03 932.456 215.507C930.428 215.046 928.629 215.109 927.06 215.696C925.53 216.292 924.495 217.328 923.954 218.805L919.273 217.741C920.293 215.06 922.081 213.149 924.637 212.007C927.233 210.874 930.188 210.685 933.504 211.438C937.092 212.253 939.718 213.876 941.381 216.305C943.053 218.695 943.517 221.528 942.772 224.804L937.76 246.862L933.196 245.825L934.619 239.564L933.858 239.391L934.949 238.655C934.408 241.034 933.061 242.718 930.909 243.705C928.757 244.693 926.159 244.841 923.117 244.149ZM925.079 240.658C927.654 241.243 929.906 241.078 931.837 240.163C933.768 239.248 934.968 237.757 935.438 235.689L936.541 230.833L926.361 228.52C924.528 228.103 922.95 228.278 921.627 229.044C920.305 229.81 919.444 231.07 919.045 232.826C918.619 234.698 918.941 236.35 920.01 237.783C921.088 239.176 922.778 240.135 925.079 240.658ZM948.444 249.29L949.401 245.077L960.869 247.683L966.267 223.929L956.262 221.655L957.219 217.443L971.905 220.78L965.55 248.747L976.432 251.22L975.475 255.433L948.444 249.29ZM970.381 214.219C969.172 213.944 968.268 213.411 967.668 212.618C967.108 211.835 966.952 210.897 967.2 209.804C967.457 208.673 968.012 207.856 968.865 207.352C969.757 206.858 970.807 206.748 972.016 207.023C973.226 207.297 974.106 207.846 974.657 208.669C975.248 209.5 975.414 210.482 975.157 211.613C974.918 212.666 974.352 213.44 973.461 213.934C972.617 214.399 971.59 214.494 970.381 214.219ZM984.053 257.382L991.365 225.202L995.988 226.253L994.631 232.221L995.802 232.486L994.129 233.891C994.714 231.316 995.95 229.485 997.839 228.396C999.775 227.277 1002.11 227.028 1004.84 227.649C1008.04 228.376 1010.36 229.97 1011.81 232.433C1013.27 234.856 1013.61 237.785 1012.83 241.217L1007.92 262.807L1003.3 261.756L1008.09 240.693C1008.65 238.236 1008.43 236.198 1007.45 234.579C1006.46 232.96 1004.86 231.898 1002.63 231.393C1000.33 230.87 998.359 231.16 996.714 232.263C995.068 233.366 993.953 235.204 993.368 237.779L988.675 258.432L984.053 257.382ZM1034.52 268.851C1031.83 268.239 1029.9 267.063 1028.74 265.322C1027.59 263.542 1027.31 261.345 1027.9 258.732L1032.39 238.956L1023.27 236.882L1024.22 232.669L1033.35 234.744L1035.41 225.675L1040.09 226.738L1038.03 235.807L1050.96 238.746L1050.01 242.958L1037.07 240.02L1032.58 259.796C1031.98 262.448 1032.94 264.062 1035.48 264.638L1044.02 266.58L1043.06 270.792L1034.52 268.851ZM1053.69 273.207L1054.65 268.994L1066.12 271.6L1071.51 247.846L1061.51 245.572L1062.47 241.36L1077.15 244.697L1070.8 272.664L1081.68 275.137L1080.72 279.35L1053.69 273.207ZM1075.63 238.136C1074.42 237.861 1073.51 237.328 1072.91 236.535C1072.35 235.752 1072.2 234.814 1072.45 233.722C1072.7 232.59 1073.26 231.773 1074.11 231.27C1075 230.775 1076.05 230.665 1077.26 230.94C1078.47 231.214 1079.35 231.763 1079.9 232.586C1080.49 233.417 1080.66 234.399 1080.4 235.53C1080.16 236.583 1079.6 237.357 1078.71 237.852C1077.86 238.316 1076.84 238.411 1075.63 238.136ZM1089.3 281.299L1096.61 249.119L1101.23 250.17L1099.88 256.138L1101.05 256.404L1099.38 257.808C1099.96 255.233 1101.2 253.402 1103.08 252.313C1105.02 251.195 1107.35 250.945 1110.08 251.566C1113.28 252.293 1115.61 253.887 1117.06 256.35C1118.52 258.774 1118.86 261.702 1118.08 265.134L1113.17 286.724L1108.55 285.673L1113.33 264.61C1113.89 262.153 1113.68 260.115 1112.69 258.496C1111.71 256.878 1110.1 255.816 1107.88 255.31C1105.58 254.787 1103.61 255.077 1101.96 256.18C1100.31 257.283 1099.2 259.122 1098.61 261.696L1093.92 282.349L1089.3 281.299ZM1125.91 300.694L1126.87 296.481L1136.64 298.702C1138.47 299.118 1139.91 298.995 1140.97 298.332C1142.06 297.678 1142.8 296.473 1143.2 294.718L1144.05 290.973L1145.55 284.915L1144.5 284.675L1145.92 283.582C1145.37 286.001 1144.13 287.75 1142.2 288.83C1140.27 289.909 1137.97 290.143 1135.27 289.532C1132 288.787 1129.65 287.125 1128.22 284.545C1126.81 281.927 1126.51 278.804 1127.34 275.176L1128.89 268.331C1129.72 264.703 1131.33 262.034 1133.73 260.323C1136.13 258.612 1138.96 258.129 1142.24 258.873C1144.93 259.485 1146.91 260.694 1148.19 262.501C1149.47 264.268 1149.83 266.361 1149.28 268.78L1148.53 267.195L1149.47 267.407L1150.83 261.44L1155.39 262.477L1147.82 295.768C1147.15 298.732 1145.75 300.834 1143.62 302.074C1141.53 303.361 1138.88 303.641 1135.68 302.914L1125.91 300.694ZM1137.54 285.8C1139.84 286.323 1141.79 286.029 1143.4 284.917C1145.05 283.776 1146.17 281.937 1146.74 279.402L1148.21 272.966C1148.78 270.43 1148.57 268.31 1147.56 266.604C1146.6 264.869 1144.97 263.739 1142.67 263.216C1140.33 262.684 1138.36 262.974 1136.75 264.086C1135.14 265.198 1134.05 267.041 1133.46 269.615L1132 276.051C1131.42 278.625 1131.61 280.761 1132.57 282.458C1133.54 284.154 1135.2 285.269 1137.54 285.8Z" fill="white"/>
<path d="M520.219 255.969L515.721 223.277L524.043 222.132L524.901 228.373L527.16 228.062L525.128 232.218C524.642 228.691 525.089 225.924 526.469 223.918C527.848 221.911 530.103 220.692 533.234 220.262C536.84 219.766 539.783 220.471 542.065 222.378C544.385 224.279 545.818 227.211 546.363 231.174L546.731 233.849L537.221 235.157L536.935 233.077C536.689 231.294 536.003 229.975 534.876 229.12C533.789 228.261 532.433 227.942 530.808 228.166C529.104 228.4 527.865 229.076 527.09 230.192C526.354 231.302 526.109 232.749 526.354 234.532L529.135 254.742L520.219 255.969ZM568.959 249.869C566.066 250.267 563.456 250.081 561.13 249.311C558.837 248.496 556.963 247.199 555.507 245.421C554.085 243.598 553.194 241.378 552.835 238.763L551.772 231.036C551.412 228.42 551.673 226.063 552.555 223.963C553.471 221.818 554.926 220.063 556.918 218.699C558.945 217.29 561.405 216.386 564.298 215.988C567.19 215.59 569.763 215.802 572.016 216.622C574.303 217.398 576.158 218.697 577.579 220.52C579.035 222.298 579.943 224.495 580.303 227.111L581.121 233.055L561.089 235.81L561.335 237.594C561.618 239.654 562.329 241.151 563.467 242.085C564.599 242.979 566.156 243.29 568.137 243.017C569.524 242.826 570.601 242.436 571.368 241.846C572.174 241.25 572.659 240.518 572.822 239.647L581.559 238.445C581.239 241.396 579.93 243.918 577.634 246.011C575.377 248.098 572.485 249.384 568.959 249.869ZM571.991 229.647L571.787 228.161C571.509 226.14 570.82 224.66 569.722 223.721C568.664 222.776 567.163 222.438 565.222 222.705C563.28 222.972 561.89 223.728 561.052 224.974C560.254 226.215 559.994 227.845 560.272 229.866L560.394 230.758L572.504 228.971L571.991 229.647ZM600.32 245.555C597.031 246.007 594.293 245.475 592.106 243.959C589.958 242.438 588.675 240.151 588.255 237.1C587.803 233.811 588.586 231.139 590.605 229.085C592.658 226.986 595.824 225.642 600.104 225.053L606.88 224.121L606.545 221.684C606.37 220.415 605.775 219.468 604.76 218.84C603.785 218.207 602.545 217.994 601.039 218.201C599.652 218.392 598.546 218.867 597.722 219.627C596.898 220.386 596.463 221.334 596.417 222.471L587.799 223.657C587.703 220.319 588.772 217.527 591.007 215.281C593.276 212.991 596.392 211.573 600.355 211.028C604.515 210.455 607.946 211.033 610.647 212.761C613.382 214.444 614.986 217.009 615.461 220.457L618.486 242.45L609.867 243.636L609.131 238.286L607.705 238.482L608.905 236.197C609.243 238.654 608.621 240.738 607.039 242.45C605.492 244.116 603.252 245.151 600.32 245.555ZM602.749 238.558C604.493 238.318 605.857 237.666 606.841 236.602C607.859 235.493 608.265 234.186 608.057 232.68L607.575 229.173L600.977 230.081C599.63 230.266 598.595 230.812 597.871 231.719C597.143 232.587 596.866 233.654 597.04 234.922C597.226 236.27 597.829 237.277 598.849 237.944C599.864 238.572 601.164 238.776 602.749 238.558ZM636.793 240.537C633.504 240.989 630.711 240.203 628.413 238.177C626.116 236.151 624.697 233.177 624.157 229.254L623.012 220.932C622.478 217.049 623.044 213.822 624.709 211.251C626.369 208.64 628.843 207.109 632.132 206.656C634.827 206.285 637.056 206.786 638.819 208.159C640.577 209.492 641.65 211.565 642.037 214.378L639.67 212.584L641.751 212.298L640.349 204.314L639.123 195.398L648.039 194.172L654.008 237.563L645.389 238.749L644.531 232.507L642.45 232.794L644.245 230.427C644.632 233.241 644.162 235.546 642.834 237.344C641.501 239.102 639.488 240.166 636.793 240.537ZM638.94 232.368C640.564 232.145 641.77 231.515 642.556 230.478C643.336 229.401 643.609 228.011 643.375 226.307L642.312 218.58C642.078 216.876 641.442 215.631 640.405 214.845C639.363 214.019 638.029 213.718 636.405 213.942C634.74 214.171 633.518 214.823 632.737 215.9C631.991 216.931 631.735 218.299 631.969 220.003L633.032 227.73C633.267 229.434 633.885 230.701 634.888 231.533C635.925 232.319 637.275 232.597 638.94 232.368ZM662.069 236.454L660.957 228.37L672.25 226.817L669.969 210.233L660.161 211.582L659.057 203.558L677.187 201.064L680.572 225.672L690.082 224.363L691.195 232.447L662.069 236.454ZM671.72 196.546C670.095 196.77 668.73 196.534 667.625 195.838C666.56 195.137 665.929 194.073 665.733 192.646C665.536 191.219 665.856 190.025 666.693 189.062C667.569 188.093 668.82 187.497 670.444 187.274C672.069 187.05 673.414 187.289 674.48 187.99C675.585 188.686 676.236 189.748 676.432 191.174C676.628 192.601 676.288 193.798 675.412 194.767C674.575 195.73 673.345 196.323 671.72 196.546ZM697.472 231.584L692.975 198.892L701.593 197.706L702.452 203.947L705.067 203.587L702.738 206.027C702.357 203.254 702.849 200.965 704.216 199.162C705.583 197.359 707.614 196.272 710.309 195.901C713.479 195.465 716.168 196.226 718.375 198.183C720.622 200.135 721.999 202.954 722.506 206.639L725.409 227.74L716.493 228.967L713.713 208.757C713.478 207.053 712.843 205.808 711.806 205.022C710.803 204.191 709.489 203.887 707.865 204.111C706.28 204.329 705.117 204.973 704.376 206.044C703.629 207.076 703.373 208.443 703.608 210.147L706.388 230.357L697.472 231.584ZM739.281 236.734L738.299 229.601L747.513 228.333C749.177 228.104 750.388 227.514 751.145 226.562C751.942 225.604 752.24 224.392 752.038 222.926L751.866 221.678L751.126 215.42L749.046 215.707L750.84 213.34C751.227 216.154 750.757 218.459 749.43 220.257C748.097 222.015 746.083 223.079 743.388 223.45C740.099 223.902 737.306 223.116 735.009 221.09C732.711 219.064 731.293 216.09 730.753 212.167L729.935 206.223C729.401 202.339 729.966 199.112 731.631 196.541C733.291 193.931 735.766 192.399 739.055 191.947C741.749 191.576 743.978 192.077 745.742 193.449C747.5 194.782 748.572 196.855 748.959 199.669L746.593 197.875L748.673 197.588L747.517 191.388L756.433 190.161L760.816 222.021C761.307 225.588 760.466 228.57 758.292 230.969C756.159 233.362 752.991 234.848 748.791 235.425L739.281 236.734ZM745.535 215.281C747.16 215.058 748.365 214.427 749.151 213.391C749.932 212.314 750.205 210.924 749.971 209.22L749.235 203.87C749 202.167 748.365 200.922 747.328 200.135C746.286 199.31 744.952 199.009 743.327 199.232C741.663 199.461 740.441 200.114 739.66 201.19C738.914 202.222 738.658 203.589 738.892 205.293L739.628 210.643C739.862 212.347 740.481 213.614 741.484 214.446C742.52 215.232 743.871 215.51 745.535 215.281Z" fill="white"/>
<path d="M149.814 166.08C147.123 165.683 145.12 164.598 143.805 162.827C142.495 161.016 142.048 158.706 142.463 155.897L144.234 158.281L142.156 157.974L141.236 164.207L132.629 162.935L139.029 119.605L147.933 120.921L146.618 129.824L145.137 137.793L147.215 138.1L144.83 139.871C145.245 137.061 146.338 134.999 148.11 133.683C149.887 132.329 152.121 131.85 154.811 132.247C158.096 132.732 160.555 134.288 162.188 136.915C163.828 139.503 164.361 142.735 163.788 146.613L162.561 154.923C161.982 158.841 160.534 161.801 158.217 163.804C155.899 165.806 153.098 166.565 149.814 166.08ZM147.748 157.89C149.41 158.136 150.744 157.868 151.749 157.086C152.799 156.271 153.45 155.013 153.701 153.311L154.841 145.595C155.093 143.893 154.83 142.52 154.055 141.476C153.324 140.398 152.128 139.736 150.466 139.49C148.844 139.25 147.508 139.538 146.457 140.354C145.413 141.129 144.765 142.368 144.513 144.069L143.374 151.786C143.122 153.487 143.381 154.88 144.151 155.964C144.927 157.009 146.126 157.651 147.748 157.89ZM168.457 168.227L169.649 160.155L180.927 161.821L183.373 145.261L173.579 143.814L174.763 135.801L192.866 138.475L189.237 163.048L198.734 164.451L197.541 172.524L168.457 168.227ZM188.881 132.61C187.258 132.37 186.014 131.762 185.147 130.784C184.32 129.813 184.012 128.615 184.223 127.191C184.433 125.766 185.074 124.709 186.147 124.018C187.259 123.333 188.626 123.11 190.248 123.35C191.871 123.59 193.095 124.195 193.922 125.166C194.789 126.144 195.117 127.344 194.907 128.769C194.696 130.193 194.035 131.248 192.923 131.933C191.85 132.624 190.503 132.849 188.881 132.61ZM217.611 176.095C214.723 175.668 212.289 174.763 210.31 173.379C208.337 171.955 206.9 170.186 205.999 168.072C205.144 165.924 204.909 163.544 205.295 160.932L206.435 153.216C206.82 150.604 207.73 148.414 209.164 146.644C210.644 144.841 212.531 143.563 214.825 142.81C217.126 142.018 219.72 141.835 222.609 142.262C225.537 142.694 227.968 143.62 229.902 145.037C231.881 146.421 233.298 148.187 234.153 150.335C235.054 152.45 235.311 154.813 234.925 157.424L233.786 165.141C233.4 167.752 232.467 169.96 230.988 171.763C229.554 173.532 227.687 174.813 225.386 175.606C223.131 176.364 220.54 176.527 217.611 176.095ZM218.751 168.378C220.492 168.636 221.885 168.376 222.93 167.601C223.98 166.785 224.631 165.527 224.882 163.825L226.022 156.109C226.279 154.368 226.02 152.975 225.244 151.931C224.469 150.886 223.21 150.235 221.469 149.978C219.768 149.727 218.375 149.986 217.291 150.756C216.246 151.532 215.595 152.79 215.338 154.531L214.198 162.247C213.947 163.949 214.206 165.342 214.976 166.426C215.791 167.476 217.05 168.127 218.751 168.378ZM258.631 181.547C256.336 181.208 254.388 180.435 252.788 179.229C251.193 177.982 250.029 176.415 249.297 174.528C248.604 172.647 248.428 170.558 248.767 168.263L252.274 144.521L242.183 143.03L243.367 135.017L262.361 137.823L257.67 169.578C257.512 170.647 257.7 171.564 258.234 172.33C258.813 173.063 259.637 173.508 260.705 173.666L270.202 175.069L269.019 183.082L258.631 181.547ZM288.792 186.609C285.903 186.182 283.47 185.277 281.491 183.893C279.517 182.469 278.081 180.7 277.18 178.586C276.325 176.438 276.09 174.058 276.476 171.446L277.615 163.73C278.001 161.119 278.911 158.928 280.345 157.159C281.824 155.355 283.711 154.077 286.006 153.325C288.306 152.532 290.901 152.349 293.79 152.776C296.718 153.209 299.149 154.134 301.082 155.552C303.061 156.936 304.478 158.702 305.334 160.85C306.234 162.964 306.492 165.327 306.106 167.939L304.966 175.655C304.581 178.267 303.648 180.474 302.169 182.277C300.735 184.047 298.867 185.328 296.567 186.12C294.312 186.878 291.72 187.042 288.792 186.609ZM289.932 178.893C291.673 179.15 293.066 178.891 294.11 178.115C295.161 177.3 295.812 176.041 296.063 174.34L297.203 166.624C297.46 164.882 297.201 163.49 296.425 162.445C295.649 161.4 294.391 160.75 292.65 160.492C290.948 160.241 289.555 160.5 288.471 161.27C287.427 162.046 286.776 163.304 286.519 165.045L285.379 172.762C285.128 174.463 285.387 175.856 286.157 176.94C286.972 177.991 288.23 178.641 289.932 178.893ZM313.692 200.598L314.744 193.475L323.944 194.834C325.606 195.079 326.934 194.851 327.927 194.149C328.96 193.452 329.584 192.372 329.801 190.908L329.985 189.661L331.024 183.446L328.947 183.139L331.331 181.369C330.916 184.178 329.82 186.261 328.043 187.615C326.272 188.931 324.041 189.39 321.35 188.992C318.066 188.507 315.604 186.971 313.964 184.383C312.325 181.796 311.794 178.544 312.373 174.626L313.25 168.691C313.822 164.813 315.268 161.872 317.585 159.869C319.908 157.827 322.712 157.048 325.997 157.533C328.688 157.931 330.688 159.035 331.997 160.846C333.312 162.617 333.763 164.907 333.348 167.717L331.577 165.333L333.654 165.639L334.278 159.363L343.182 160.678L338.482 192.493C337.956 196.055 336.314 198.683 333.557 200.378C330.839 202.079 327.383 202.62 323.189 202L313.692 200.598ZM325.695 181.749C327.317 181.989 328.651 181.721 329.695 180.945C330.746 180.13 331.397 178.872 331.648 177.17L332.437 171.828C332.688 170.126 332.426 168.753 331.651 167.709C330.881 166.625 329.685 165.963 328.062 165.723C326.4 165.478 325.044 165.763 323.994 166.578C322.989 167.359 322.36 168.601 322.109 170.302L321.32 175.645C321.069 177.346 321.308 178.736 322.038 179.814C322.814 180.859 324.033 181.504 325.695 181.749ZM349.994 205.96L356.261 194.331L348.619 161.482L358.294 162.911L361.117 177.884C361.315 179.005 361.478 180.363 361.606 181.959C361.78 183.521 361.895 184.792 361.953 185.771C362.291 184.85 362.749 183.665 363.328 182.213C363.951 180.729 364.52 179.478 365.034 178.463L371.887 164.919L381.146 166.286L359.313 207.337L349.994 205.96Z" fill="white"/>
<g filter="url(#filter2_f_111_7)">
<path d="M770.509 207.583C768.24 206.083 766.486 204.42 765.248 202.594C764.031 200.735 763.358 198.852 763.229 196.944C763.133 195.058 763.648 193.265 764.773 191.563L772.28 196.526C771.751 197.327 771.671 198.209 772.041 199.173C772.466 200.126 773.246 200.977 774.38 201.727L776.583 203.183C777.951 204.087 779.151 204.521 780.182 204.484C781.247 204.469 782.077 204.01 782.673 203.11C783.225 202.275 783.327 201.432 782.979 200.579C782.654 199.693 781.88 198.725 780.655 197.676L777.717 195.158C774.567 192.452 772.616 189.963 771.864 187.692C771.112 185.42 771.574 183.016 773.25 180.481C775.015 177.811 777.3 176.349 780.106 176.094C782.912 175.839 786.083 176.881 789.62 179.219L791.522 180.477C794.892 182.705 797.093 185.215 798.124 188.007C799.156 190.798 798.855 193.429 797.223 195.898L789.715 190.934C790.157 190.267 790.176 189.513 789.773 188.671C789.426 187.818 788.719 187.039 787.651 186.333L785.749 185.075C784.514 184.259 783.47 183.88 782.616 183.939C781.784 183.965 781.092 184.394 780.541 185.229C780.033 185.996 779.898 186.745 780.133 187.477C780.403 188.23 781.049 189.065 782.073 189.982L785.229 192.716C788.412 195.444 790.408 198.01 791.216 200.414C792.058 202.841 791.629 205.338 789.93 207.908C788.077 210.71 785.687 212.223 782.759 212.445C779.831 212.667 776.482 211.532 772.711 209.039L770.509 207.583ZM784.334 228.95L808.489 192.414L815.747 197.212L812.272 202.467L814.024 203.625L811.114 204.219C812.68 201.85 814.544 200.445 816.706 200.004C818.89 199.529 821.116 200.042 823.385 201.542C826.154 203.373 827.723 205.824 828.089 208.896C828.478 211.934 827.592 215.089 825.43 218.359L820.797 225.366C819.363 227.534 817.722 229.183 815.874 230.31C814.081 231.427 812.203 231.983 810.239 231.979C808.297 231.943 806.392 231.306 804.524 230.071C802.255 228.571 800.9 226.74 800.459 224.578C800.04 222.383 800.614 220.101 802.18 217.732L802.773 220.642L801.022 219.484L796.805 226.406L791.841 233.914L784.334 228.95ZM806.123 221.778C807.524 222.704 808.846 223.026 810.087 222.744C811.384 222.451 812.507 221.587 813.455 220.152L817.757 213.645C818.728 212.177 819.083 210.806 818.823 209.531C818.596 208.278 817.782 207.188 816.381 206.262C815.013 205.357 813.68 205.052 812.383 205.345C811.108 205.605 809.997 206.453 809.048 207.888L804.746 214.394C803.798 215.829 803.443 217.201 803.681 218.509C803.941 219.784 804.755 220.873 806.123 221.778ZM828.128 245.677C825.359 243.846 823.653 241.639 823.01 239.056C822.402 236.496 822.946 233.931 824.645 231.362C826.476 228.592 828.828 227.102 831.7 226.892C834.628 226.67 837.894 227.75 841.498 230.132L847.204 233.904L848.56 231.852C849.266 230.785 849.445 229.68 849.097 228.539C848.782 227.419 847.99 226.441 846.722 225.602C845.554 224.83 844.41 224.457 843.29 224.484C842.17 224.51 841.217 224.936 840.433 225.76L833.175 220.962C835.306 218.391 837.953 216.999 841.114 216.788C844.33 216.564 847.607 217.556 850.943 219.762C854.447 222.078 856.643 224.777 857.531 227.857C858.475 230.927 857.987 233.913 856.068 236.816L843.825 255.335L836.567 250.537L839.545 246.032L838.344 245.238L840.753 244.313C839.386 246.382 837.543 247.537 835.225 247.779C832.963 248.01 830.597 247.309 828.128 245.677ZM834.571 242.024C836.039 242.995 837.494 243.405 838.936 243.255C840.433 243.094 841.6 242.38 842.439 241.112L844.391 238.159L838.835 234.486C837.701 233.736 836.563 233.463 835.421 233.667C834.301 233.838 833.388 234.457 832.682 235.525C831.932 236.659 831.72 237.814 832.046 238.988C832.395 240.13 833.236 241.142 834.571 242.024ZM861.843 267.966C859.407 266.356 857.569 264.493 856.33 262.379C855.112 260.232 854.543 258.01 854.623 255.713C854.725 253.383 855.504 251.116 856.96 248.914L861.262 242.408C862.74 240.172 864.52 238.568 866.602 237.594C868.684 236.621 870.94 236.291 873.371 236.603C875.824 236.882 878.268 237.827 880.704 239.437C884.341 241.842 886.637 244.679 887.593 247.948C888.548 251.217 888.045 254.48 886.083 257.738L878.575 252.775C879.247 251.541 879.387 250.315 878.994 249.096C878.634 247.899 877.77 246.848 876.402 245.944C874.901 244.951 873.496 244.574 872.188 244.812C870.879 245.05 869.74 245.903 868.769 247.371L864.468 253.878C863.519 255.312 863.181 256.695 863.452 258.025C863.745 259.322 864.643 260.467 866.144 261.46C867.512 262.364 868.806 262.764 870.026 262.659C871.302 262.544 872.387 261.918 873.281 260.783L880.788 265.747C878.559 268.828 875.754 270.57 872.371 270.971C868.989 271.372 865.48 270.371 861.843 267.966ZM891.753 287.741C889.318 286.131 887.48 284.268 886.24 282.154C885.056 280.029 884.504 277.817 884.584 275.521C884.719 273.213 885.515 270.957 886.971 268.755L891.273 262.249C892.729 260.046 894.481 258.448 896.529 257.452C898.633 256.446 900.884 256.088 903.282 256.378C905.734 256.657 908.179 257.602 910.615 259.212C913.05 260.822 914.844 262.679 915.994 264.783C917.201 266.875 917.736 269.075 917.601 271.383C917.521 273.68 916.753 275.929 915.297 278.132L911.988 283.137L895.121 271.985L894.128 273.487C892.981 275.222 892.527 276.816 892.765 278.268C893.026 279.687 893.99 280.948 895.659 282.051C896.827 282.823 897.893 283.241 898.859 283.304C899.858 283.389 900.705 283.158 901.402 282.612L908.76 287.476C906.571 289.481 903.923 290.512 900.817 290.568C897.744 290.647 894.723 289.704 891.753 287.741ZM907.379 274.551L908.206 273.3C909.331 271.598 909.791 270.032 909.586 268.602C909.414 267.193 908.51 265.949 906.875 264.868C905.24 263.787 903.697 263.438 902.245 263.821C900.827 264.225 899.555 265.279 898.43 266.98L897.934 267.731L908.21 274.381L907.379 274.551Z" fill="#E5FF7B"/>
</g>
<path d="M770.509 218.583C768.24 217.083 766.486 215.421 765.248 213.595C764.031 211.736 763.359 209.852 763.229 207.945C763.133 206.059 763.648 204.265 764.773 202.563L772.28 207.527C771.751 208.328 771.671 209.21 772.041 210.174C772.466 211.126 773.246 211.978 774.381 212.728L776.583 214.184C777.951 215.088 779.151 215.522 780.182 215.484C781.247 215.469 782.078 215.011 782.673 214.11C783.225 213.276 783.327 212.432 782.98 211.58C782.654 210.693 781.88 209.726 780.655 208.676L777.717 206.158C774.567 203.452 772.616 200.964 771.864 198.692C771.112 196.421 771.574 194.017 773.25 191.481C775.015 188.812 777.301 187.35 780.106 187.095C782.912 186.84 786.084 187.882 789.62 190.22L791.522 191.478C794.892 193.706 797.093 196.215 798.125 199.007C799.156 201.799 798.855 204.429 797.223 206.899L789.715 201.935C790.157 201.268 790.176 200.513 789.773 199.672C789.426 198.819 788.719 198.039 787.651 197.333L785.749 196.076C784.514 195.26 783.47 194.881 782.616 194.94C781.784 194.965 781.092 195.395 780.541 196.229C780.034 196.997 779.898 197.746 780.134 198.477C780.403 199.231 781.049 200.066 782.074 200.983L785.229 203.716C788.413 206.444 790.408 209.01 791.216 211.415C792.058 213.841 791.629 216.339 789.93 218.908C788.077 221.711 785.687 223.223 782.759 223.446C779.831 223.668 776.482 222.532 772.711 220.039L770.509 218.583ZM784.334 239.951L808.489 203.414L815.747 208.212L812.272 213.468L814.024 214.626L811.114 215.219C812.68 212.85 814.544 211.445 816.706 211.004C818.89 210.53 821.116 211.043 823.385 212.543C826.155 214.374 827.723 216.825 828.09 219.897C828.478 222.935 827.592 226.089 825.43 229.359L820.797 236.366C819.364 238.535 817.722 240.183 815.874 241.311C814.081 242.427 812.203 242.984 810.239 242.98C808.298 242.943 806.392 242.307 804.524 241.072C802.255 239.572 800.9 237.741 800.459 235.579C800.04 233.384 800.614 231.102 802.18 228.733L802.774 231.643L801.022 230.485L796.805 237.407L791.841 244.915L784.334 239.951ZM806.123 232.778C807.524 233.705 808.846 234.027 810.087 233.745C811.384 233.451 812.507 232.587 813.455 231.152L817.757 224.646C818.728 223.178 819.083 221.806 818.823 220.531C818.596 219.279 817.782 218.189 816.381 217.263C815.013 216.358 813.68 216.053 812.383 216.346C811.108 216.606 809.997 217.453 809.048 218.888L804.747 225.395C803.798 226.83 803.443 228.201 803.681 229.509C803.941 230.784 804.755 231.874 806.123 232.778ZM828.128 256.677C825.359 254.846 823.653 252.639 823.011 250.057C822.402 247.497 822.947 244.932 824.645 242.362C826.476 239.593 828.828 238.103 831.7 237.892C834.628 237.67 837.894 238.75 841.498 241.133L847.204 244.905L848.56 242.853C849.266 241.785 849.445 240.681 849.097 239.539C848.782 238.42 847.99 237.441 846.722 236.603C845.555 235.831 844.41 235.458 843.29 235.485C842.17 235.511 841.217 235.936 840.433 236.76L833.175 231.962C835.307 229.391 837.953 228 841.114 227.788C844.33 227.565 847.607 228.556 850.943 230.762C854.447 233.079 856.643 235.777 857.531 238.858C858.475 241.927 857.987 244.914 856.068 247.816L843.825 266.335L836.567 261.537L839.545 257.033L838.344 256.238L840.754 255.314C839.386 257.383 837.543 258.538 835.225 258.78C832.963 259.01 830.597 258.31 828.128 256.677ZM834.571 253.025C836.039 253.995 837.494 254.406 838.936 254.256C840.433 254.095 841.6 253.38 842.439 252.112L844.391 249.159L838.835 245.486C837.701 244.736 836.563 244.463 835.421 244.667C834.301 244.838 833.388 245.457 832.682 246.525C831.932 247.66 831.72 248.814 832.046 249.989C832.395 251.13 833.236 252.142 834.571 253.025ZM861.843 278.967C859.407 277.356 857.569 275.494 856.33 273.38C855.112 271.232 854.543 269.01 854.623 266.713C854.725 264.383 855.504 262.117 856.96 259.915L861.262 253.408C862.74 251.173 864.52 249.568 866.602 248.595C868.684 247.622 870.94 247.291 873.371 247.604C875.824 247.883 878.268 248.828 880.704 250.438C884.341 252.842 886.637 255.679 887.593 258.948C888.548 262.217 888.045 265.481 886.083 268.739L878.575 263.776C879.247 262.542 879.387 261.315 878.994 260.096C878.634 258.9 877.77 257.849 876.402 256.944C874.901 255.952 873.496 255.574 872.188 255.812C870.88 256.05 869.74 256.904 868.77 258.372L864.468 264.878C863.519 266.313 863.181 267.696 863.452 269.026C863.745 270.323 864.643 271.467 866.144 272.46C867.513 273.365 868.807 273.765 870.026 273.66C871.302 273.544 872.387 272.919 873.281 271.784L880.789 276.747C878.559 279.829 875.754 281.57 872.372 281.972C868.989 282.373 865.48 281.371 861.843 278.967ZM891.754 298.742C889.318 297.131 887.48 295.269 886.24 293.155C885.056 291.029 884.504 288.818 884.584 286.521C884.719 284.213 885.515 281.958 886.971 279.756L891.273 273.249C892.729 271.047 894.481 269.448 896.53 268.453C898.634 267.446 900.884 267.088 903.282 267.379C905.735 267.658 908.179 268.602 910.615 270.213C913.051 271.823 914.844 273.68 915.995 275.783C917.201 277.876 917.736 280.076 917.601 282.384C917.521 284.681 916.753 286.93 915.297 289.132L911.988 294.137L895.121 282.986L894.128 284.488C892.981 286.223 892.527 287.816 892.765 289.269C893.026 290.688 893.991 291.949 895.659 293.052C896.827 293.824 897.893 294.241 898.859 294.304C899.858 294.389 900.705 294.159 901.402 293.612L908.76 298.476C906.571 300.482 903.923 301.513 900.817 301.569C897.744 301.647 894.723 300.705 891.754 298.742ZM907.379 285.552L908.206 284.3C909.331 282.599 909.791 281.033 909.586 279.602C909.414 278.194 908.511 276.949 906.876 275.868C905.241 274.787 903.697 274.438 902.245 274.821C900.827 275.226 899.555 276.279 898.43 277.981L897.934 278.732L908.21 285.382L907.379 285.552Z" fill="#E5FF7B"/>
<defs>
<filter id="filter0_f_111_7" x="0.247314" y="189.987" width="293.557" height="153.253" filterUnits="userSpaceOnUse" color-interpolation-filters="sRGB">
<feFlood flood-opacity="0" result="BackgroundImageFix"/>
<feBlend mode="normal" in="SourceGraphic" in2="BackgroundImageFix" result="shape"/>
<feGaussianBlur stdDeviation="20.5" result="effect1_foregroundBlur_111_7"/>
</filter>
<filter id="filter1_f_111_7" x="310.101" y="201.419" width="506.182" height="130.18" filterUnits="userSpaceOnUse" color-interpolation-filters="sRGB">
<feFlood flood-opacity="0" result="BackgroundImageFix"/>
<feBlend mode="normal" in="SourceGraphic" in2="BackgroundImageFix" result="shape"/>
<feGaussianBlur stdDeviation="20.5" result="effect1_foregroundBlur_111_7"/>
</filter>
<filter id="filter2_f_111_7" x="712.522" y="130.543" width="251.055" height="214.615" filterUnits="userSpaceOnUse" color-interpolation-filters="sRGB">
<feFlood flood-opacity="0" result="BackgroundImageFix"/>
<feBlend mode="normal" in="SourceGraphic" in2="BackgroundImageFix" result="shape"/>
<feGaussianBlur stdDeviation="20.5" result="effect1_foregroundBlur_111_7"/>
</filter>
</defs>
</svg>
