<svg width="366" height="260" viewBox="0 0 366 260" fill="none" xmlns="http://www.w3.org/2000/svg">
<path d="M272.485 235.711L272.166 228.826L260.436 217.055L262.861 216.011L270.512 223.92C270.817 224.225 271.132 224.579 271.459 224.983C271.796 225.36 272.064 225.68 272.264 225.942C272.229 225.609 272.177 225.185 272.108 224.67C272.039 224.156 271.99 223.687 271.96 223.264L271.265 212.393L273.607 211.385L274.799 234.715L272.485 235.711ZM290.175 222.51C288.999 223.017 287.881 223.226 286.82 223.138C285.759 223.051 284.803 222.678 283.954 222.02C283.105 221.363 282.427 220.446 281.921 219.27L280.118 215.082C279.604 213.888 279.404 212.765 279.518 211.715C279.624 210.646 280.009 209.696 280.675 208.865C281.341 208.034 282.261 207.365 283.437 206.859C284.613 206.353 285.731 206.144 286.792 206.231C287.853 206.319 288.809 206.692 289.658 207.349C290.499 207.989 291.173 208.896 291.679 210.072L293.494 214.288C294 215.464 294.2 216.586 294.094 217.655C293.988 218.724 293.603 219.674 292.937 220.505C292.271 221.336 291.351 222.004 290.175 222.51ZM289.333 220.554C290.472 220.064 291.215 219.363 291.563 218.451C291.911 217.539 291.82 216.468 291.29 215.237L289.487 211.049C288.957 209.818 288.232 209.019 287.312 208.653C286.411 208.279 285.4 208.333 284.279 208.816C283.159 209.298 282.415 209.999 282.049 210.919C281.701 211.831 281.792 212.902 282.322 214.133L284.125 218.321C284.655 219.552 285.371 220.354 286.272 220.728C287.192 221.095 288.212 221.036 289.333 220.554ZM304.978 221.723L304.124 219.739L308.726 217.758C309.589 217.386 310.136 216.911 310.366 216.333C310.615 215.747 310.561 215.041 310.205 214.214L309.446 212.451L308.267 209.561L307.771 209.775L308.022 208.916C308.512 210.055 308.527 211.126 308.067 212.13C307.606 213.134 306.742 213.909 305.475 214.454C303.931 215.119 302.492 215.139 301.157 214.516C299.814 213.875 298.775 212.7 298.04 210.992L296.652 207.768C295.916 206.06 295.781 204.506 296.246 203.109C296.711 201.711 297.716 200.68 299.259 200.015C300.526 199.47 301.683 199.375 302.729 199.73C303.766 200.067 304.531 200.805 305.021 201.944L304.252 201.524L304.693 201.334L303.483 198.523L305.632 197.598L312.382 213.277C312.983 214.673 313.036 215.935 312.542 217.062C312.074 218.2 311.086 219.093 309.58 219.742L304.978 221.723ZM305.29 212.28C306.374 211.814 307.076 211.119 307.398 210.197C307.73 209.248 307.639 208.177 307.125 206.983L305.82 203.952C305.306 202.758 304.594 201.965 303.685 201.572C302.786 201.153 301.795 201.177 300.711 201.644C299.609 202.118 298.897 202.817 298.575 203.739C298.254 204.661 298.354 205.729 298.876 206.941L300.181 209.972C300.703 211.185 301.409 211.991 302.3 212.391C303.191 212.792 304.188 212.755 305.29 212.28ZM322.046 208.823C320.448 209.511 319.016 209.648 317.75 209.235C316.475 208.804 315.537 207.89 314.936 206.494C314.343 205.116 314.327 203.839 314.887 202.661C315.439 201.466 316.477 200.54 318.002 199.883L322.824 197.807L322.136 196.209C321.701 195.199 321.071 194.545 320.246 194.247C319.421 193.949 318.467 194.033 317.383 194.499C316.428 194.911 315.719 195.466 315.258 196.165C314.816 196.857 314.703 197.58 314.919 198.336L312.715 199.285C312.337 197.902 312.496 196.603 313.193 195.389C313.908 194.166 315.046 193.219 316.608 192.547C318.298 191.819 319.836 191.701 321.224 192.193C322.603 192.666 323.625 193.674 324.289 195.217L328.762 205.605L326.612 206.53L325.343 203.582L324.985 203.736L325.208 203.117C325.691 204.238 325.643 205.315 325.064 206.348C324.485 207.381 323.479 208.206 322.046 208.823ZM321.811 206.834C323.023 206.312 323.885 205.582 324.395 204.643C324.906 203.705 324.952 202.749 324.533 201.775L323.548 199.488L318.753 201.552C317.89 201.924 317.304 202.459 316.995 203.158C316.686 203.857 316.71 204.62 317.066 205.447C317.445 206.329 318.062 206.901 318.916 207.165C319.762 207.411 320.727 207.3 321.811 206.834Z" fill="white"/>
<g filter="url(#filter0_f_436_435)">
<path d="M48.4145 208.389L49.9876 191.964L54.3178 192.378L54.0175 195.514L55.3315 195.64L53.9174 196.559C54.0509 195.166 54.5539 194.109 55.4265 193.389C56.2992 192.669 57.4124 192.373 58.7662 192.503C60.3589 192.656 61.5797 193.335 62.4285 194.542C63.2973 195.75 63.643 197.28 63.4657 199.131L62.4503 209.733L57.9708 209.304L58.9433 199.15C59.0252 198.294 58.8592 197.615 58.4452 197.114C58.0529 196.594 57.4487 196.295 56.6324 196.217C55.8361 196.14 55.196 196.32 54.7123 196.756C54.2304 197.172 53.9485 197.808 53.8665 198.664L52.894 208.818L48.4145 208.389ZM73.3101 211.074C71.8568 210.935 70.6084 210.544 69.5648 209.902C68.5432 209.242 67.7804 208.395 67.2766 207.362C66.7945 206.311 66.6165 205.129 66.7423 203.815L67.1141 199.933C67.24 198.619 67.6383 197.502 68.3091 196.582C69.0017 195.643 69.9113 194.957 71.0379 194.522C72.1862 194.07 73.4871 193.913 74.9405 194.052C76.3938 194.191 77.6214 194.59 78.6232 195.249C79.6468 195.889 80.3996 196.735 80.8816 197.786C81.3854 198.818 81.5744 199.992 81.4485 201.306L81.1625 204.292L71.0986 203.328L71.0128 204.224C70.9136 205.259 71.0872 206.07 71.5334 206.655C71.9815 207.22 72.7033 207.55 73.6988 207.646C74.3956 207.713 74.9645 207.646 75.4055 207.448C75.8663 207.251 76.1865 206.95 76.3659 206.545L80.7558 206.966C80.2601 208.365 79.3333 209.441 77.9752 210.195C76.637 210.951 75.082 211.244 73.3101 211.074ZM77.1123 201.584L77.1838 200.837C77.2811 199.822 77.1165 199.022 76.6902 198.439C76.2838 197.858 75.5928 197.52 74.6173 197.427C73.6417 197.333 72.8784 197.542 72.3273 198.051C71.7961 198.563 71.4818 199.327 71.3846 200.342L71.3417 200.79L77.4395 201.314L77.1123 201.584ZM91.1866 212.787C88.9767 212.575 87.3019 211.812 86.162 210.497C85.0421 209.184 84.5812 207.493 84.7795 205.422L85.7406 195.388L90.2201 195.817L89.2619 205.821C89.1742 206.737 89.3255 207.465 89.7158 208.005C90.1081 208.524 90.7223 208.824 91.5584 208.904C92.3747 208.982 93.0247 208.804 93.5085 208.368C94.014 207.914 94.3107 207.229 94.3984 206.313L95.3566 196.309L99.8361 196.738L98.875 206.772C98.6748 208.863 97.8904 210.445 96.5217 211.519C95.155 212.574 93.3766 212.996 91.1866 212.787ZM102.611 213.579L104.184 197.155L108.365 197.555L108.065 200.691L109.2 200.799L107.733 202.588C107.902 200.816 108.438 199.521 109.34 198.703C110.242 197.885 111.48 197.552 113.053 197.703C114.864 197.876 116.215 198.558 117.106 199.748C118.017 200.941 118.376 202.532 118.186 204.523L118.057 205.867L113.279 205.409L113.379 204.364C113.465 203.468 113.283 202.747 112.833 202.202C112.402 201.659 111.779 201.348 110.963 201.27C110.107 201.188 109.426 201.373 108.921 201.827C108.435 202.283 108.149 202.959 108.063 203.855L107.091 214.008L102.611 213.579ZM126.999 216.217C125.546 216.077 124.307 215.688 123.284 215.047C122.262 214.387 121.499 213.54 120.996 212.507C120.514 211.457 120.335 210.274 120.461 208.96L120.833 205.078C120.959 203.764 121.357 202.647 122.028 201.727C122.721 200.788 123.63 200.102 124.757 199.667C125.885 199.213 127.176 199.055 128.63 199.194C130.103 199.336 131.34 199.735 132.342 200.394C133.366 201.034 134.119 201.88 134.601 202.931C135.104 203.963 135.293 205.137 135.168 206.451L134.796 210.333C134.67 211.647 134.261 212.773 133.568 213.711C132.897 214.632 131.998 215.319 130.869 215.773C129.763 216.21 128.473 216.358 126.999 216.217ZM127.371 212.334C128.247 212.418 128.936 212.253 129.438 211.839C129.941 211.405 130.234 210.76 130.316 209.904L130.688 206.022C130.772 205.146 130.607 204.457 130.193 203.955C129.779 203.453 129.134 203.161 128.258 203.077C127.402 202.995 126.713 203.16 126.191 203.572C125.689 203.986 125.397 204.631 125.313 205.507L124.941 209.389C124.859 210.245 125.024 210.934 125.436 211.456C125.87 211.959 126.515 212.252 127.371 212.334ZM144.219 217.866C142.865 217.736 141.7 217.414 140.725 216.898C139.752 216.363 139.013 215.69 138.508 214.878C138.023 214.068 137.829 213.155 137.926 212.14L142.406 212.569C142.36 213.047 142.532 213.455 142.921 213.794C143.332 214.114 143.877 214.307 144.553 214.372L145.867 214.498C146.684 214.576 147.315 214.486 147.762 214.227C148.228 213.97 148.487 213.573 148.539 213.036C148.587 212.538 148.434 212.142 148.08 211.847C147.729 211.532 147.159 211.286 146.373 211.11L144.484 210.688C142.458 210.233 141.013 209.592 140.148 208.766C139.283 207.94 138.922 206.77 139.067 205.257C139.22 203.665 139.886 202.483 141.065 201.711C142.243 200.94 143.888 200.656 145.998 200.858L147.133 200.967C149.144 201.159 150.705 201.751 151.815 202.741C152.926 203.732 153.411 204.963 153.27 206.437L148.79 206.008C148.828 205.609 148.66 205.272 148.284 204.995C147.931 204.7 147.436 204.522 146.799 204.461L145.664 204.352C144.927 204.281 144.377 204.359 144.014 204.586C143.653 204.792 143.448 205.144 143.4 205.642C143.357 206.1 143.473 206.463 143.748 206.73C144.044 207 144.525 207.217 145.193 207.381L147.228 207.847C149.273 208.304 150.757 208.969 151.678 209.84C152.619 210.714 153.016 211.917 152.869 213.45C152.709 215.123 152.009 216.352 150.768 217.137C149.528 217.922 147.782 218.207 145.533 217.992L144.219 217.866ZM162.902 219.655C161.448 219.516 160.2 219.125 159.156 218.483C158.115 217.82 157.342 216.973 156.838 215.94C156.336 214.888 156.148 213.704 156.274 212.39L156.646 208.508C156.774 207.174 157.183 206.048 157.874 205.13C158.564 204.211 159.483 203.536 160.629 203.103C161.778 202.651 163.079 202.494 164.532 202.633C166.702 202.841 168.382 203.554 169.571 204.773C170.76 205.992 171.304 207.551 171.202 209.45L166.723 209.021C166.73 208.319 166.504 207.744 166.044 207.298C165.604 206.855 164.976 206.593 164.16 206.515C163.264 206.429 162.555 206.593 162.034 207.005C161.512 207.417 161.209 208.061 161.125 208.937L160.754 212.819C160.672 213.675 160.847 214.365 161.279 214.889C161.713 215.392 162.377 215.687 163.273 215.773C164.09 215.851 164.755 215.724 165.269 215.391C165.805 215.041 166.137 214.51 166.265 213.799L170.745 214.228C170.484 216.112 169.654 217.539 168.255 218.51C166.856 219.481 165.072 219.863 162.902 219.655ZM173.878 220.405L174.267 216.344L179.941 216.887L180.739 208.555L175.812 208.083L176.198 204.052L185.306 204.924L184.122 217.288L188.9 217.745L188.511 221.807L173.878 220.405ZM183.166 202.097C182.35 202.019 181.713 201.747 181.255 201.281C180.817 200.817 180.633 200.227 180.702 199.51C180.77 198.794 181.063 198.249 181.581 197.877C182.119 197.506 182.796 197.36 183.612 197.439C184.429 197.517 185.056 197.788 185.493 198.252C185.951 198.717 186.146 199.309 186.077 200.025C186.008 200.742 185.705 201.286 185.167 201.656C184.649 202.028 183.982 202.175 183.166 202.097ZM198.655 223.079C197.201 222.94 195.953 222.549 194.909 221.907C193.888 221.247 193.125 220.4 192.621 219.367C192.139 218.317 191.961 217.134 192.087 215.82L192.459 211.938C192.584 210.624 192.983 209.507 193.653 208.587C194.346 207.648 195.256 206.962 196.382 206.527C197.531 206.075 198.831 205.918 200.285 206.057C201.738 206.197 202.966 206.595 203.968 207.254C204.991 207.894 205.744 208.74 206.226 209.791C206.73 210.824 206.919 211.997 206.793 213.311L206.507 216.297L196.443 215.333L196.357 216.229C196.258 217.265 196.432 218.075 196.878 218.66C197.326 219.225 198.048 219.556 199.043 219.651C199.74 219.718 200.309 219.652 200.75 219.453C201.211 219.256 201.531 218.955 201.71 218.55L206.1 218.971C205.605 220.37 204.678 221.446 203.32 222.2C201.981 222.956 200.426 223.249 198.655 223.079ZM202.457 213.589L202.528 212.842C202.625 211.827 202.461 211.027 202.035 210.444C201.628 209.863 200.937 209.525 199.962 209.432C198.986 209.339 198.223 209.547 197.672 210.056C197.14 210.568 196.826 211.332 196.729 212.347L196.686 212.795L202.784 213.319L202.457 213.589ZM209.572 223.824L211.145 207.399L215.475 207.814L215.175 210.949L216.489 211.075L215.074 211.994C215.208 210.601 215.711 209.544 216.584 208.824C217.456 208.104 218.569 207.809 219.923 207.938C221.516 208.091 222.737 208.77 223.586 209.977C224.454 211.185 224.8 212.715 224.623 214.567L223.607 225.168L219.128 224.739L220.1 214.585C220.182 213.729 220.016 213.05 219.602 212.549C219.21 212.029 218.606 211.73 217.789 211.652C216.993 211.576 216.353 211.755 215.869 212.191C215.387 212.607 215.106 213.243 215.024 214.099L214.051 224.253L209.572 223.824ZM234.527 226.515C233.074 226.376 231.825 225.985 230.782 225.343C229.74 224.68 228.967 223.833 228.463 222.8C227.962 221.748 227.774 220.564 227.899 219.25L228.271 215.368C228.399 214.034 228.808 212.908 229.499 211.99C230.19 211.071 231.108 210.396 232.255 209.963C233.403 209.511 234.704 209.354 236.157 209.493C238.327 209.701 240.007 210.414 241.196 211.633C242.385 212.852 242.929 214.411 242.828 216.31L238.348 215.881C238.355 215.179 238.129 214.604 237.669 214.159C237.23 213.715 236.602 213.454 235.785 213.375C234.89 213.29 234.181 213.453 233.659 213.865C233.137 214.277 232.835 214.921 232.751 215.797L232.379 219.679C232.297 220.535 232.472 221.225 232.904 221.749C233.338 222.252 234.003 222.547 234.899 222.633C235.715 222.711 236.38 222.584 236.894 222.252C237.43 221.901 237.762 221.37 237.891 220.659L242.37 221.088C242.109 222.972 241.279 224.399 239.88 225.37C238.481 226.341 236.697 226.723 234.527 226.515ZM252.374 228.225C250.92 228.085 249.672 227.695 248.628 227.052C247.607 226.392 246.844 225.545 246.34 224.512C245.858 223.462 245.68 222.279 245.806 220.965L246.178 217.083C246.303 215.769 246.702 214.652 247.373 213.732C248.065 212.793 248.975 212.107 250.101 211.672C251.25 211.22 252.551 211.063 254.004 211.202C255.457 211.342 256.685 211.74 257.687 212.399C258.71 213.04 259.463 213.885 259.945 214.936C260.449 215.969 260.638 217.142 260.512 218.456L260.226 221.442L250.162 220.478L250.076 221.374C249.977 222.41 250.151 223.22 250.597 223.805C251.045 224.37 251.767 224.701 252.762 224.796C253.459 224.863 254.028 224.797 254.469 224.598C254.93 224.401 255.25 224.1 255.429 223.695L259.819 224.116C259.324 225.515 258.397 226.591 257.039 227.345C255.7 228.101 254.145 228.394 252.374 228.225ZM256.176 218.734L256.247 217.987C256.344 216.972 256.18 216.173 255.754 215.589C255.347 215.008 254.656 214.67 253.681 214.577C252.705 214.484 251.942 214.692 251.391 215.202C250.859 215.713 250.545 216.477 250.448 217.492L250.405 217.94L256.503 218.464L256.176 218.734Z" fill="#E5FF7B"/>
</g>
<path d="M49.4756 203.171L51.8692 186.846L56.1732 187.477L55.7162 190.593L57.0223 190.785L55.5639 191.632C55.767 190.247 56.3223 189.217 57.2299 188.541C58.1375 187.866 59.2641 187.627 60.6097 187.824C62.1928 188.056 63.378 188.796 64.1654 190.043C64.9726 191.293 65.2412 192.839 64.9714 194.679L63.4264 205.216L58.974 204.564L60.4537 194.472C60.5785 193.621 60.4466 192.934 60.0582 192.412C59.6925 191.874 59.104 191.545 58.2927 191.426C57.5012 191.31 56.8529 191.457 56.3479 191.868C55.8458 192.26 55.5324 192.881 55.4077 193.732L53.9279 203.824L49.4756 203.171ZM74.2054 207.1C72.7609 206.888 71.5336 206.435 70.5236 205.742C69.5362 205.031 68.8168 204.147 68.3653 203.09C67.9365 202.017 67.8179 200.827 68.0094 199.521L68.5752 195.662C68.7667 194.356 69.2204 193.261 69.9364 192.375C70.6752 191.473 71.618 190.833 72.7649 190.455C73.9345 190.061 75.2416 189.969 76.6861 190.181C78.1307 190.393 79.3367 190.853 80.3043 191.56C81.2945 192.251 82.004 193.134 82.4328 194.207C82.8843 195.264 83.0143 196.445 82.8228 197.751L82.3876 200.72L72.3846 199.253L72.254 200.143C72.1031 201.172 72.2359 201.99 72.6523 202.597C73.0715 203.184 73.7759 203.55 74.7653 203.695C75.4579 203.797 76.0294 203.759 76.4798 203.583C76.9499 203.409 77.2847 203.125 77.4842 202.73L81.8475 203.369C81.2824 204.742 80.3028 205.771 78.9087 206.456C77.5344 207.143 75.9666 207.358 74.2054 207.1ZM78.4781 197.812L78.5869 197.07C78.7349 196.06 78.6106 195.254 78.214 194.65C77.8372 194.049 77.164 193.677 76.1944 193.535C75.2247 193.393 74.4519 193.563 73.876 194.044C73.3198 194.529 72.9677 195.275 72.8198 196.285L72.7545 196.73L78.8185 197.558L78.4781 197.812ZM91.9738 209.705C89.7772 209.383 88.1427 208.537 87.0701 207.167C86.0173 205.8 85.6418 204.087 85.9435 202.029L87.4058 192.056L91.8582 192.709L90.4003 202.652C90.2668 203.563 90.3815 204.297 90.7443 204.856C91.11 205.394 91.7084 205.725 92.5395 205.847C93.3509 205.966 94.009 205.819 94.514 205.408C95.0417 204.98 95.3722 204.311 95.5057 203.401L96.9636 193.457L101.416 194.11L99.9537 204.083C99.6491 206.161 98.7864 207.702 97.3656 208.707C95.9478 209.692 94.1505 210.024 91.9738 209.705ZM103.344 211.069L105.738 194.744L109.894 195.353L109.437 198.47L110.565 198.635L109.01 200.348C109.268 198.587 109.868 197.32 110.81 196.549C111.752 195.777 113.004 195.506 114.568 195.735C116.368 195.999 117.684 196.748 118.514 197.981C119.363 199.218 119.643 200.825 119.353 202.804L119.157 204.14L114.408 203.444L114.56 202.405C114.691 201.514 114.545 200.785 114.123 200.218C113.72 199.654 113.113 199.312 112.302 199.193C111.451 199.068 110.762 199.22 110.234 199.648C109.726 200.079 109.407 200.74 109.277 201.63L107.797 211.722L103.344 211.069ZM127.57 214.924C126.125 214.713 124.908 214.261 123.918 213.57C122.93 212.86 122.211 211.976 121.759 210.919C121.331 209.846 121.212 208.656 121.403 207.35L121.969 203.491C122.161 202.185 122.614 201.089 123.33 200.204C124.069 199.301 125.012 198.661 126.159 198.284C127.309 197.886 128.606 197.794 130.05 198.005C131.515 198.22 132.731 198.681 133.698 199.389C134.689 200.08 135.398 200.962 135.827 202.036C136.278 203.093 136.408 204.274 136.217 205.58L135.651 209.439C135.46 210.745 134.994 211.849 134.256 212.751C133.54 213.637 132.607 214.278 131.457 214.676C130.33 215.056 129.034 215.139 127.57 214.924ZM128.136 211.066C129.006 211.193 129.702 211.063 130.224 210.675C130.749 210.266 131.074 209.637 131.199 208.786L131.764 204.927C131.892 204.056 131.762 203.36 131.373 202.838C130.985 202.316 130.355 201.992 129.485 201.864C128.634 201.739 127.937 201.87 127.396 202.255C126.874 202.644 126.549 203.273 126.422 204.144L125.856 208.003C125.731 208.853 125.861 209.55 126.247 210.091C126.655 210.616 127.285 210.941 128.136 211.066ZM144.685 217.434C143.339 217.237 142.192 216.856 141.244 216.293C140.299 215.709 139.594 215 139.131 214.164C138.687 213.33 138.539 212.409 138.687 211.4L143.139 212.053C143.07 212.528 143.221 212.944 143.593 213.302C143.988 213.643 144.521 213.862 145.194 213.961L146.5 214.153C147.312 214.271 147.947 214.213 148.406 213.977C148.885 213.744 149.163 213.36 149.242 212.826C149.314 212.331 149.181 211.928 148.843 211.616C148.508 211.283 147.952 211.01 147.174 210.795L145.31 210.279C143.309 209.723 141.898 209.01 141.075 208.142C140.252 207.273 139.951 206.087 140.172 204.583C140.404 203 141.128 201.853 142.344 201.142C143.56 200.431 145.217 200.229 147.314 200.537L148.442 200.702C150.441 200.995 151.97 201.664 153.029 202.709C154.089 203.753 154.512 205.008 154.297 206.472L149.845 205.819C149.903 205.424 149.751 205.078 149.39 204.783C149.052 204.47 148.566 204.268 147.933 204.175L146.805 204.009C146.073 203.902 145.52 203.952 145.146 204.16C144.774 204.348 144.552 204.69 144.48 205.185C144.413 205.64 144.511 206.008 144.773 206.289C145.055 206.573 145.525 206.813 146.183 207.011L148.192 207.578C150.212 208.137 151.66 208.875 152.537 209.792C153.433 210.712 153.769 211.934 153.546 213.457C153.302 215.119 152.541 216.312 151.263 217.034C149.984 217.756 148.227 217.953 145.991 217.625L144.685 217.434ZM163.255 220.157C161.81 219.945 160.583 219.492 159.573 218.798C158.566 218.084 157.836 217.199 157.385 216.143C156.936 215.066 156.808 213.875 156.999 212.569L157.565 208.71C157.76 207.384 158.225 206.28 158.96 205.397C159.696 204.515 160.648 203.886 161.814 203.512C162.984 203.117 164.291 203.026 165.735 203.237C167.892 203.554 169.534 204.35 170.661 205.627C171.788 206.904 172.253 208.488 172.056 210.38L167.604 209.727C167.646 209.026 167.449 208.441 167.012 207.973C166.595 207.507 165.981 207.215 165.17 207.096C164.279 206.966 163.563 207.093 163.021 207.479C162.48 207.864 162.145 208.492 162.018 209.363L161.452 213.222C161.327 214.073 161.467 214.77 161.873 215.315C162.281 215.84 162.93 216.167 163.821 216.298C164.632 216.417 165.303 216.323 165.833 216.017C166.385 215.694 166.744 215.18 166.907 214.476L171.36 215.129C171.005 216.998 170.105 218.382 168.659 219.281C167.213 220.181 165.412 220.473 163.255 220.157ZM174.18 221.455L174.772 217.418L180.412 218.245L181.626 209.964L176.728 209.246L177.316 205.239L186.369 206.566L184.567 218.855L189.317 219.551L188.725 223.588L174.18 221.455ZM184.373 203.635C183.562 203.517 182.939 203.213 182.506 202.725C182.092 202.24 181.937 201.641 182.041 200.929C182.146 200.216 182.466 199.687 183.002 199.341C183.557 198.998 184.241 198.886 185.052 199.005C185.863 199.124 186.476 199.426 186.89 199.911C187.324 200.399 187.489 201 187.384 201.712C187.28 202.424 186.95 202.952 186.394 203.295C185.858 203.641 185.184 203.754 184.373 203.635ZM198.791 225.367C197.347 225.155 196.12 224.702 195.11 224.009C194.122 223.298 193.403 222.414 192.951 221.357C192.522 220.284 192.404 219.094 192.595 217.788L193.161 213.929C193.353 212.623 193.806 211.527 194.522 210.642C195.261 209.74 196.204 209.1 197.351 208.722C198.52 208.327 199.828 208.236 201.272 208.448C202.717 208.66 203.923 209.12 204.89 209.827C205.88 210.518 206.59 211.401 207.019 212.474C207.47 213.531 207.6 214.712 207.409 216.018L206.974 218.986L196.971 217.52L196.84 218.41C196.689 219.439 196.822 220.257 197.238 220.864C197.657 221.451 198.362 221.817 199.351 221.962C200.044 222.064 200.615 222.026 201.066 221.85C201.536 221.676 201.871 221.392 202.07 220.996L206.433 221.636C205.868 223.009 204.889 224.037 203.495 224.722C202.12 225.41 200.553 225.625 198.791 225.367ZM203.064 216.079L203.173 215.337C203.321 214.327 203.197 213.521 202.8 212.917C202.423 212.316 201.75 211.944 200.78 211.802C199.811 211.66 199.038 211.83 198.462 212.311C197.906 212.796 197.554 213.542 197.406 214.552L197.34 214.997L203.404 215.825L203.064 216.079ZM209.657 226.657L212.051 210.332L216.355 210.963L215.898 214.079L217.204 214.271L215.746 215.118C215.949 213.733 216.504 212.703 217.412 212.027C218.319 211.352 219.446 211.113 220.792 211.31C222.375 211.542 223.56 212.282 224.347 213.529C225.154 214.779 225.423 216.325 225.153 218.165L223.608 228.702L219.156 228.05L220.636 217.958C220.76 217.107 220.629 216.42 220.24 215.898C219.874 215.36 219.286 215.031 218.475 214.912C217.683 214.796 217.035 214.943 216.53 215.354C216.028 215.746 215.714 216.367 215.59 217.218L214.11 227.31L209.657 226.657ZM234.447 230.595C233.002 230.383 231.775 229.93 230.765 229.236C229.758 228.523 229.028 227.638 228.577 226.581C228.128 225.504 228 224.313 228.191 223.007L228.757 219.148C228.951 217.823 229.417 216.718 230.152 215.836C230.888 214.953 231.839 214.324 233.006 213.95C234.176 213.555 235.483 213.464 236.927 213.676C239.084 213.992 240.726 214.789 241.853 216.066C242.98 217.342 243.445 218.927 243.248 220.818L238.796 220.165C238.838 219.464 238.641 218.879 238.204 218.411C237.787 217.946 237.173 217.653 236.362 217.534C235.471 217.404 234.755 217.531 234.213 217.917C233.672 218.302 233.337 218.93 233.209 219.801L232.644 223.66C232.519 224.511 232.659 225.209 233.065 225.753C233.473 226.278 234.122 226.606 235.013 226.736C235.824 226.855 236.495 226.761 237.025 226.455C237.577 226.132 237.936 225.618 238.099 224.915L242.552 225.567C242.197 227.436 241.297 228.82 239.851 229.72C238.405 230.619 236.604 230.911 234.447 230.595ZM252.185 233.196C250.741 232.984 249.514 232.531 248.503 231.837C247.516 231.126 246.797 230.243 246.345 229.186C245.916 228.112 245.798 226.923 245.989 225.617L246.555 221.758C246.747 220.452 247.2 219.356 247.916 218.471C248.655 217.568 249.598 216.928 250.745 216.551C251.914 216.156 253.222 216.065 254.666 216.277C256.111 216.488 257.317 216.948 258.284 217.656C259.274 218.347 259.984 219.229 260.413 220.303C260.864 221.36 260.994 222.541 260.803 223.847L260.368 226.815L250.364 225.349L250.234 226.239C250.083 227.268 250.216 228.086 250.632 228.693C251.051 229.28 251.756 229.646 252.745 229.791C253.438 229.892 254.009 229.855 254.46 229.678C254.93 229.505 255.265 229.22 255.464 228.825L259.827 229.465C259.262 230.837 258.283 231.866 256.889 232.551C255.514 233.239 253.947 233.454 252.185 233.196ZM256.458 223.907L256.567 223.165C256.715 222.156 256.59 221.349 256.194 220.745C255.817 220.144 255.144 219.773 254.174 219.631C253.205 219.489 252.432 219.658 251.856 220.14C251.3 220.624 250.948 221.371 250.8 222.38L250.734 222.825L256.798 223.654L256.458 223.907Z" fill="#E5FF7B"/>
<g filter="url(#filter1_f_436_435)">
<path d="M92.0586 156.589C90.6015 156.68 89.3071 156.49 88.1756 156.02C87.0428 155.53 86.1465 154.814 85.4866 153.874C84.8254 152.913 84.4537 151.774 84.3714 150.456L84.1282 146.564C84.0447 145.227 84.2718 144.05 84.8096 143.035C85.3473 142.019 86.1483 141.208 87.2125 140.6C88.2754 139.973 89.5355 139.613 90.9926 139.522C93.1684 139.387 94.9393 139.827 96.3053 140.844C97.6714 141.861 98.4535 143.315 98.6518 145.206L94.1606 145.487C94.0571 144.792 93.7433 144.26 93.2194 143.892C92.7154 143.523 92.0542 143.364 91.2357 143.415C90.3375 143.471 89.6632 143.743 89.2128 144.233C88.7624 144.722 88.5646 145.405 88.6195 146.284L88.8626 150.176C88.9162 151.034 89.1975 151.688 89.7065 152.137C90.2143 152.566 90.9173 152.753 91.8155 152.697C92.6339 152.646 93.2708 152.415 93.7262 152.006C94.2003 151.576 94.4448 151 94.4598 150.277L98.9511 149.997C98.9897 151.898 98.3945 153.438 97.1656 154.617C95.9367 155.796 94.2344 156.453 92.0586 156.589ZM109.922 155.473C108.465 155.564 107.181 155.374 106.069 154.902C104.956 154.411 104.07 153.695 103.41 152.754C102.769 151.792 102.407 150.652 102.325 149.335L102.082 145.443C101.999 144.125 102.217 142.959 102.735 141.945C103.271 140.91 104.062 140.089 105.106 139.483C106.149 138.856 107.399 138.498 108.856 138.407C110.333 138.314 111.618 138.515 112.711 139.007C113.823 139.479 114.699 140.196 115.34 141.158C116 142.098 116.371 143.228 116.454 144.545L116.697 148.437C116.779 149.755 116.552 150.931 116.015 151.967C115.498 152.981 114.717 153.801 113.674 154.427C112.65 155.032 111.399 155.381 109.922 155.473ZM109.679 151.581C110.557 151.526 111.212 151.255 111.642 150.767C112.071 150.259 112.259 149.576 112.205 148.718L111.962 144.825C111.907 143.947 111.636 143.293 111.148 142.862C110.661 142.432 109.978 142.244 109.099 142.299C108.241 142.353 107.587 142.624 107.136 143.113C106.706 143.601 106.518 144.284 106.573 145.162L106.816 149.055C106.87 149.913 107.141 150.567 107.63 151.018C108.138 151.447 108.821 151.635 109.679 151.581ZM126.169 154.459C124.512 154.562 123.148 154.066 122.078 152.971C121.008 151.875 120.411 150.34 120.287 148.363L120.025 144.172C119.903 142.215 120.305 140.627 121.231 139.407C122.155 138.167 123.446 137.495 125.103 137.392C126.46 137.307 127.553 137.64 128.381 138.389C129.208 139.119 129.666 140.193 129.755 141.61L128.641 140.628L129.689 140.562L129.287 136.529L129.007 132.038L133.498 131.758L134.863 153.615L130.521 153.886L130.325 150.742L129.277 150.808L130.26 149.694C130.348 151.112 130.028 152.244 129.3 153.091C128.57 153.918 127.526 154.374 126.169 154.459ZM127.542 150.465C128.361 150.414 128.985 150.145 129.416 149.657C129.845 149.149 130.033 148.466 129.979 147.608L129.736 143.715C129.682 142.857 129.412 142.213 128.924 141.782C128.435 141.332 127.781 141.132 126.963 141.183C126.124 141.236 125.491 141.516 125.061 142.023C124.651 142.51 124.472 143.182 124.526 144.041L124.769 147.933C124.823 148.791 125.084 149.446 125.553 149.898C126.041 150.329 126.704 150.518 127.542 150.465ZM138.923 153.361L138.669 149.289L144.358 148.934L143.836 140.58L138.896 140.889L138.643 136.847L147.776 136.276L148.55 148.672L153.34 148.373L153.595 152.445L138.923 153.361ZM145.218 133.821C144.399 133.872 143.727 133.704 143.202 133.316C142.697 132.926 142.422 132.372 142.377 131.654C142.332 130.935 142.536 130.351 142.989 129.902C143.462 129.452 144.107 129.201 144.926 129.15C145.744 129.099 146.406 129.268 146.911 129.657C147.436 130.045 147.722 130.599 147.766 131.317C147.811 132.036 147.597 132.62 147.124 133.071C146.672 133.52 146.036 133.77 145.218 133.821ZM156.757 152.247L155.728 135.78L160.07 135.508L160.266 138.652L161.584 138.57L160.332 139.7C160.244 138.303 160.575 137.18 161.324 136.332C162.072 135.484 163.125 135.017 164.483 134.932C166.079 134.832 167.392 135.312 168.42 136.37C169.468 137.426 170.05 138.883 170.166 140.739L170.83 151.368L166.338 151.649L165.702 141.469C165.649 140.611 165.378 139.966 164.89 139.536C164.421 139.084 163.778 138.884 162.959 138.935C162.161 138.985 161.557 139.263 161.148 139.769C160.737 140.256 160.559 140.928 160.612 141.787L161.248 151.967L156.757 152.247ZM177.412 156.368L177.188 152.775L181.829 152.485C182.667 152.433 183.293 152.183 183.706 151.736C184.139 151.289 184.332 150.695 184.286 149.957L184.247 149.328L184.11 146.18L183.062 146.246L184.045 145.133C184.133 146.55 183.813 147.682 183.085 148.529C182.355 149.356 181.311 149.812 179.954 149.897C178.297 150 176.933 149.504 175.863 148.409C174.793 147.314 174.196 145.778 174.072 143.802L173.885 140.807C173.763 138.851 174.165 137.263 175.091 136.043C176.015 134.803 177.306 134.131 178.963 134.028C180.32 133.943 181.413 134.275 182.241 135.025C183.068 135.755 183.526 136.829 183.615 138.246L182.501 137.263L183.549 137.198L183.203 134.063L187.694 133.783L188.697 149.832C188.809 151.628 188.279 153.084 187.106 154.199C185.953 155.313 184.319 155.936 182.203 156.069L177.412 156.368ZM181.328 145.903C182.146 145.852 182.77 145.583 183.201 145.095C183.63 144.587 183.818 143.904 183.764 143.046L183.596 140.351C183.542 139.493 183.272 138.849 182.784 138.418C182.295 137.968 181.641 137.768 180.823 137.819C179.984 137.872 179.35 138.152 178.921 138.659C178.511 139.146 178.332 139.818 178.386 140.677L178.554 143.371C178.608 144.23 178.869 144.885 179.338 145.336C179.826 145.767 180.489 145.956 181.328 145.903Z" fill="#E5FF7B"/>
</g>
<path d="M91.6788 157.358C90.2238 157.479 88.9259 157.316 87.785 156.868C86.6426 156.401 85.7319 155.704 85.053 154.777C84.3725 153.83 83.9777 152.698 83.8687 151.383L83.5466 147.496C83.4359 146.161 83.6391 144.98 84.1561 143.954C84.6732 142.928 85.4575 142.1 86.5091 141.471C87.5591 140.822 88.8116 140.437 90.2667 140.317C92.4392 140.137 94.2187 140.541 95.6051 141.53C96.9915 142.519 97.803 143.957 98.0396 145.844L93.555 146.215C93.4374 145.523 93.1129 144.998 92.5816 144.64C92.0702 144.281 91.4059 144.136 90.5887 144.203C89.6918 144.278 89.0232 144.564 88.5828 145.062C88.1424 145.56 87.9586 146.248 88.0312 147.125L88.3533 151.011C88.4243 151.868 88.7188 152.516 89.2368 152.955C89.7532 153.374 90.4598 153.546 91.3567 153.472C92.1739 153.404 92.806 153.161 93.253 152.743C93.7183 152.303 93.9511 151.721 93.9514 150.999L98.436 150.627C98.5132 152.527 97.9494 154.079 96.7447 155.283C95.54 156.487 93.8514 157.178 91.6788 157.358ZM109.516 155.88C108.061 156.001 106.773 155.837 105.652 155.388C104.53 154.919 103.629 154.221 102.95 153.294C102.289 152.345 101.905 151.213 101.796 149.897L101.473 146.011C101.364 144.695 101.558 143.525 102.056 142.501C102.571 141.455 103.344 140.618 104.376 139.99C105.406 139.343 106.649 138.959 108.104 138.839C109.579 138.716 110.868 138.891 111.97 139.361C113.091 139.81 113.982 140.509 114.642 141.458C115.321 142.385 115.715 143.506 115.824 144.822L116.146 148.708C116.255 150.024 116.052 151.205 115.537 152.251C115.04 153.275 114.276 154.111 113.246 154.758C112.234 155.384 110.991 155.758 109.516 155.88ZM109.194 151.994C110.071 151.921 110.72 151.636 111.14 151.14C111.559 150.624 111.733 149.937 111.662 149.08L111.34 145.193C111.267 144.316 110.982 143.667 110.486 143.247C109.99 142.827 109.303 142.653 108.426 142.725C107.569 142.796 106.92 143.081 106.48 143.579C106.059 144.075 105.885 144.762 105.958 145.639L106.28 149.526C106.351 150.383 106.636 151.032 107.134 151.472C107.65 151.891 108.337 152.065 109.194 151.994ZM125.739 154.536C124.084 154.673 122.711 154.205 121.619 153.131C120.526 152.058 119.898 150.535 119.735 148.561L119.388 144.376C119.226 142.422 119.595 140.826 120.496 139.588C121.395 138.329 122.672 137.632 124.326 137.494C125.682 137.382 126.781 137.692 127.625 138.425C128.466 139.138 128.946 140.202 129.063 141.617L127.93 140.658L128.976 140.571L128.492 136.547L128.121 132.063L132.605 131.691L134.414 153.516L130.079 153.875L129.819 150.736L128.772 150.823L129.732 149.69C129.849 151.105 129.552 152.243 128.841 153.105C128.128 153.947 127.094 154.424 125.739 154.536ZM127.031 150.516C127.848 150.448 128.467 150.166 128.887 149.669C129.306 149.153 129.48 148.466 129.409 147.609L129.087 143.723C129.016 142.865 128.732 142.227 128.236 141.806C127.738 141.366 127.08 141.18 126.263 141.247C125.426 141.317 124.798 141.61 124.379 142.126C123.979 142.621 123.814 143.297 123.885 144.154L124.207 148.04C124.278 148.897 124.553 149.547 125.031 149.989C125.527 150.409 126.194 150.585 127.031 150.516ZM138.468 153.18L138.131 149.114L143.812 148.643L143.121 140.302L138.188 140.711L137.853 136.675L146.972 135.919L147.998 148.296L152.781 147.9L153.118 151.966L138.468 153.18ZM144.365 133.516C143.547 133.584 142.872 133.429 142.339 133.052C141.826 132.673 141.54 132.125 141.481 131.407C141.421 130.689 141.613 130.102 142.057 129.643C142.521 129.184 143.161 128.92 143.978 128.852C144.795 128.784 145.46 128.94 145.974 129.319C146.507 129.696 146.803 130.244 146.862 130.961C146.922 131.679 146.72 132.267 146.256 132.727C145.812 133.185 145.182 133.448 144.365 133.516ZM156.276 151.705L154.913 135.261L159.248 134.902L159.508 138.041L160.824 137.932L159.595 139.087C159.479 137.692 159.787 136.563 160.518 135.699C161.25 134.836 162.293 134.348 163.648 134.236C165.243 134.104 166.565 134.556 167.614 135.593C168.683 136.628 169.294 138.073 169.448 139.926L170.328 150.54L165.843 150.912L165.001 140.747C164.93 139.889 164.646 139.251 164.149 138.83C163.671 138.388 163.024 138.201 162.206 138.269C161.409 138.335 160.811 138.625 160.412 139.14C160.012 139.635 159.847 140.311 159.918 141.168L160.76 151.333L156.276 151.705ZM177.01 155.405L176.713 151.817L181.347 151.433C182.184 151.364 182.805 151.102 183.209 150.647C183.632 150.19 183.814 149.593 183.753 148.856L183.701 148.228L183.5 145.084L182.454 145.17L183.413 144.037C183.531 145.452 183.234 146.591 182.522 147.452C181.81 148.294 180.775 148.771 179.42 148.884C177.766 149.021 176.392 148.552 175.3 147.479C174.208 146.406 173.58 144.882 173.416 142.909L173.168 139.919C173.007 137.966 173.376 136.37 174.277 135.131C175.176 133.873 176.453 133.175 178.107 133.038C179.462 132.926 180.562 133.236 181.405 133.969C182.247 134.682 182.726 135.746 182.844 137.161L181.711 136.201L182.757 136.114L182.347 132.988L186.832 132.616L188.16 148.641C188.309 150.435 187.808 151.901 186.658 153.04C185.528 154.177 183.907 154.833 181.794 155.008L177.01 155.405ZM180.712 144.863C181.53 144.795 182.148 144.513 182.569 144.017C182.988 143.501 183.162 142.814 183.091 141.957L182.868 139.266C182.797 138.409 182.513 137.77 182.016 137.35C181.518 136.909 180.861 136.723 180.044 136.791C179.206 136.86 178.578 137.153 178.16 137.669C177.759 138.164 177.594 138.84 177.665 139.697L177.888 142.388C177.959 143.245 178.234 143.894 178.712 144.336C179.209 144.757 179.875 144.932 180.712 144.863Z" fill="#E5FF7B"/>
<g filter="url(#filter2_f_436_435)">
<path d="M259.754 143.709C258.62 142.959 257.743 142.127 257.124 141.214C256.516 140.285 256.179 139.343 256.115 138.389C256.067 137.447 256.324 136.55 256.886 135.699L260.64 138.181C260.375 138.581 260.335 139.022 260.52 139.504C260.733 139.98 261.123 140.406 261.69 140.781L262.791 141.509C263.475 141.961 264.075 142.178 264.591 142.159C265.124 142.152 265.539 141.923 265.836 141.472C266.112 141.055 266.163 140.633 265.99 140.207C265.827 139.764 265.44 139.28 264.828 138.755L263.358 137.496C261.783 136.143 260.808 134.899 260.432 133.763C260.056 132.627 260.287 131.426 261.125 130.158C262.008 128.823 263.15 128.092 264.553 127.965C265.956 127.837 267.542 128.358 269.31 129.527L270.261 130.156C271.946 131.27 273.046 132.525 273.562 133.921C274.078 135.317 273.928 136.632 273.111 137.866L269.358 135.385C269.578 135.051 269.588 134.674 269.387 134.253C269.213 133.826 268.859 133.437 268.325 133.084L267.374 132.455C266.757 132.047 266.235 131.858 265.808 131.887C265.392 131.9 265.046 132.115 264.77 132.532C264.517 132.915 264.449 133.29 264.567 133.656C264.701 134.032 265.025 134.45 265.537 134.908L267.114 136.275C268.706 137.639 269.704 138.922 270.108 140.124C270.529 141.338 270.314 142.587 269.465 143.871C268.539 145.273 267.343 146.029 265.879 146.14C264.415 146.251 262.741 145.683 260.856 144.437L259.754 143.709ZM266.667 154.393L278.745 136.124L282.373 138.523L280.636 141.151L281.512 141.73L280.057 142.027C280.84 140.842 281.772 140.14 282.853 139.919C283.945 139.682 285.058 139.938 286.192 140.688C287.577 141.604 288.361 142.83 288.545 144.365C288.739 145.885 288.296 147.462 287.215 149.097L284.899 152.6C284.182 153.685 283.361 154.509 282.437 155.073C281.54 155.631 280.601 155.909 279.619 155.907C278.649 155.889 277.696 155.571 276.762 154.953C275.627 154.203 274.95 153.287 274.729 152.207C274.52 151.109 274.807 149.968 275.59 148.784L275.887 150.239L275.011 149.659L272.902 153.121L270.421 156.874L266.667 154.393ZM277.561 150.806C278.262 151.269 278.923 151.431 279.543 151.289C280.192 151.143 280.753 150.711 281.228 149.993L283.378 146.74C283.864 146.006 284.041 145.32 283.911 144.683C283.798 144.056 283.391 143.512 282.69 143.048C282.006 142.596 281.34 142.443 280.692 142.59C280.054 142.72 279.498 143.144 279.024 143.861L276.873 147.115C276.399 147.832 276.221 148.518 276.34 149.172C276.47 149.809 276.877 150.354 277.561 150.806ZM288.564 162.756C287.179 161.84 286.326 160.737 286.005 159.446C285.701 158.165 285.973 156.883 286.822 155.598C287.738 154.214 288.914 153.469 290.35 153.363C291.814 153.252 293.447 153.792 295.249 154.983L298.102 156.87L298.78 155.844C299.133 155.31 299.222 154.757 299.048 154.187C298.891 153.627 298.495 153.138 297.861 152.719C297.277 152.333 296.705 152.146 296.145 152.159C295.585 152.173 295.108 152.385 294.716 152.797L291.088 150.398C292.153 149.113 293.476 148.417 295.057 148.311C296.665 148.2 298.303 148.695 299.972 149.798C301.723 150.956 302.821 152.306 303.265 153.846C303.737 155.381 303.493 156.874 302.534 158.325L296.412 167.585L292.784 165.186L294.273 162.933L293.672 162.536L294.877 162.074C294.193 163.108 293.271 163.686 292.113 163.807C290.981 163.922 289.799 163.572 288.564 162.756ZM291.785 160.929C292.519 161.415 293.247 161.62 293.968 161.545C294.716 161.464 295.3 161.107 295.719 160.473L296.695 158.997L293.918 157.16C293.35 156.785 292.781 156.649 292.21 156.751C291.65 156.836 291.194 157.146 290.841 157.68C290.466 158.247 290.36 158.824 290.523 159.412C290.697 159.982 291.118 160.488 291.785 160.929ZM305.421 173.9C304.203 173.095 303.285 172.164 302.665 171.107C302.056 170.033 301.772 168.922 301.812 167.774C301.863 166.609 302.252 165.476 302.98 164.374L305.131 161.121C305.87 160.003 306.76 159.201 307.801 158.715C308.842 158.228 309.97 158.063 311.185 158.219C312.412 158.358 313.634 158.831 314.852 159.636C316.67 160.838 317.819 162.257 318.296 163.891C318.774 165.526 318.522 167.158 317.541 168.787L313.788 166.305C314.124 165.688 314.193 165.075 313.997 164.465C313.817 163.867 313.385 163.342 312.701 162.889C311.95 162.393 311.248 162.204 310.594 162.323C309.94 162.442 309.37 162.869 308.885 163.603L306.734 166.856C306.26 167.574 306.09 168.265 306.226 168.93C306.373 169.578 306.821 170.151 307.572 170.647C308.256 171.099 308.903 171.299 309.513 171.247C310.151 171.189 310.693 170.876 311.14 170.309L314.894 172.791C313.78 174.331 312.377 175.202 310.686 175.403C308.995 175.604 307.24 175.103 305.421 173.9ZM320.377 183.788C319.159 182.983 318.24 182.052 317.62 180.994C317.028 179.932 316.752 178.826 316.792 177.678C316.86 176.524 317.257 175.396 317.985 174.295L320.136 171.042C320.864 169.941 321.74 169.141 322.765 168.644C323.817 168.14 324.942 167.961 326.141 168.106C327.367 168.246 328.589 168.718 329.807 169.523C331.025 170.329 331.922 171.257 332.497 172.309C333.1 173.355 333.368 174.455 333.3 175.609C333.26 176.757 332.876 177.882 332.148 178.983L330.494 181.486L322.06 175.91L321.564 176.661C320.99 177.528 320.763 178.325 320.883 179.052C321.013 179.761 321.495 180.392 322.329 180.943C322.913 181.329 323.447 181.538 323.929 181.569C324.429 181.612 324.853 181.496 325.201 181.223L328.88 183.655C327.785 184.658 326.462 185.173 324.908 185.202C323.372 185.241 321.861 184.77 320.377 183.788ZM328.189 177.193L328.603 176.567C329.165 175.716 329.395 174.933 329.293 174.218C329.207 173.514 328.755 172.892 327.938 172.351C327.12 171.811 326.348 171.636 325.623 171.828C324.913 172.03 324.277 172.557 323.715 173.408L323.467 173.783L328.605 177.108L328.189 177.193Z" fill="#E5FF7B"/>
</g>
<path d="M259.754 143.709C258.62 142.959 257.743 142.127 257.124 141.214C256.516 140.285 256.179 139.343 256.115 138.389C256.067 137.447 256.324 136.55 256.886 135.699L260.64 138.181C260.375 138.581 260.335 139.022 260.52 139.504C260.733 139.98 261.123 140.406 261.69 140.781L262.791 141.509C263.475 141.961 264.075 142.178 264.591 142.159C265.124 142.152 265.539 141.923 265.836 141.472C266.112 141.055 266.163 140.633 265.99 140.207C265.827 139.764 265.44 139.28 264.828 138.755L263.358 137.496C261.783 136.143 260.808 134.899 260.432 133.763C260.056 132.627 260.287 131.426 261.125 130.158C262.008 128.823 263.15 128.092 264.553 127.965C265.956 127.837 267.542 128.358 269.31 129.527L270.261 130.156C271.946 131.27 273.046 132.525 273.562 133.921C274.078 135.317 273.928 136.632 273.111 137.866L269.358 135.385C269.578 135.051 269.588 134.674 269.387 134.253C269.213 133.826 268.859 133.437 268.325 133.084L267.374 132.455C266.757 132.047 266.235 131.858 265.808 131.887C265.392 131.9 265.046 132.115 264.77 132.532C264.517 132.915 264.449 133.29 264.567 133.656C264.701 134.032 265.025 134.45 265.537 134.908L267.114 136.275C268.706 137.639 269.704 138.922 270.108 140.124C270.529 141.338 270.314 142.587 269.465 143.871C268.539 145.273 267.343 146.029 265.879 146.14C264.415 146.251 262.741 145.683 260.856 144.437L259.754 143.709ZM266.667 154.393L278.745 136.124L282.373 138.523L280.636 141.151L281.512 141.73L280.057 142.027C280.84 140.842 281.772 140.14 282.853 139.919C283.945 139.682 285.058 139.938 286.192 140.688C287.577 141.604 288.361 142.83 288.545 144.365C288.739 145.885 288.296 147.462 287.215 149.097L284.899 152.6C284.182 153.685 283.361 154.509 282.437 155.073C281.54 155.631 280.601 155.909 279.619 155.907C278.649 155.889 277.696 155.571 276.762 154.953C275.627 154.203 274.95 153.287 274.729 152.207C274.52 151.109 274.807 149.968 275.59 148.784L275.887 150.239L275.011 149.659L272.902 153.121L270.421 156.874L266.667 154.393ZM277.561 150.806C278.262 151.269 278.923 151.431 279.543 151.289C280.192 151.143 280.753 150.711 281.228 149.993L283.378 146.74C283.864 146.006 284.041 145.32 283.911 144.683C283.798 144.056 283.391 143.512 282.69 143.048C282.006 142.596 281.34 142.443 280.692 142.59C280.054 142.72 279.498 143.144 279.024 143.861L276.873 147.115C276.399 147.832 276.221 148.518 276.34 149.172C276.47 149.809 276.877 150.354 277.561 150.806ZM288.564 162.756C287.179 161.84 286.326 160.737 286.005 159.446C285.701 158.165 285.973 156.883 286.822 155.598C287.738 154.214 288.914 153.469 290.35 153.363C291.814 153.252 293.447 153.792 295.249 154.983L298.102 156.87L298.78 155.844C299.133 155.31 299.222 154.757 299.048 154.187C298.891 153.627 298.495 153.138 297.861 152.719C297.277 152.333 296.705 152.146 296.145 152.159C295.585 152.173 295.108 152.385 294.716 152.797L291.088 150.398C292.153 149.113 293.476 148.417 295.057 148.311C296.665 148.2 298.303 148.695 299.972 149.798C301.723 150.956 302.821 152.306 303.265 153.846C303.737 155.381 303.493 156.874 302.534 158.325L296.412 167.585L292.784 165.186L294.273 162.933L293.672 162.536L294.877 162.074C294.193 163.108 293.271 163.686 292.113 163.807C290.981 163.922 289.799 163.572 288.564 162.756ZM291.785 160.929C292.519 161.415 293.247 161.62 293.968 161.545C294.716 161.464 295.3 161.107 295.719 160.473L296.695 158.997L293.918 157.16C293.35 156.785 292.781 156.649 292.21 156.751C291.65 156.836 291.194 157.146 290.841 157.68C290.466 158.247 290.36 158.824 290.523 159.412C290.697 159.982 291.118 160.488 291.785 160.929ZM305.421 173.9C304.203 173.095 303.285 172.164 302.665 171.107C302.056 170.033 301.772 168.922 301.812 167.774C301.863 166.609 302.252 165.476 302.98 164.374L305.131 161.121C305.87 160.003 306.76 159.201 307.801 158.715C308.842 158.228 309.97 158.063 311.185 158.219C312.412 158.358 313.634 158.831 314.852 159.636C316.67 160.838 317.819 162.257 318.296 163.891C318.774 165.526 318.522 167.158 317.541 168.787L313.788 166.305C314.124 165.688 314.193 165.075 313.997 164.465C313.817 163.867 313.385 163.342 312.701 162.889C311.95 162.393 311.248 162.204 310.594 162.323C309.94 162.442 309.37 162.869 308.885 163.603L306.734 166.856C306.26 167.574 306.09 168.265 306.226 168.93C306.373 169.578 306.821 170.151 307.572 170.647C308.256 171.099 308.903 171.299 309.513 171.247C310.151 171.189 310.693 170.876 311.14 170.309L314.894 172.791C313.78 174.331 312.377 175.202 310.686 175.403C308.995 175.604 307.24 175.103 305.421 173.9ZM320.377 183.788C319.159 182.983 318.24 182.052 317.62 180.994C317.028 179.932 316.752 178.826 316.792 177.678C316.86 176.524 317.257 175.396 317.985 174.295L320.136 171.042C320.864 169.941 321.74 169.141 322.765 168.644C323.817 168.14 324.942 167.961 326.141 168.106C327.367 168.246 328.589 168.718 329.807 169.523C331.025 170.329 331.922 171.257 332.497 172.309C333.1 173.355 333.368 174.455 333.3 175.609C333.26 176.757 332.876 177.882 332.148 178.983L330.494 181.486L322.06 175.91L321.564 176.661C320.99 177.528 320.763 178.325 320.883 179.052C321.013 179.761 321.495 180.392 322.329 180.943C322.913 181.329 323.447 181.538 323.929 181.569C324.429 181.612 324.853 181.496 325.201 181.223L328.88 183.655C327.785 184.658 326.462 185.173 324.908 185.202C323.372 185.241 321.861 184.77 320.377 183.788ZM328.189 177.193L328.603 176.567C329.165 175.716 329.395 174.933 329.293 174.218C329.207 173.514 328.755 172.892 327.938 172.351C327.12 171.811 326.348 171.636 325.623 171.828C324.913 172.03 324.277 172.557 323.715 173.408L323.467 173.783L328.605 177.108L328.189 177.193Z" fill="#E5FF7B"/>
<path d="M225.345 114.308C224 114.513 222.883 114.289 221.995 113.635C221.103 112.962 220.55 111.923 220.336 110.52L221.533 111.399L220.495 111.558L220.969 114.672L216.669 115.327L213.369 93.6771L217.818 92.9991L218.496 97.4477L218.958 101.474L219.996 101.316L219.116 102.512C218.902 101.108 219.122 99.9621 219.775 99.0734C220.426 98.165 221.423 97.6084 222.768 97.4035C224.409 97.1533 225.813 97.5362 226.979 98.552C228.142 99.5481 228.872 101.015 229.167 102.953L229.8 107.105C230.098 109.062 229.841 110.689 229.027 111.987C228.213 113.284 226.986 114.058 225.345 114.308ZM223.155 110.697C223.986 110.57 224.584 110.246 224.949 109.725C225.332 109.182 225.458 108.485 225.329 107.634L224.741 103.779C224.612 102.929 224.285 102.311 223.761 101.926C223.253 101.517 222.584 101.376 221.754 101.503C220.943 101.627 220.347 101.96 219.964 102.504C219.579 103.028 219.451 103.715 219.581 104.565L220.168 108.421C220.298 109.271 220.626 109.899 221.153 110.304C221.677 110.689 222.345 110.82 223.155 110.697ZM234.571 112.599L233.956 108.565L239.591 107.706L238.329 99.4318L233.436 100.178L232.826 96.1739L241.871 94.7952L243.743 107.073L248.488 106.35L249.103 110.384L234.571 112.599ZM239.105 92.5766C238.295 92.7002 237.611 92.592 237.053 92.2522C236.515 91.9093 236.192 91.382 236.084 90.6702C235.975 89.9584 236.127 89.3587 236.538 88.8712C236.969 88.3807 237.59 88.0736 238.4 87.9501C239.211 87.8265 239.885 87.9362 240.423 88.279C240.98 88.6189 241.314 89.1447 241.422 89.8565C241.53 90.5683 241.369 91.1695 240.938 91.66C240.527 92.1475 239.916 92.4531 239.105 92.5766ZM259.22 109.145C257.777 109.365 256.48 109.289 255.331 108.918C254.179 108.527 253.233 107.893 252.492 107.014C251.768 106.113 251.306 105.01 251.108 103.705L250.52 99.8497C250.321 98.5448 250.434 97.3642 250.86 96.308C251.303 95.2291 252.017 94.3413 253.003 93.6447C253.987 92.9284 255.2 92.4602 256.643 92.2402C258.106 92.0172 259.404 92.1026 260.536 92.4965C261.685 92.8676 262.622 93.5038 263.346 94.405C264.087 95.2834 264.557 96.375 264.756 97.68L265.343 101.535C265.542 102.84 265.42 104.032 264.978 105.111C264.552 106.168 263.848 107.054 262.864 107.77C261.898 108.464 260.683 108.922 259.22 109.145ZM258.632 105.29C259.502 105.157 260.13 104.829 260.515 104.305C260.898 103.761 261.024 103.064 260.895 102.213L260.307 98.358C260.174 97.4881 259.846 96.8604 259.322 96.4749C258.798 96.0895 258.101 95.9631 257.231 96.0957C256.381 96.2253 255.753 96.5536 255.348 97.0807C254.962 97.6047 254.836 98.3017 254.969 99.1717L255.556 103.027C255.686 103.877 256.014 104.505 256.541 104.91C257.085 105.293 257.782 105.419 258.632 105.29ZM279.627 105.731C278.48 105.906 277.435 105.822 276.493 105.48C275.548 105.119 274.762 104.541 274.135 103.746C273.528 102.948 273.137 101.976 272.962 100.829L271.154 88.9664L266.112 89.7348L265.502 85.7311L274.992 84.2846L277.411 100.151C277.492 100.685 277.717 101.096 278.084 101.384C278.468 101.649 278.928 101.741 279.461 101.66L284.207 100.936L284.817 104.94L279.627 105.731ZM294.786 103.724C293.342 103.944 292.046 103.869 290.897 103.497C289.745 103.107 288.799 102.472 288.058 101.593C287.334 100.692 286.872 99.5892 286.673 98.2843L286.086 94.4288C285.887 93.1239 286 91.9433 286.426 90.8871C286.868 89.8081 287.583 88.9204 288.569 88.2238C289.552 87.5075 290.766 87.0393 292.209 86.8193C293.672 86.5963 294.97 86.6817 296.102 87.0756C297.251 87.4467 298.188 88.0829 298.912 88.9841C299.653 89.8625 300.122 90.9541 300.321 92.2591L300.909 96.1145C301.108 97.4195 300.986 98.6114 300.544 99.6904C300.118 100.747 299.413 101.633 298.43 102.349C297.464 103.043 296.249 103.501 294.786 103.724ZM294.198 99.8686C295.068 99.736 295.696 99.4077 296.081 98.8836C296.464 98.3398 296.59 97.6428 296.46 96.7926L295.873 92.9371C295.74 92.0672 295.412 91.4395 294.888 91.054C294.364 90.6686 293.667 90.5422 292.797 90.6748C291.947 90.8044 291.319 91.1327 290.914 91.6598C290.528 92.1838 290.402 92.8808 290.534 93.7508L291.122 97.6063C291.252 98.4564 291.58 99.0841 292.107 99.4893C292.651 99.8718 293.348 99.9982 294.198 99.8686ZM308.74 106.756L308.198 103.197L312.795 102.496C313.625 102.37 314.226 102.066 314.598 101.584C314.989 101.1 315.129 100.492 315.018 99.7603L314.923 99.1375L314.507 96.0144L313.469 96.1726L314.349 94.9764C314.563 96.3802 314.345 97.5363 313.694 98.4447C313.041 99.3333 312.042 99.8801 310.697 100.085C309.056 100.335 307.654 99.9621 306.491 98.9661C305.327 97.97 304.596 96.4932 304.298 94.5358L303.846 91.5701C303.551 89.6325 303.81 88.0149 304.624 86.7175C305.435 85.4003 306.66 84.6166 308.301 84.3665C309.646 84.1616 310.764 84.3958 311.656 85.0691C312.544 85.7227 313.096 86.7514 313.31 88.1552L312.113 87.2754L313.151 87.1171L312.528 84.0257L316.977 83.3477L319.4 99.2441C319.671 101.024 319.272 102.521 318.203 103.736C317.154 104.948 315.581 105.713 313.485 106.033L308.74 106.756ZM311.711 95.9854C312.522 95.8618 313.12 95.538 313.505 95.014C313.888 94.4701 314.014 93.7731 313.885 92.923L313.478 90.2538C313.348 89.4036 313.021 88.7858 312.497 88.4004C311.97 87.9952 311.301 87.8543 310.491 87.9779C309.66 88.1045 309.054 88.4397 308.671 88.9835C308.306 89.5045 308.188 90.1901 308.317 91.0403L308.724 93.7095C308.854 94.5597 309.172 95.1889 309.679 95.5971C310.203 95.9825 310.881 96.112 311.711 95.9854ZM326.879 103.991L328.168 97.5132L319.694 82.9335L324.528 82.1967L328.075 88.9393C328.334 89.446 328.611 90.0714 328.907 90.8154C329.219 91.5365 329.461 92.1269 329.632 92.5863C329.658 92.0967 329.703 91.4627 329.767 90.6843C329.847 89.883 329.935 89.2019 330.032 88.641L331.32 81.1616L335.946 80.4564L331.535 103.282L326.879 103.991Z" fill="white"/>
<path d="M236.567 88.2029C235.647 88.7685 234.743 89.1127 233.856 89.2354C232.969 89.3581 232.153 89.2726 231.409 88.9787C230.655 88.6678 230.009 88.1722 229.474 87.4919L231.493 86.2508C231.958 86.7398 232.534 87.008 233.22 87.0555C233.924 87.0925 234.667 86.8701 235.451 86.3883L236.703 85.6185C237.606 85.0634 238.168 84.4485 238.387 83.7739C238.612 83.0717 238.521 82.3884 238.113 81.7239C237.725 81.0934 237.206 80.708 236.557 80.5675C235.907 80.427 235.162 80.5327 234.322 80.8848L231.996 81.8565C230.531 82.4519 229.264 82.6439 228.195 82.4325C227.143 82.2105 226.266 81.5288 225.564 80.3872C224.8 79.1434 224.608 77.9346 224.99 76.7608C225.379 75.5595 226.34 74.4876 227.873 73.5449L228.87 72.9322C230.199 72.1153 231.457 71.7759 232.646 71.914C233.851 72.0417 234.869 72.5899 235.699 73.5586L233.655 74.8154C233.238 74.3671 232.706 74.131 232.057 74.1071C231.426 74.0727 230.735 74.2859 229.985 74.7468L228.988 75.3595C228.085 75.9146 227.528 76.5157 227.315 77.1629C227.092 77.793 227.19 78.4488 227.609 79.1304C227.986 79.7437 228.461 80.0971 229.035 80.1904C229.599 80.2667 230.3 80.1288 231.14 79.7767L233.44 78.8207C234.974 78.1834 236.285 77.9875 237.375 78.233C238.455 78.4615 239.356 79.1636 240.079 80.3392C240.864 81.6171 241.078 82.8823 240.721 84.1347C240.354 85.3701 239.386 86.4695 237.819 87.4331L236.567 88.2029ZM246.843 81.5692L245.711 79.729L250.721 76.6498L244.342 66.2735L239.972 68.96L238.841 67.1198L245.256 63.1765L252.765 75.3929L257.519 72.4708L258.65 74.3109L246.843 81.5692ZM242.417 61.365C241.888 61.6897 241.379 61.8152 240.887 61.7416C240.413 61.6575 240.029 61.377 239.736 60.8999C239.432 60.4058 239.345 59.9196 239.473 59.4415C239.619 58.9528 239.956 58.5461 240.484 58.2215C241.012 57.8968 241.519 57.785 242.004 57.8861C242.505 57.9768 242.908 58.2691 243.212 58.7633C243.495 59.2233 243.563 59.6976 243.418 60.1863C243.278 60.6474 242.945 61.0403 242.417 61.365ZM262.397 72.0076L253.756 57.951L255.775 56.7099L257.378 59.3168L257.889 59.0026L257.782 60.0894C257.091 58.9648 256.892 57.8779 257.186 56.8285C257.487 55.7516 258.234 54.8466 259.426 54.1135C260.823 53.2546 262.212 53.0116 263.591 53.3844C264.96 53.7401 266.106 54.6677 267.027 56.1671L272.825 65.5977L270.805 66.8389L265.15 57.6382C264.49 56.5648 263.701 55.9112 262.782 55.6776C261.864 55.4439 260.919 55.6256 259.948 56.2226C258.943 56.8405 258.339 57.6342 258.137 58.6037C257.935 59.5732 258.179 60.6202 258.87 61.7447L264.416 70.7665L262.397 72.0076ZM282.262 66.1352L281.131 64.2951L285.399 61.6714C286.2 61.1791 286.672 60.6304 286.817 60.0251C286.978 59.4094 286.823 58.7181 286.352 57.9514L285.346 56.3158L283.764 53.6264L283.303 53.9092L283.428 53.0228C284.077 54.0792 284.246 55.1373 283.935 56.1971C283.624 57.257 282.881 58.1482 281.705 58.8709C280.274 59.7507 278.853 59.9787 277.442 59.5548C276.021 59.1138 274.823 58.1011 273.849 56.5165L272.011 53.5263C271.037 51.9417 270.679 50.4243 270.938 48.974C271.197 47.5237 272.042 46.3586 273.473 45.4788C274.649 44.7562 275.779 44.4953 276.865 44.6963C277.941 44.8803 278.804 45.5004 279.453 46.5568L278.632 46.2518L279.041 46.0004L277.438 43.3936L279.432 42.1681L288.371 56.7103C289.167 58.0052 289.401 59.2461 289.075 60.433C288.775 61.6265 287.927 62.6527 286.53 63.5115L282.262 66.1352ZM281.209 56.7461C282.214 56.1282 282.809 55.3397 282.995 54.3807C283.186 53.3942 282.942 52.3472 282.261 51.2397L280.533 48.4284C279.852 47.3209 279.034 46.6385 278.077 46.3812C277.128 46.0964 276.15 46.263 275.145 46.881C274.122 47.5094 273.519 48.3031 273.333 49.2621C273.148 50.2211 273.401 51.2629 274.093 52.3874L275.821 55.1987C276.512 56.3232 277.327 57.0194 278.267 57.2871C279.206 57.5549 280.187 57.3745 281.209 56.7461ZM292.816 53.3087L291.685 51.4686L296.694 48.3893L290.316 38.013L285.945 40.6995L284.814 38.8594L291.229 34.916L298.739 47.1325L303.492 44.2103L304.624 46.0504L292.816 53.3087ZM288.39 33.1045C287.862 33.4292 287.352 33.5548 286.861 33.4812C286.386 33.3971 286.003 33.1165 285.709 32.6394C285.406 32.1453 285.318 31.6592 285.447 31.181C285.592 30.6923 285.929 30.2857 286.458 29.961C286.986 29.6363 287.492 29.5245 287.977 29.6256C288.479 29.7163 288.882 30.0087 289.185 30.5028C289.468 30.9628 289.537 31.4372 289.391 31.9258C289.252 32.387 288.918 32.7799 288.39 33.1045ZM308.37 43.7471L299.73 29.6906L301.749 28.4494L303.351 31.0563L303.862 30.7421L303.756 31.8289C303.064 30.7044 302.866 29.6174 303.16 28.5681C303.46 27.4912 304.207 26.5862 305.4 25.853C306.797 24.9942 308.185 24.7511 309.565 25.1239C310.934 25.4797 312.079 26.4072 313.001 27.9066L318.798 37.3373L316.779 38.5784L311.123 29.3777C310.463 28.3043 309.674 27.6508 308.756 27.4171C307.837 27.1834 306.893 27.3651 305.921 27.9621C304.916 28.58 304.312 29.3738 304.11 30.3432C303.908 31.3127 304.152 32.3597 304.844 33.4843L310.389 42.506L308.37 43.7471ZM328.235 37.8747L327.104 36.0346L331.372 33.4109C332.173 32.9187 332.645 32.3699 332.79 31.7646C332.951 31.1489 332.796 30.4577 332.325 29.691L331.32 28.0553L329.737 25.3659L329.277 25.6487L329.401 24.7624C330.05 25.8187 330.22 26.8768 329.909 27.9367C329.598 28.9965 328.854 29.8878 327.679 30.6105C326.247 31.4902 324.826 31.7182 323.415 31.2943C321.994 30.8534 320.796 29.8406 319.822 28.2561L317.984 25.2658C317.01 23.6813 316.652 22.1638 316.911 20.7135C317.17 19.2632 318.015 18.0982 319.446 17.2184C320.622 16.4957 321.753 16.2349 322.839 16.4358C323.914 16.6198 324.777 17.24 325.426 18.2963L324.605 17.9913L325.014 17.7399L323.411 15.1331L325.405 13.9077L334.344 28.4498C335.14 29.7447 335.375 30.9857 335.048 32.1726C334.749 33.3661 333.9 34.3922 332.503 35.2511L328.235 37.8747ZM327.182 28.4857C328.188 27.8677 328.783 27.0792 328.968 26.1202C329.16 25.1337 328.915 24.0867 328.235 22.9792L326.506 20.1679C325.826 19.0604 325.007 18.378 324.051 18.1208C323.101 17.836 322.123 18.0025 321.118 18.6205C320.096 19.2489 319.492 20.0426 319.307 21.0016C319.122 21.9606 319.375 23.0024 320.066 24.1269L321.794 26.9383C322.485 28.0628 323.301 28.7589 324.24 29.0267C325.179 29.2944 326.16 29.1141 327.182 28.4857Z" fill="white"/>
<path d="M6.85536 38.6935L15.5216 24.6526L19.0956 26.8585L17.4412 29.539L18.4113 30.1378L16.3051 31.0941C17.24 29.5794 18.2927 28.6545 19.4632 28.3193C20.6337 27.9841 21.8912 28.2314 23.2357 29.0613C24.7844 30.0172 25.6954 31.2258 25.9686 32.6871C26.2589 34.1589 25.8788 35.7457 24.8283 37.4476L24.1193 38.5964L20.0346 36.0754L20.5861 35.1819C21.0588 34.416 21.2138 33.689 21.0509 33.0009C20.905 32.3233 20.4832 31.7692 19.7854 31.3385C19.0536 30.8868 18.3606 30.7529 17.7066 30.9368C17.0696 31.1312 16.5147 31.6113 16.042 32.3772L10.6847 41.057L6.85536 38.6935ZM27.5705 51.8316C25.6813 50.6656 24.5158 49.2411 24.0738 47.5582C23.6489 45.8858 23.9827 44.1646 25.0752 42.3945L30.3694 33.8168L34.1988 36.1803L28.9203 44.7325C28.437 45.5154 28.2514 46.2351 28.3632 46.8917C28.4855 47.5313 28.904 48.0717 29.6189 48.5129C30.3166 48.9435 30.9788 49.0702 31.6053 48.8928C32.2594 48.709 32.828 48.2256 33.3112 47.4427L38.5897 38.8905L42.4191 41.254L37.1248 49.8317C36.0218 51.6187 34.6191 52.6919 32.9166 53.0513C31.2246 53.3937 29.4426 52.9871 27.5705 51.8316ZM37.0617 57.3371L45.7279 43.2962L49.4295 45.5809L47.7751 48.2615L48.8984 48.9548L47.2236 49.155C47.9589 47.9636 48.8771 47.2377 49.978 46.9771C51.079 46.7165 52.2081 46.9433 53.3654 47.6577C54.7269 48.498 55.522 49.6468 55.7507 51.1041C55.9964 52.5719 55.6308 54.0972 54.6539 55.68L49.0603 64.7428L45.2309 62.3793L50.5882 53.6994C51.0399 52.9676 51.1908 52.2852 51.041 51.6521C50.9187 51.0126 50.5086 50.4774 49.8108 50.0468C49.13 49.6266 48.4764 49.5052 47.8499 49.6825C47.2338 49.8429 46.7 50.289 46.2483 51.0208L40.891 59.7006L37.0617 57.3371ZM52.369 66.785L61.0352 52.7441L64.7369 55.0288L63.0825 57.7094L64.2057 58.4027L62.531 58.6029C63.2663 57.4115 64.1844 56.6856 65.2854 56.425C66.3863 56.1644 67.5155 56.3912 68.6728 57.1055C70.0343 57.9459 70.8294 59.0947 71.0581 60.552C71.3038 62.0198 70.9382 63.5451 69.9613 65.1279L64.3676 74.1907L60.5383 71.8272L65.8956 63.1473C66.3473 62.4155 66.4982 61.7331 66.3484 61.1C66.226 60.4604 65.816 59.9253 65.1182 59.4946C64.4374 59.0745 63.7838 58.9531 63.1572 59.1304C62.5412 59.2908 62.0074 59.7369 61.5557 60.4687L56.1984 69.1485L52.369 66.785ZM67.7785 76.2959L69.9214 72.824L74.7719 75.8178L79.1681 68.6952L74.9558 66.0953L77.083 62.6489L84.8693 67.4547L78.346 78.0237L82.4306 80.5448L80.2877 84.0167L67.7785 76.2959ZM84.1978 63.9732C83.5 63.5425 83.0487 63.0171 82.8438 62.3971C82.6559 61.7876 82.7511 61.1765 83.1292 60.5638C83.5074 59.9511 84.011 59.5921 84.64 59.4868C85.2861 59.392 85.9581 59.56 86.6558 59.9907C87.3536 60.4213 87.7965 60.9414 87.9843 61.551C88.1892 62.171 88.1026 62.7873 87.7244 63.4C87.3463 64.0127 86.8341 64.3665 86.1881 64.4612C85.559 64.5665 84.8956 64.4039 84.1978 63.9732ZM82.9838 85.6808L91.65 71.6399L95.3517 73.9246L93.6972 76.6051L94.8205 77.2984L93.1457 77.4986C93.8811 76.3073 94.7992 75.5813 95.9001 75.3207C97.0011 75.0601 98.1302 75.287 99.2875 76.0013C100.649 76.8416 101.444 77.9905 101.673 79.4478C101.919 80.9156 101.553 82.4409 100.576 84.0237L94.9824 93.0864L91.1531 90.7229L96.5103 82.0431C96.962 81.3113 97.113 80.6288 96.9631 79.9958C96.8408 79.3562 96.4307 78.8211 95.733 78.3904C95.0522 77.9702 94.3985 77.8488 93.772 78.0262C93.156 78.1865 92.6221 78.6326 92.1704 79.3644L86.8131 88.0443L82.9838 85.6808ZM97.4718 100.969L99.3626 97.9052L103.32 100.347C104.034 100.789 104.689 100.946 105.284 100.82C105.896 100.704 106.397 100.331 106.785 99.7015L107.116 99.1654L108.822 96.5164L107.928 95.9649L109.373 95.6229C108.627 96.8312 107.713 97.571 106.629 97.8421C105.555 98.0961 104.44 97.866 103.282 97.1517C101.87 96.2798 101.043 95.0877 100.801 93.5754C100.559 92.0631 100.958 90.4644 101.998 88.7795L103.574 86.2266C104.604 84.5587 105.848 83.4938 107.309 83.0319C108.779 82.553 110.221 82.7495 111.634 83.6214C112.791 84.3357 113.491 85.2381 113.735 86.3285C113.989 87.4019 113.743 88.5428 112.997 89.7512L112.655 88.3062L113.549 88.8577L115.076 86.0984L118.905 88.4619L110.459 102.145C109.514 103.677 108.24 104.56 106.639 104.794C105.055 105.038 103.36 104.603 101.556 103.49L97.4718 100.969ZM106.709 94.6838C107.407 95.1145 108.073 95.2549 108.706 95.1051C109.349 94.9382 109.897 94.4889 110.349 93.7571L111.767 91.4594C112.218 90.7276 112.369 90.0452 112.219 89.4121C112.08 88.7621 111.662 88.2217 110.964 87.791C110.249 87.3498 109.57 87.2127 108.926 87.3795C108.31 87.5399 107.776 87.9859 107.325 88.7178L105.907 91.0154C105.455 91.7472 105.29 92.4329 105.412 93.0725C105.562 93.7055 105.995 94.2426 106.709 94.6838Z" fill="white"/>
<path d="M68.13 52.6541L76.7004 32.5007L78.8814 33.4282L77.7426 36.1061L78.3223 36.3526L77.2723 36.9819C77.7811 35.7856 78.5667 35.0113 79.6293 34.6591C80.7182 34.2962 81.9068 34.3888 83.1951 34.9366C84.7227 35.5863 85.7222 36.609 86.1936 38.0048C86.6912 39.39 86.5721 40.9476 85.8364 42.6777L83.9227 47.1777C83.4296 48.3372 82.7914 49.2502 82.008 49.9168C81.2325 50.565 80.3696 50.9587 79.4194 51.098C78.4875 51.245 77.5154 51.1033 76.5032 50.6728C75.2332 50.1328 74.3512 49.3448 73.8573 48.3088C73.3633 47.2729 73.3667 46.166 73.8676 44.9881L74.06 46.1456L73.5354 45.9226L72.2481 49.0263L70.311 53.5816L68.13 52.6541ZM76.623 48.4744C77.7273 48.944 78.7241 48.9767 79.6132 48.5724C80.5207 48.1759 81.2328 47.3703 81.7493 46.1556L83.5808 41.8489C84.1052 40.6157 84.1915 39.544 83.8397 38.6337C83.5141 37.7129 82.7991 37.0176 81.6948 36.548C80.6274 36.0941 79.6267 36.0706 78.693 36.4777C77.7854 36.8741 77.0773 37.6705 76.5685 38.8668L74.7371 43.1736C74.2283 44.3699 74.142 45.4416 74.4782 46.3887C74.8406 47.3252 75.5556 48.0205 76.623 48.4744ZM91.0967 56.8788C89.4954 56.1979 88.4069 55.2569 87.831 54.0557C87.263 52.8361 87.2764 51.527 87.8712 50.1282C88.4582 48.7478 89.3709 47.8537 90.6093 47.4458C91.8556 47.0195 93.2425 47.1312 94.7701 47.7808L99.6014 49.8353L100.282 48.2341C100.713 47.2218 100.751 46.3144 100.397 45.5118C100.043 44.7092 99.3226 44.077 98.2367 43.6152C97.2797 43.2082 96.3891 43.0794 95.5649 43.2288C94.7591 43.386 94.1576 43.8039 93.7603 44.4826L91.5517 43.5433C92.2914 42.3149 93.341 41.5333 94.7004 41.1986C96.0782 40.8717 97.5493 41.0409 99.1138 41.7062C100.807 42.4263 101.955 43.4577 102.557 44.8006C103.168 46.1251 103.144 47.5604 102.487 49.1064L98.0607 59.5144L95.9073 58.5986L97.1635 55.6446L96.8046 55.492L97.4066 55.2264C96.9291 56.3491 96.117 57.0578 94.9702 57.3525C93.8234 57.6472 92.5322 57.4893 91.0967 56.8788ZM92.3726 55.335C93.5873 55.8516 94.7103 55.9706 95.7416 55.6919C96.7729 55.4133 97.496 54.7863 97.9108 53.8108L98.8852 51.5194L94.0815 49.4766C93.2165 49.1087 92.4246 49.0545 91.7057 49.3139C90.9869 49.5732 90.4514 50.117 90.0992 50.9453C89.7235 51.8287 89.735 52.6703 90.1338 53.4702C90.5404 54.2516 91.2867 54.8733 92.3726 55.335ZM103.102 61.6582L103.947 59.6705L109.358 61.9716L114.125 50.763L109.404 48.7554L110.249 46.7677L117.179 49.7145L111.567 62.9108L116.702 65.0945L115.857 67.0822L103.102 61.6582ZM117.012 46.3509C116.441 46.1083 116.044 45.7653 115.819 45.3222C115.613 44.8868 115.62 44.4114 115.839 43.8961C116.066 43.3624 116.412 43.0095 116.876 42.8375C117.359 42.6733 117.885 42.7125 118.456 42.9552C119.026 43.1978 119.411 43.546 119.609 43.9998C119.826 44.4614 119.821 44.959 119.594 45.4928C119.382 45.9897 119.035 46.3203 118.552 46.4844C118.096 46.638 117.582 46.5935 117.012 46.3509ZM119.904 68.8035L126.361 53.6194L128.542 54.5469L127.345 57.3629L127.897 57.5977L126.949 58.14C127.466 56.9253 128.237 56.1339 129.263 55.766C130.315 55.3876 131.485 55.4723 132.773 56.0201C134.282 56.6619 135.284 57.6531 135.779 58.9937C136.282 60.3159 136.189 61.7868 135.5 63.4064L131.168 73.5935L128.987 72.666L133.213 62.7274C133.707 61.5679 133.782 60.5461 133.441 59.662C133.1 58.778 132.405 58.1129 131.356 57.6668C130.27 57.205 129.273 57.1723 128.366 57.5688C127.458 57.9652 126.746 58.7708 126.229 59.9856L122.085 69.731L119.904 68.8035ZM143.719 78.9307C142.449 78.3907 141.605 77.6407 141.187 76.6807C140.777 75.7023 140.835 74.5965 141.359 73.3634L145.327 64.0321L141.021 62.2006L141.866 60.2129L146.173 62.0443L147.992 57.7652L150.201 58.7044L148.381 62.9836L154.482 65.5782L153.637 67.5659L147.536 64.9713L143.568 74.3026C143.035 75.5541 143.367 76.4343 144.564 76.943L148.594 78.6571L147.749 80.6448L143.719 78.9307ZM152.763 82.777L153.608 80.7892L159.019 83.0903L163.786 71.8817L159.065 69.8741L159.91 67.8864L166.84 70.8332L161.228 84.0295L166.363 86.2132L165.518 88.201L152.763 82.777ZM166.673 67.4696C166.102 67.227 165.705 66.8841 165.48 66.4409C165.274 66.0055 165.281 65.5302 165.5 65.0148C165.727 64.4811 166.072 64.1282 166.537 63.9562C167.02 63.792 167.546 63.8313 168.117 64.0739C168.687 64.3165 169.072 64.6647 169.27 65.1185C169.487 65.5801 169.481 66.0778 169.254 66.6115C169.043 67.1084 168.696 67.439 168.213 67.6032C167.757 67.7568 167.243 67.7122 166.673 67.4696ZM169.565 89.9222L176.022 74.7381L178.203 75.6656L177.006 78.4816L177.558 78.7164L176.61 79.2587C177.127 78.044 177.898 77.2527 178.924 76.8848C179.976 76.5063 181.146 76.591 182.434 77.1388C183.943 77.7806 184.945 78.7718 185.44 80.1124C185.943 81.4346 185.85 82.9055 185.161 84.5251L180.829 94.7122L178.648 93.7847L182.874 83.8461C183.367 82.6866 183.443 81.6648 183.102 80.7807C182.761 79.8967 182.066 79.2316 181.017 78.7855C179.931 78.3237 178.934 78.291 178.026 78.6875C177.119 79.084 176.407 79.8895 175.89 81.1043L171.746 90.8497L169.565 89.9222ZM185.855 102.718L186.7 100.73L191.311 102.691C192.176 103.058 192.897 103.126 193.474 102.893C194.07 102.668 194.543 102.142 194.896 101.314L195.647 99.5468L196.923 96.6991L196.426 96.4877L197.221 96.0758C196.736 97.2169 195.971 97.9675 194.927 98.3276C193.882 98.6877 192.725 98.5977 191.455 98.0577C189.909 97.4002 188.901 96.3736 188.429 94.9778C187.966 93.5636 188.098 92.0007 188.826 90.289L190.2 87.059C190.927 85.3473 191.958 84.1771 193.29 83.5484C194.622 82.9196 196.061 82.934 197.607 83.5914C198.877 84.1315 199.745 84.9024 200.21 85.9043C200.683 86.8878 200.676 87.9501 200.191 89.0912L199.964 88.2449L200.406 88.4327L201.603 85.6168L203.757 86.5325L197.077 102.241C196.482 103.64 195.606 104.55 194.449 104.97C193.303 105.417 191.975 105.32 190.466 104.678L185.855 102.718ZM192.9 96.4228C193.986 96.8846 194.974 96.9133 195.863 96.509C196.778 96.0942 197.49 95.2886 197.999 94.0922L199.291 91.0554C199.799 89.8591 199.882 88.7966 199.538 87.8679C199.22 86.9286 198.518 86.2281 197.432 85.7663C196.328 85.2967 195.331 85.2641 194.442 85.6684C193.553 86.0727 192.85 86.8822 192.334 88.0969L191.042 91.1337C190.526 92.3484 190.43 93.4162 190.756 94.3371C191.081 95.2579 191.796 95.9532 192.9 96.4228Z" fill="white"/>
<path d="M6.67289 229.096L6.46867 212.597L10.0084 212.553L10.0381 214.953L10.758 214.944L10.1933 215.371C10.1817 214.431 10.4423 213.678 10.9754 213.111C11.5082 212.525 12.1745 212.226 12.9745 212.216C13.8344 212.206 14.5089 212.567 14.998 213.301C15.4872 214.035 15.7393 215.012 15.7544 216.232L15.1977 214.889L16.0376 214.879L15.7729 215.302C15.7612 214.362 16.0119 213.609 16.525 213.042C17.0377 212.456 17.7341 212.157 18.614 212.147C19.6139 212.134 20.4286 212.504 21.0579 213.256C21.6871 213.989 22.0097 215.005 22.0258 216.305L22.1817 228.904L18.312 228.952L18.1598 216.652C18.1541 216.193 18.0497 215.844 17.8468 215.606C17.6436 215.349 17.352 215.222 16.972 215.227C16.5921 215.232 16.3037 215.365 16.1069 215.628C15.9099 215.87 15.8142 216.221 15.8199 216.681L15.9722 228.981L12.8824 229.019L12.7302 216.72C12.7245 216.26 12.6202 215.911 12.4172 215.673C12.214 215.416 11.9224 215.29 11.5424 215.294C11.1625 215.299 10.8741 215.433 10.6773 215.695C10.4803 215.937 10.3847 216.289 10.3904 216.749L10.5426 229.048L6.67289 229.096ZM30.2731 229.104C28.6132 229.124 27.2877 228.69 26.2967 227.803C25.3256 226.915 24.8305 225.701 24.8115 224.161C24.7909 222.501 25.3452 221.224 26.4742 220.33C27.623 219.416 29.2773 218.945 31.4371 218.918L34.8568 218.876L34.8416 217.646C34.8337 217.006 34.5974 216.499 34.1327 216.125C33.6881 215.75 33.0858 215.568 32.3258 215.577C31.6259 215.586 31.0479 215.753 30.5919 216.079C30.1359 216.404 29.8614 216.848 29.7683 217.409L25.4186 217.463C25.5781 215.801 26.2818 214.482 27.5298 213.506C28.7976 212.511 30.4314 212 32.4312 211.975C34.5311 211.95 36.1974 212.449 37.4302 213.474C38.6827 214.478 39.3197 215.851 39.3413 217.59L39.4787 228.69L35.129 228.743L35.0956 226.044L34.3756 226.053L35.1126 224.993C35.1279 226.233 34.6902 227.229 33.7994 227.98C32.9284 228.711 31.753 229.085 30.2731 229.104ZM31.9121 225.783C32.792 225.772 33.5091 225.533 34.0634 225.066C34.6374 224.579 34.9197 223.956 34.9103 223.196L34.8884 221.426L31.5587 221.467C30.8787 221.475 30.3312 221.682 29.9162 222.087C29.5009 222.473 29.2973 222.985 29.3052 223.625C29.3136 224.305 29.5503 224.842 30.0152 225.236C30.4799 225.611 31.1122 225.793 31.9121 225.783ZM52.186 228.532C50.5061 228.553 49.1803 228.089 48.2084 227.141C47.2366 226.193 46.7403 224.879 46.7195 223.2L46.6323 216.15L42.2826 216.204L42.2325 212.154L46.5822 212.1L46.5246 207.451L51.0243 207.395L51.0818 212.045L57.2313 211.969L57.2815 216.018L51.1319 216.094L51.2192 223.144C51.2303 224.044 51.6859 224.488 52.5858 224.477L57.0855 224.421L57.1356 228.471L52.186 228.532ZM61.3535 228.419L61.0825 206.52L65.5821 206.465L65.649 211.864L65.538 215.016L66.8579 215L65.551 216.066C65.5336 214.666 65.92 213.561 66.71 212.751C67.5001 211.941 68.575 211.528 69.9349 211.511C71.5348 211.491 72.8216 212.036 73.7954 213.144C74.7892 214.251 75.2976 215.735 75.3206 217.595L75.4525 228.244L70.9528 228.3L70.8266 218.101C70.8159 217.241 70.5778 216.584 70.1121 216.129C69.6662 215.655 69.0333 215.423 68.2133 215.433C67.4134 215.443 66.7964 215.69 66.3624 216.176C65.9281 216.641 65.7163 217.304 65.727 218.164L65.8532 228.363L61.3535 228.419ZM85.6737 228.418C84.3138 228.435 83.1213 228.239 82.0962 227.832C81.0708 227.405 80.2634 226.815 79.6741 226.062C79.1047 225.309 78.8137 224.422 78.8011 223.402L83.3007 223.347C83.3067 223.827 83.5215 224.214 83.9452 224.509C84.3886 224.783 84.9503 224.916 85.6302 224.908L86.9501 224.892C87.7701 224.882 88.3882 224.724 88.8044 224.419C89.2407 224.113 89.4555 223.691 89.4488 223.151C89.4426 222.651 89.2479 222.273 88.8647 222.018C88.4813 221.743 87.889 221.56 87.0878 221.47L85.165 221.254C83.1019 221.019 81.5958 220.538 80.6467 219.809C79.6977 219.081 79.2137 217.957 79.1949 216.437C79.1751 214.837 79.7097 213.59 80.7987 212.697C81.8877 211.803 83.4922 211.343 85.612 211.317L86.7519 211.303C88.7718 211.278 90.3871 211.698 91.5979 212.563C92.8087 213.428 93.4233 214.601 93.4416 216.081L88.9419 216.136C88.937 215.736 88.733 215.419 88.3301 215.184C87.9469 214.929 87.4353 214.805 86.7954 214.813L85.6555 214.827C84.9155 214.836 84.3772 214.973 84.0404 215.237C83.7034 215.481 83.538 215.853 83.5442 216.353C83.5499 216.813 83.7042 217.161 84.0072 217.398C84.3301 217.634 84.8322 217.797 85.5133 217.889L87.5865 218.133C89.6696 218.368 91.2159 218.868 92.2255 219.636C93.2551 220.403 93.7794 221.557 93.7984 223.097C93.8192 224.777 93.2552 226.074 92.1065 226.988C90.9577 227.902 89.2534 228.373 86.9936 228.401L85.6737 228.418Z" fill="white"/>
<path d="M10.446 157.332C8.8802 156.844 7.77396 155.923 7.12729 154.57C6.4997 153.222 6.46251 151.66 7.01572 149.884L8.47011 145.216C9.02926 143.421 9.94979 142.147 11.2317 141.394C12.5136 140.641 13.947 140.512 15.5319 141.005C16.8494 141.416 17.7962 142.109 18.3721 143.084C18.9672 144.066 19.0743 145.167 18.6936 146.389L18.3866 145.257L18.9308 145.426L19.9729 141.98L21.3737 137.484L23.6365 138.188L17.123 159.097L14.8602 158.393L15.7257 155.614L15.1242 155.427L16.1061 154.696C15.7194 155.937 15.0025 156.792 13.9554 157.262C12.9333 157.719 11.7635 157.742 10.446 157.332ZM11.7777 155.578C12.9043 155.929 13.8897 155.859 14.734 155.368C15.6033 154.864 16.2313 153.991 16.618 152.75L18.0099 148.282C18.3965 147.041 18.3723 145.975 17.9372 145.086C17.5272 144.183 16.7589 143.556 15.6323 143.205C14.4866 142.848 13.4821 142.912 12.6187 143.397C11.7553 143.882 11.1273 144.755 10.7347 146.015L9.3428 150.484C8.9502 151.744 8.97145 152.819 9.40653 153.709C9.84162 154.598 10.632 155.221 11.7777 155.578ZM23.184 160.986L28.0914 145.232L30.3255 145.928L29.4154 148.85L29.9596 149.019L28.5955 150.574C29.1143 148.976 29.8894 147.866 30.9209 147.245C31.9583 146.604 33.193 146.507 34.6252 146.953C36.2864 147.471 37.4404 148.406 38.0871 149.76C38.7588 151.1 38.821 152.649 38.2738 154.406L37.9793 155.351L35.6593 154.628L35.9002 153.855C36.2987 152.576 36.29 151.494 35.874 150.61C35.464 149.708 34.6766 149.075 33.5118 148.712C32.3852 148.361 31.3872 148.438 30.5179 148.942C29.6486 149.446 29.0176 150.328 28.625 151.589L25.4753 161.699L23.184 160.986ZM44.3362 167.889C42.6749 167.372 41.4978 166.544 40.8048 165.406C40.1177 164.25 40.0002 162.946 40.4523 161.495C40.8984 160.062 41.7172 159.082 42.9086 158.552C44.106 158.003 45.4972 157.976 47.082 158.469L52.0945 160.031L52.612 158.37C52.9391 157.319 52.8864 156.413 52.4538 155.65C52.0213 154.886 51.2417 154.329 50.1151 153.978C49.1221 153.669 48.2231 153.63 47.418 153.861C46.6319 154.098 46.0752 154.574 45.7477 155.289L43.4563 154.575C44.0696 153.279 45.0358 152.396 46.355 151.927C47.6932 151.464 49.1739 151.486 50.7969 151.991C52.5537 152.538 53.7989 153.45 54.5326 154.726C55.2722 155.983 55.3922 157.413 54.8926 159.017L51.5287 169.815L49.2946 169.119L50.2493 166.055L49.877 165.939L50.4494 165.614C50.0865 166.779 49.3493 167.565 48.2377 167.973C47.1261 168.381 45.8256 168.353 44.3362 167.889ZM45.4514 166.225C46.7117 166.618 47.841 166.624 48.8393 166.244C49.8376 165.864 50.4943 165.167 50.8096 164.155L51.5502 161.778L46.5664 160.226C45.6689 159.946 44.8756 159.971 44.1862 160.301C43.4969 160.631 43.0184 161.226 42.7507 162.085C42.4652 163.001 42.5608 163.838 43.0375 164.594C43.5202 165.331 44.3248 165.875 45.4514 166.225ZM57.9048 171.802L60.2631 155.254L62.2967 155.888L60.4621 167.728C60.3886 168.166 60.3001 168.652 60.1968 169.185C60.1126 169.724 60.036 170.172 59.9671 170.527C60.1124 170.196 60.3131 169.787 60.5691 169.301C60.8252 168.815 61.0473 168.371 61.2355 167.969L66.6503 157.244L68.8271 157.922L67.2217 169.834C67.1482 170.272 67.0693 170.76 66.985 171.3C66.9199 171.845 66.8529 172.295 66.784 172.651C66.9293 172.319 67.1204 171.907 67.3574 171.416C67.6135 170.93 67.8356 170.486 68.0237 170.084L73.2667 159.305L75.2144 159.912L67.6432 174.835L65.0654 174.032L66.7356 162.518C66.8258 161.96 66.8998 161.386 66.9577 160.796C67.0407 160.194 67.1137 159.724 67.1766 159.388C67.0182 159.694 66.802 160.119 66.5281 160.662C66.2792 161.192 66.0238 161.71 65.7617 162.215L60.5113 172.614L57.9048 171.802ZM73.9333 176.795L74.5758 174.733L80.1897 176.481L83.8123 164.853L78.9144 163.327L79.5569 161.265L86.7461 163.504L82.4811 177.195L87.8086 178.855L87.1661 180.917L73.9333 176.795ZM86.2438 160.174C85.6519 159.99 85.2221 159.688 84.9544 159.27C84.7059 158.857 84.6649 158.384 84.8315 157.849C85.004 157.295 85.3127 156.909 85.7575 156.692C86.2214 156.48 86.7493 156.467 87.3413 156.651C87.9332 156.836 88.3505 157.144 88.5931 157.575C88.8548 158.013 88.8994 158.509 88.7268 159.062C88.5662 159.578 88.254 159.941 87.79 160.153C87.3512 160.352 86.8357 160.359 86.2438 160.174ZM91.3654 182.225L96.2728 166.472L98.5356 167.177L97.6255 170.098L98.1983 170.277L97.3094 170.911C97.702 169.651 98.3903 168.787 99.3742 168.318C100.383 167.836 101.556 167.804 102.893 168.22C104.458 168.708 105.554 169.594 106.181 170.878C106.813 172.144 106.867 173.616 106.344 175.297L103.051 185.866L100.789 185.161L104.001 174.85C104.376 173.647 104.349 172.622 103.921 171.777C103.493 170.931 102.735 170.339 101.647 170C100.52 169.649 99.5251 169.716 98.6618 170.201C97.7984 170.686 97.1704 171.559 96.7778 172.819L93.6281 182.93L91.3654 182.225ZM108.853 193.329L109.495 191.267L114.278 192.757C115.176 193.036 115.9 193.031 116.451 192.742C117.021 192.459 117.44 191.888 117.708 191.028L118.279 189.195L119.264 186.234L118.748 186.074L119.498 185.584C119.129 186.768 118.443 187.592 117.44 188.054C116.437 188.517 115.277 188.543 113.959 188.133C112.355 187.633 111.249 186.712 110.64 185.37C110.038 184.01 110.013 182.441 110.566 180.666L111.61 177.314C112.164 175.539 113.072 174.271 114.334 173.513C115.597 172.754 117.031 172.624 118.635 173.124C119.952 173.534 120.892 174.215 121.455 175.165C122.024 176.096 122.124 177.154 121.755 178.338L121.445 177.519L121.903 177.661L122.813 174.74L125.047 175.436L119.97 191.733C119.518 193.184 118.738 194.177 117.628 194.712C116.533 195.271 115.202 195.307 113.636 194.819L108.853 193.329ZM115.234 186.361C116.36 186.712 117.346 186.642 118.19 186.151C119.059 185.647 119.687 184.774 120.074 183.533L121.055 180.382C121.442 179.141 121.418 178.076 120.983 177.186C120.573 176.283 119.804 175.656 118.678 175.305C117.532 174.949 116.537 175.016 115.693 175.507C114.849 175.998 114.23 176.874 113.837 178.134L112.856 181.284C112.463 182.545 112.475 183.617 112.891 184.5C113.307 185.384 114.088 186.004 115.234 186.361Z" fill="white"/>
<path d="M6.45766 120.181L4.7987 103.549L6.92473 103.679L7.9689 115.615C8.00196 116.058 8.03197 116.55 8.05893 117.093C8.10586 117.637 8.13831 118.09 8.15628 118.451C8.21816 118.095 8.31547 117.65 8.44821 117.117C8.58095 116.584 8.69067 116.1 8.77739 115.664L11.4762 103.957L13.752 104.096L15.0357 116.046C15.0688 116.489 15.1088 116.983 15.1557 117.527C15.2226 118.072 15.265 118.525 15.283 118.887C15.3449 118.53 15.4322 118.084 15.545 117.55C15.6777 117.017 15.7874 116.533 15.8742 116.098L18.3934 104.379L20.4296 104.504L16.6387 120.803L13.9437 120.638L12.8177 109.058C12.772 108.494 12.7069 107.919 12.6225 107.333C12.5593 106.728 12.5181 106.255 12.4989 105.913C12.4183 106.249 12.3098 106.713 12.1734 107.306C12.0581 107.88 11.9336 108.443 11.7996 108.996L9.18258 120.348L6.45766 120.181ZM29.5446 121.892C28.267 121.814 27.1743 121.497 26.2665 120.94C25.36 120.364 24.6758 119.591 24.2141 118.621C23.7524 117.651 23.5593 116.547 23.6349 115.309L23.9203 110.638C23.9971 109.38 24.3231 108.308 24.8982 107.422C25.4746 106.515 26.2471 105.841 27.2159 105.399C28.1858 104.938 29.3096 104.746 30.5872 104.824C31.8648 104.902 32.9569 105.229 33.8635 105.805C34.7712 106.362 35.456 107.125 35.9177 108.095C36.3806 109.045 36.5737 110.149 36.4969 111.406L36.3194 114.311L26.0785 113.685L25.9706 115.452C25.8889 116.79 26.1648 117.848 26.7985 118.628C27.4533 119.39 28.4095 119.809 29.6671 119.886C30.7252 119.95 31.5964 119.793 32.2807 119.414C32.9851 119.036 33.4515 118.454 33.6799 117.666L36.0455 117.811C35.7418 119.175 35.0066 120.222 33.8399 120.952C32.6732 121.682 31.2414 121.996 29.5446 121.892ZM34.0807 112.581L34.1612 111.264C34.2429 109.926 33.9664 108.877 33.3315 108.117C32.6979 107.337 31.7423 106.908 30.4647 106.83C29.207 106.753 28.2063 107.063 27.4625 107.759C26.7398 108.436 26.3377 109.443 26.256 110.781L26.1919 111.829L34.3367 112.326L34.0807 112.581ZM41.1695 122.302L41.3012 120.146L47.1703 120.504L47.9129 108.347L42.7925 108.034L42.9242 105.878L50.4402 106.337L49.5658 120.65L55.1354 120.991L55.0037 123.147L41.1695 122.302ZM49.1577 103.223C48.5388 103.185 48.0495 102.995 47.6897 102.653C47.3499 102.311 47.1971 101.861 47.2312 101.302C47.2666 100.723 47.4743 100.275 47.8544 99.9576C48.2544 99.6414 48.7638 99.5022 49.3827 99.54C50.0015 99.5778 50.4802 99.7774 50.8188 100.139C51.1774 100.501 51.339 100.972 51.3036 101.551C51.2707 102.09 51.0542 102.517 50.6542 102.834C50.2754 103.131 49.7765 103.261 49.1577 103.223ZM61.0708 128.927L61.2025 126.771L66.2032 127.077C67.1415 127.134 67.8436 126.957 68.3096 126.544C68.7956 126.133 69.066 125.478 69.1209 124.58L69.2379 122.664L69.4881 119.553L68.9491 119.52L69.5601 118.866C69.4845 120.104 69.0149 121.067 68.1513 121.756C67.2877 122.444 66.1672 122.747 64.7897 122.662C63.1129 122.56 61.8189 121.93 60.9078 120.772C59.9979 119.595 59.5996 118.077 59.7131 116.221L59.9271 112.717C60.0405 110.861 60.6198 109.414 61.6651 108.375C62.7103 107.337 64.0714 106.869 65.7482 106.972C67.1257 107.056 68.2011 107.492 68.9744 108.281C69.749 109.05 70.0985 110.053 70.0229 111.29L69.526 110.569L70.0051 110.598L70.1916 107.544L72.5273 107.686L71.4865 124.725C71.3938 126.242 70.8727 127.392 69.9231 128.176C68.9923 128.98 67.7084 129.333 66.0715 129.233L61.0708 128.927ZM65.6047 120.638C66.7825 120.71 67.7227 120.407 68.4254 119.729C69.1492 119.032 69.5508 118.034 69.6301 116.737L69.8313 113.443C69.9105 112.145 69.6328 111.116 68.9979 110.356C68.3843 109.577 67.4886 109.152 66.3107 109.08C65.113 109.007 64.1628 109.309 63.4601 109.988C62.7574 110.666 62.3658 111.664 62.2853 112.982L62.0841 116.276C62.0036 117.593 62.2708 118.631 62.8857 119.39C63.5006 120.149 64.4069 120.565 65.6047 120.638ZM77.3486 124.512L78.684 102.652L81.0496 102.797L80.7349 107.947L80.541 111.121L81.1399 111.158L80.4226 112.076C80.5031 110.758 80.9652 109.755 81.8088 109.065C82.6724 108.376 83.8029 108.075 85.2003 108.16C86.8372 108.26 88.1131 108.859 89.0278 109.957C89.9438 111.035 90.3482 112.452 90.2408 114.209L89.5659 125.258L87.2003 125.113L87.8588 114.334C87.9356 113.076 87.666 112.078 87.0499 111.339C86.4338 110.6 85.5568 110.196 84.4189 110.126C83.2411 110.054 82.2903 110.367 81.5664 111.064C80.8426 111.761 80.4404 112.768 80.3599 114.086L79.7142 124.656L77.3486 124.512ZM103.179 126.09C101.801 126.005 100.755 125.581 100.041 124.816C99.3271 124.031 99.0112 122.97 99.0929 121.632L99.7112 111.511L95.0399 111.226L95.1716 109.07L99.8429 109.355L100.126 104.714L102.522 104.86L102.238 109.501L108.856 109.906L108.724 112.062L102.107 111.657L101.488 121.778C101.406 123.136 102.013 123.854 103.31 123.934L107.682 124.201L107.551 126.357L103.179 126.09ZM121.493 127.208C120.555 127.151 119.747 126.921 119.07 126.519C118.414 126.119 117.916 125.567 117.578 124.865C117.241 124.163 117.1 123.353 117.156 122.435L118.085 107.223L112.605 106.889L112.737 104.733L120.582 105.212L119.521 122.58C119.476 123.318 119.641 123.909 120.014 124.353C120.389 124.777 120.926 125.01 121.625 125.052L126.865 125.372L126.733 127.528L121.493 127.208ZM130.944 127.786L131.075 125.63L136.944 125.988L137.687 113.831L132.567 113.518L132.698 111.362L140.214 111.821L139.34 126.135L144.909 126.475L144.778 128.631L130.944 127.786ZM138.932 108.707C138.313 108.669 137.824 108.479 137.464 108.137C137.124 107.795 136.971 107.345 137.005 106.786C137.041 106.207 137.248 105.759 137.628 105.442C138.028 105.125 138.538 104.986 139.157 105.024C139.776 105.062 140.254 105.261 140.593 105.623C140.951 105.985 141.113 106.456 141.078 107.035C141.045 107.574 140.828 108.002 140.428 108.318C140.049 108.615 139.551 108.745 138.932 108.707ZM153.001 129.133L153.774 116.467L148.924 116.17L149.055 114.014L153.906 114.311L154.087 111.346C154.164 110.089 154.614 109.124 155.436 108.453C156.28 107.763 157.39 107.46 158.768 107.545L163.529 107.835L163.397 109.991L158.636 109.701C157.977 109.66 157.458 109.799 157.078 110.116C156.719 110.415 156.521 110.874 156.483 111.493L156.302 114.457L163.099 114.872L162.967 117.028L156.17 116.613L155.396 129.279L153.001 129.133ZM174.998 130.477C173.621 130.393 172.575 129.968 171.86 129.203C171.146 128.418 170.83 127.357 170.912 126.019L171.53 115.898L166.859 115.613L166.991 113.457L171.662 113.742L171.946 109.101L174.341 109.247L174.058 113.889L180.675 114.293L180.544 116.449L173.926 116.045L173.308 126.166C173.225 127.523 173.832 128.242 175.13 128.321L179.502 128.588L179.37 130.744L174.998 130.477ZM184.808 131.076L184.94 128.92L190.809 129.279L191.551 117.121L186.431 116.809L186.563 114.653L194.079 115.112L193.204 129.425L198.774 129.765L198.642 131.921L184.808 131.076ZM192.796 111.998C192.177 111.96 191.688 111.77 191.328 111.427C190.988 111.086 190.836 110.636 190.87 110.077C190.905 109.498 191.113 109.05 191.493 108.732C191.893 108.416 192.402 108.277 193.021 108.315C193.64 108.352 194.119 108.552 194.457 108.913C194.816 109.276 194.977 109.746 194.942 110.325C194.909 110.864 194.693 111.292 194.293 111.608C193.914 111.906 193.415 112.035 192.796 111.998ZM203.032 132.189L204.038 115.72L206.404 115.865L206.217 118.919L206.816 118.955L206.104 119.784C206.185 118.466 206.647 117.462 207.491 116.773C208.355 116.064 209.487 115.752 210.884 115.838C212.521 115.938 213.797 116.537 214.712 117.634C215.627 118.712 216.032 120.13 215.925 121.886L215.25 132.936L212.884 132.791L213.542 122.011C213.619 120.754 213.349 119.765 212.732 119.046C212.114 118.327 211.237 117.933 210.099 117.864C208.921 117.792 207.971 118.094 207.248 118.771C206.526 119.449 206.124 120.446 206.044 121.764L205.398 132.334L203.032 132.189ZM222.664 138.799L222.796 136.643L227.797 136.948C228.735 137.006 229.437 136.828 229.903 136.416C230.389 136.005 230.659 135.35 230.714 134.451L230.831 132.535L231.081 129.424L230.542 129.392L231.153 128.738C231.078 129.975 230.608 130.938 229.745 131.627C228.881 132.316 227.76 132.618 226.383 132.534C224.706 132.431 223.412 131.801 222.501 130.644C221.591 129.466 221.193 127.949 221.306 126.092L221.52 122.589C221.634 120.732 222.213 119.285 223.258 118.247C224.304 117.208 225.665 116.741 227.342 116.843C228.719 116.927 229.794 117.364 230.568 118.152C231.342 118.921 231.692 119.924 231.616 121.162L231.119 120.44L231.598 120.469L231.785 117.415L234.121 117.558L233.08 134.596C232.987 136.113 232.466 137.263 231.516 138.047C230.586 138.852 229.302 139.204 227.665 139.104L222.664 138.799ZM227.198 130.51C228.376 130.582 229.316 130.278 230.019 129.6C230.743 128.903 231.144 127.905 231.223 126.608L231.425 123.314C231.504 122.016 231.226 120.988 230.591 120.227C229.978 119.449 229.082 119.023 227.904 118.951C226.706 118.878 225.756 119.181 225.053 119.859C224.351 120.538 223.959 121.536 223.879 122.853L223.677 126.147C223.597 127.464 223.864 128.503 224.479 129.262C225.094 130.021 226 130.437 227.198 130.51Z" fill="white"/>
<path d="M161.007 199.382L158.906 177.583L161.265 177.356L162.448 189.629L165.823 189.304L170.025 181.936L172.772 181.671L168.002 190.028L174.445 198.087L171.668 198.354L166.051 191.361L162.647 191.689L163.366 199.155L161.007 199.382ZM178.823 197.665L177.24 181.241L179.599 181.013L179.893 184.059L180.49 184.002L179.916 184.931C179.79 183.617 180.089 182.553 180.814 181.74C181.558 180.905 182.626 180.42 184.02 180.286C185.652 180.128 187.006 180.52 188.081 181.462C189.154 182.383 189.776 183.719 189.944 185.471L191.007 196.49L188.648 196.718L187.611 185.967C187.49 184.713 187.069 183.779 186.347 183.166C185.624 182.552 184.696 182.3 183.561 182.41C182.387 182.523 181.495 182.97 180.888 183.752C180.28 184.534 180.039 185.582 180.166 186.896L181.182 197.437L178.823 197.665ZM196.46 195.964L196.252 193.814L202.105 193.25L200.937 181.126L195.83 181.619L195.623 179.469L203.118 178.746L204.494 193.02L210.048 192.485L210.256 194.635L196.46 195.964ZM201.364 175.871C200.747 175.931 200.234 175.819 199.825 175.537C199.436 175.253 199.215 174.833 199.161 174.275C199.105 173.698 199.24 173.223 199.566 172.85C199.912 172.475 200.393 172.258 201.01 172.198C201.627 172.139 202.131 172.261 202.522 172.565C202.933 172.867 203.166 173.306 203.222 173.884C203.274 174.421 203.127 174.877 202.781 175.252C202.454 175.605 201.981 175.812 201.364 175.871ZM222.487 193.455C221.114 193.588 220.014 193.332 219.188 192.688C218.361 192.025 217.883 191.026 217.754 189.692L216.781 179.599L212.123 180.048L211.916 177.898L216.574 177.449L216.128 172.82L218.517 172.59L218.963 177.219L225.562 176.582L225.77 178.733L219.17 179.369L220.143 189.462C220.274 190.816 220.986 191.43 222.28 191.305L226.64 190.885L226.847 193.035L222.487 193.455ZM240.393 191.729C239.019 191.862 237.919 191.606 237.094 190.962C236.266 190.299 235.788 189.3 235.66 187.966L234.687 177.873L230.028 178.322L229.821 176.172L234.479 175.723L234.033 171.094L236.422 170.864L236.868 175.493L243.468 174.856L243.675 177.006L237.076 177.643L238.049 187.736C238.179 189.09 238.891 189.704 240.185 189.579L244.545 189.159L244.752 191.309L240.393 191.729ZM250.175 190.786L249.968 188.636L255.821 188.072L254.652 175.948L249.546 176.441L249.339 174.29L256.834 173.568L258.21 187.842L263.764 187.306L263.972 189.456L250.175 190.786ZM255.08 170.693C254.463 170.752 253.95 170.641 253.541 170.359C253.152 170.075 252.93 169.654 252.877 169.097C252.821 168.52 252.956 168.045 253.282 167.672C253.627 167.297 254.109 167.079 254.726 167.02C255.343 166.96 255.847 167.083 256.238 167.387C256.649 167.689 256.882 168.128 256.938 168.706C256.99 169.243 256.843 169.699 256.497 170.074C256.17 170.427 255.697 170.633 255.08 170.693ZM268.349 189.034L266.766 172.61L269.125 172.383L269.419 175.429L270.016 175.371L269.443 176.301C269.316 174.987 269.615 173.923 270.341 173.11C271.084 172.275 272.152 171.79 273.546 171.656C275.178 171.498 276.532 171.89 277.607 172.831C278.681 173.752 279.302 175.089 279.471 176.841L280.533 187.86L278.174 188.087L277.138 177.337C277.017 176.083 276.595 175.149 275.873 174.536C275.151 173.922 274.222 173.67 273.088 173.779C271.913 173.893 271.022 174.34 270.414 175.122C269.806 175.904 269.566 176.952 269.692 178.266L270.709 188.807L268.349 189.034ZM288.774 192.49L288.566 190.34L293.553 189.86C294.489 189.77 295.155 189.484 295.55 189.004C295.966 188.522 296.131 187.833 296.044 186.937L295.86 185.026L295.62 181.915L295.083 181.967L295.584 181.225C295.703 182.459 295.39 183.484 294.645 184.299C293.9 185.115 292.84 185.588 291.467 185.721C289.794 185.882 288.418 185.462 287.337 184.461C286.254 183.441 285.623 182.004 285.444 180.153L285.108 176.659C284.929 174.808 285.275 173.288 286.145 172.099C287.015 170.91 288.286 170.235 289.958 170.073C291.332 169.941 292.462 170.204 293.349 170.862C294.235 171.5 294.737 172.436 294.856 173.67L294.252 173.035L294.73 172.989L294.436 169.943L296.765 169.719L298.403 186.71C298.549 188.223 298.215 189.441 297.399 190.363C296.606 191.303 295.393 191.852 293.761 192.01L288.774 192.49ZM291.955 183.594C293.129 183.481 294.01 183.034 294.598 182.254C295.204 181.453 295.445 180.405 295.32 179.111L295.003 175.826C294.879 174.532 294.443 173.559 293.697 172.908C292.969 172.234 292.018 171.954 290.844 172.068C289.649 172.183 288.758 172.63 288.17 173.41C287.582 174.19 287.352 175.237 287.478 176.551L287.795 179.836C287.922 181.15 288.348 182.134 289.074 182.787C289.8 183.44 290.76 183.709 291.955 183.594Z" fill="white"/>
<path d="M135.703 178.542L133.454 162.196L137.615 161.624L138.044 164.744L139.173 164.589L138.157 166.667C137.914 164.903 138.138 163.52 138.828 162.517C139.517 161.513 140.645 160.904 142.21 160.689C144.013 160.441 145.485 160.793 146.626 161.747C147.786 162.697 148.502 164.164 148.775 166.145L148.959 167.482L144.204 168.136L144.061 167.096C143.938 166.205 143.595 165.545 143.031 165.118C142.488 164.688 141.81 164.529 140.997 164.641C140.145 164.758 139.526 165.096 139.138 165.654C138.77 166.209 138.648 166.932 138.77 167.824L140.161 177.929L135.703 178.542ZM160.073 175.492C158.626 175.691 157.321 175.598 156.158 175.213C155.012 174.806 154.075 174.157 153.347 173.268C152.636 172.357 152.19 171.247 152.011 169.939L151.479 166.076C151.299 164.768 151.43 163.589 151.871 162.539C152.329 161.467 153.056 160.59 154.052 159.907C155.066 159.203 156.296 158.751 157.742 158.552C159.188 158.353 160.475 158.459 161.601 158.869C162.745 159.257 163.672 159.906 164.383 160.818C165.111 161.707 165.565 162.805 165.745 164.113L166.154 167.085L156.138 168.463L156.261 169.355C156.402 170.385 156.758 171.133 157.327 171.6C157.893 172.047 158.671 172.203 159.662 172.066C160.355 171.971 160.894 171.776 161.277 171.481C161.68 171.183 161.923 170.817 162.004 170.381L166.373 169.78C166.213 171.256 165.558 172.517 164.41 173.563C163.282 174.607 161.836 175.25 160.073 175.492ZM161.589 165.381L161.487 164.638C161.348 163.628 161.003 162.888 160.454 162.418C159.925 161.946 159.175 161.777 158.204 161.91C157.233 162.044 156.538 162.422 156.119 163.045C155.72 163.665 155.59 164.481 155.729 165.491L155.79 165.937L161.845 165.043L161.589 165.381ZM175.753 173.335C174.109 173.561 172.74 173.295 171.646 172.537C170.572 171.777 169.931 170.633 169.721 169.108C169.495 167.463 169.886 166.128 170.896 165.1C171.922 164.051 173.505 163.379 175.645 163.084L179.033 162.618L178.866 161.4C178.778 160.766 178.481 160.292 177.974 159.978C177.486 159.661 176.866 159.555 176.113 159.659C175.419 159.754 174.866 159.992 174.454 160.371C174.042 160.751 173.825 161.225 173.802 161.793L169.493 162.386C169.445 160.717 169.979 159.321 171.097 158.199C172.231 157.053 173.789 156.344 175.771 156.072C177.851 155.785 179.566 156.074 180.917 156.938C182.284 157.78 183.086 159.063 183.324 160.786L184.836 171.783L180.527 172.376L180.159 169.701L179.446 169.799L180.046 168.656C180.215 169.885 179.904 170.927 179.113 171.783C178.339 172.616 177.219 173.133 175.753 173.335ZM176.968 169.837C177.84 169.717 178.522 169.391 179.014 168.859C179.523 168.304 179.726 167.651 179.622 166.898L179.381 165.144L176.082 165.598C175.408 165.691 174.891 165.964 174.529 166.417C174.165 166.851 174.026 167.385 174.113 168.019C174.206 168.693 174.508 169.196 175.018 169.53C175.525 169.844 176.175 169.946 176.968 169.837ZM193.99 170.826C192.345 171.053 190.949 170.659 189.8 169.646C188.651 168.633 187.942 167.146 187.672 165.185L187.099 161.024C186.832 159.082 187.115 157.469 187.948 156.183C188.778 154.878 190.015 154.112 191.659 153.886C193.007 153.701 194.121 153.951 195.003 154.637C195.882 155.304 196.418 156.34 196.612 157.747L195.428 156.85L196.469 156.707L195.768 152.715L195.155 148.257L199.613 147.644L202.597 169.339L198.288 169.932L197.859 166.812L196.818 166.955L197.716 165.771C197.909 167.178 197.674 168.331 197.01 169.23C196.344 170.109 195.337 170.641 193.99 170.826ZM195.063 166.742C195.875 166.63 196.478 166.315 196.871 165.797C197.261 165.258 197.398 164.563 197.281 163.711L196.749 159.848C196.632 158.996 196.314 158.373 195.796 157.98C195.275 157.567 194.608 157.417 193.796 157.529C192.963 157.643 192.352 157.97 191.962 158.508C191.589 159.023 191.461 159.707 191.578 160.559L192.109 164.423C192.227 165.275 192.536 165.909 193.037 166.324C193.556 166.717 194.231 166.856 195.063 166.742ZM206.628 168.785L206.072 164.743L211.718 163.966L210.578 155.674L205.674 156.349L205.122 152.337L214.187 151.09L215.879 163.394L220.634 162.74L221.191 166.781L206.628 168.785ZM211.453 148.831C210.641 148.943 209.958 148.825 209.406 148.477C208.873 148.126 208.558 147.594 208.46 146.881C208.361 146.168 208.522 145.57 208.94 145.089C209.378 144.604 210.003 144.306 210.815 144.195C211.628 144.083 212.3 144.202 212.833 144.553C213.386 144.901 213.711 145.432 213.809 146.145C213.907 146.858 213.737 147.457 213.299 147.941C212.881 148.423 212.266 148.719 211.453 148.831ZM224.329 166.35L222.081 150.004L226.39 149.411L226.819 152.531L228.127 152.351L226.962 153.572C226.772 152.185 227.018 151.04 227.701 150.139C228.385 149.237 229.4 148.694 230.748 148.508C232.333 148.29 233.677 148.671 234.781 149.649C235.904 150.625 236.593 152.035 236.846 153.877L238.298 164.428L233.84 165.041L232.45 154.936C232.332 154.084 232.015 153.462 231.496 153.069C230.995 152.653 230.338 152.502 229.526 152.613C228.733 152.722 228.152 153.045 227.781 153.58C227.408 154.096 227.28 154.78 227.397 155.632L228.787 165.736L224.329 166.35ZM245.234 168.925L244.743 165.358L249.35 164.725C250.182 164.61 250.787 164.315 251.166 163.839C251.564 163.36 251.713 162.754 251.612 162.021L251.526 161.397L251.156 158.268L250.116 158.411L251.013 157.228C251.207 158.635 250.972 159.787 250.308 160.686C249.642 161.565 248.635 162.097 247.288 162.283C245.643 162.509 244.246 162.116 243.098 161.103C241.949 160.09 241.24 158.603 240.97 156.641L240.561 153.669C240.294 151.727 240.576 150.114 241.409 148.828C242.239 147.523 243.476 146.757 245.121 146.531C246.468 146.346 247.582 146.596 248.464 147.282C249.343 147.949 249.879 148.985 250.073 150.392L248.89 149.495L249.93 149.352L249.352 146.252L253.81 145.639L256.001 161.569C256.247 163.352 255.826 164.843 254.739 166.042C253.673 167.239 252.089 167.982 249.989 168.271L245.234 168.925ZM248.361 158.198C249.173 158.087 249.776 157.772 250.169 157.253C250.559 156.715 250.696 156.02 250.579 155.168L250.211 152.493C250.093 151.641 249.776 151.019 249.257 150.626C248.736 150.213 248.069 150.062 247.257 150.174C246.425 150.288 245.814 150.615 245.423 151.153C245.05 151.669 244.922 152.353 245.039 153.204L245.407 155.879C245.524 156.731 245.834 157.365 246.335 157.781C246.853 158.174 247.529 158.313 248.361 158.198Z" fill="white"/>
<defs>
<filter id="filter0_f_436_435" x="7.38599" y="143.707" width="295.422" height="126.201" filterUnits="userSpaceOnUse" color-interpolation-filters="sRGB">
<feFlood flood-opacity="0" result="BackgroundImageFix"/>
<feBlend mode="normal" in="SourceGraphic" in2="BackgroundImageFix" result="shape"/>
<feGaussianBlur stdDeviation="20.5" result="effect1_foregroundBlur_436_435"/>
</filter>
<filter id="filter1_f_436_435" x="42.281" y="85.5071" width="187.779" height="117.627" filterUnits="userSpaceOnUse" color-interpolation-filters="sRGB">
<feFlood flood-opacity="0" result="BackgroundImageFix"/>
<feBlend mode="normal" in="SourceGraphic" in2="BackgroundImageFix" result="shape"/>
<feGaussianBlur stdDeviation="20.5" result="effect1_foregroundBlur_436_435"/>
</filter>
<filter id="filter2_f_436_435" x="210.261" y="84.6887" width="166.527" height="148.308" filterUnits="userSpaceOnUse" color-interpolation-filters="sRGB">
<feFlood flood-opacity="0" result="BackgroundImageFix"/>
<feBlend mode="normal" in="SourceGraphic" in2="BackgroundImageFix" result="shape"/>
<feGaussianBlur stdDeviation="20.5" result="effect1_foregroundBlur_436_435"/>
</filter>
</defs>
</svg>
